<svg width="681.333" height="681.333" viewBox="-4 0 511 512" xmlns="http://www.w3.org/2000/svg" xmlns:xlink="http://www.w3.org/1999/xlink" overflow="hidden"><path d="M455.723 280.414C455.723 403.918 355.59 504.039 232.086 504.039 201.789 504.039 172.906 498.016 146.566 487.094 74.5625 457.27 21.5273 390.918 10.5625 311.148 9.17188 301.105 8.46094 290.84 8.46094 280.414 8.46094 156.898 108.582 56.7773 232.086 56.7773 355.59 56.7773 455.723 156.898 455.723 280.414Z" fill="#937DE2"/><path d="M232.086 56.7773C220.262 56.7773 208.656 57.7031 197.328 59.4688 304.328 76.168 386.211 168.723 386.211 280.414 386.211 392.09 304.336 484.641 197.348 501.344 208.668 503.109 220.266 504.039 232.086 504.039 355.59 504.039 455.723 403.918 455.723 280.414 455.723 156.898 355.59 56.7773 232.086 56.7773Z" fill="#7570D6"/><path d="M483.641 263.879 355.938 348.441C346.84 354.469 335.82 356.859 325.047 355.137 314.25 353.418 303.203 355.777 294.082 361.816L276.992 373.141 181.285 232.066 204.766 130.625C206.594 122.73 207.496 114.727 207.496 106.754 207.496 86.1289 201.465 65.7695 189.895 48.293 187.051 43.9961 185.691 39.1328 185.691 34.3359 185.691 26.1289 189.672 18.082 197.027 13.2109 206.941 6.64062 220.082 7.86328 228.617 16.1406L243.828 30.875C261.227 47.7539 274.645 68.3047 283.074 91.0312L291.324 113.238 376.266 57.1172C389.832 48.1367 408.188 52.0625 416.848 65.957 425.203 79.3438 420.914 97.0312 407.75 105.746 407.59 105.852 407.582 106.02 407.633 106.148 407.707 106.285 407.867 106.383 408.047 106.309 411.402 105.012 414.914 104.387 418.398 104.387 423.957 104.387 429.469 105.988 434.184 109.035 437.43 111.137 440.305 113.93 442.578 117.355 446.961 123.98 448.27 131.75 446.836 138.969 444.582 150.348 436.316 156.207 434.691 157.312 434.414 157.504 434.34 157.883 434.531 158.172 434.531 158.184 434.543 158.191 434.555 158.191 434.734 158.449 435.105 158.523 435.371 158.352 437.684 157.789 440.039 157.523 442.398 157.523 448.148 157.523 453.871 159.16 458.734 162.258 462.023 164.359 464.934 167.141 467.184 170.547 476.016 183.879 472.363 201.852 459.02 210.684 458.691 210.906 458.363 211.129 458.035 211.34 457.844 211.492 457.789 211.734 457.887 211.906 457.906 211.945 457.949 211.988 457.992 212.012 458.141 212.129 458.375 212.137 458.566 211.988 466.855 209.164 475.879 210.449 483.141 215.152 486.484 217.297 489.445 220.184 491.789 223.73 500.621 237.078 496.973 255.047 483.641 263.879Z" fill="#FDD7BD"/><path d="M278.215 399.914 224.344 435.59 146.566 487.098C74.5625 457.27 21.5273 390.922 10.5625 311.148L100.824 251.375 155.77 214.988C162.094 210.793 170.629 212.535 174.82 218.871L282.098 380.848C286.293 387.188 284.551 395.711 278.215 399.914Z" fill="#87DBFF"/><path d="M278.215 399.914 224.344 435.59 100.824 251.375 155.77 214.988C162.094 210.793 170.629 212.535 174.82 218.871L282.098 380.848C286.293 387.188 284.551 395.711 278.215 399.914Z" fill="#6FC7FF"/><g fill="#FAC5AA"><path d="M434.184 109.035 391.691 131.773C385.66 134.992 378.188 133.312 374.133 127.824L407.633 106.148C407.707 106.289 407.867 106.383 408.047 106.309 411.402 105.012 414.914 104.387 418.398 104.387 423.961 104.387 429.469 105.992 434.184 109.035Z"/><path d="M458.734 162.262 417.168 184.488C411.137 187.715 403.664 186.039 399.609 180.551L433.109 158.875 434.555 158.195C434.734 158.453 435.105 158.527 435.371 158.355 437.688 157.793 440.043 157.527 442.398 157.527 448.152 157.527 453.875 159.16 458.734 162.262Z"/><path d="M483.141 215.156 446.527 234.742C440.512 237.957 433.035 236.281 428.973 230.793L457.992 212.016C458.141 212.133 458.375 212.141 458.566 211.992 466.855 209.168 475.879 210.453 483.141 215.156Z"/></g><path d="M498.43 219.34C493.121 211.324 485.074 205.801 475.719 203.707 481.754 192.164 481.508 177.762 473.82 166.156 468.352 157.895 460.102 152.559 451.121 150.539 452.723 147.484 453.906 144.188 454.613 140.711 456.574 131.043 454.66 121.191 449.211 112.969 443.902 104.949 435.855 99.4258 426.5 97.3359 432.535 85.793 432.289 71.3906 424.602 59.7812 413.363 42.8086 390.402 38.1406 373.426 49.3828L336.668 73.7266C317.074 63.7891 296.234 56.7383 274.605 52.7227 267.77 42.3438 259.82 32.6953 250.922 24.0703L235.715 9.33203C224.578-1.46484 207.113-3.08594 194.184 5.48047 178.887 15.6094 174.684 36.2969 184.812 51.5938 185.211 52.1992 185.602 52.8086 185.988 53.418 136.141 63.5039 90.7109 89.957 57.0859 128.719 20.5977 170.785 0.5 224.66 0.5 280.418 0.5 291.105 1.23047 301.812 2.67578 312.234 13.8125 393.254 67.7812 463.074 143.516 494.453 171.602 506.094 201.402 512 232.078 512 280.66 512 327.164 497.121 366.566 468.977 405.113 441.438 433.953 403.434 449.973 359.074 451.469 354.941 449.324 350.375 445.191 348.883 441.055 347.391 436.492 349.531 435 353.668 420.082 394.977 393.219 430.367 357.309 456.02 320.625 482.227 277.32 496.078 232.078 496.078 208.688 496.078 185.848 492.387 163.988 485.105L228.762 442.211C228.766 442.207 228.77 442.207 228.773 442.203 228.777 442.203 228.777 442.199 228.781 442.195L282.613 406.547 282.617 406.547C287.449 403.344 290.75 398.453 291.906 392.77 293.062 387.086 291.938 381.289 288.734 376.457L288.023 375.379 298.48 368.453C305.941 363.512 314.914 361.574 323.75 362.992 336.543 365.047 349.535 362.234 360.332 355.082L447.066 297.645C446.473 305.168 445.496 312.648 444.133 320.004 443.328 324.328 446.184 328.484 450.508 329.285 450.996 329.379 451.488 329.422 451.969 329.422 455.73 329.422 459.074 326.742 459.785 322.91 461.992 311.039 463.262 298.879 463.59 286.703L488.031 270.516C496.254 265.07 501.867 256.746 503.828 247.082 505.793 237.414 503.875 227.562 498.43 219.34ZM321.211 83.9609 296.887 100.07 292.098 87.168C290.098 81.7852 287.805 76.5078 285.266 71.3438 297.605 74.4727 309.621 78.6914 321.211 83.9609ZM69.1133 139.152C101.43 101.898 145.449 76.8555 193.605 68.1719 201.332 86.8906 203.184 107.805 198.566 127.738L179.156 211.594C176.105 208.336 172.145 206.09 167.684 205.184 161.996 204.023 156.203 205.152 151.371 208.355L96.3906 244.762C96.3867 244.762 96.3867 244.762 96.3828 244.766 96.3828 244.766 96.3789 244.766 96.3789 244.77L17.082 297.281C16.6484 291.688 16.4219 286.051 16.4219 280.418 16.4219 228.496 35.1367 178.324 69.1133 139.152ZM276.305 389.594C275.996 391.109 275.113 392.418 273.82 393.273L273.824 393.273 226.543 424.582 138.789 293.711C136.34 290.059 131.395 289.086 127.742 291.535 124.094 293.984 123.117 298.926 125.566 302.578L213.266 433.375 145.77 478.074C78.6992 448.738 30.7031 386.785 19.1641 314.695L98.5547 262.293 107.691 275.926C109.23 278.215 111.746 279.453 114.312 279.453 115.836 279.453 117.379 279.02 118.738 278.105 122.391 275.656 123.367 270.711 120.918 267.059L111.844 253.523 160.164 221.629C161.449 220.773 162.992 220.477 164.508 220.785 166.023 221.094 167.332 221.977 168.188 223.266L275.461 385.25C276.312 386.535 276.613 388.078 276.305 389.594ZM488.227 243.91C487.109 249.41 483.918 254.145 479.238 257.242L451.297 275.746C451.289 275.75 451.281 275.758 451.27 275.762L351.539 341.809C344.078 346.75 335.105 348.691 326.27 347.27 313.48 345.219 300.488 348.027 289.688 355.18L279.23 362.105 191.371 229.438 214.082 131.332C219.93 106.059 216.848 79.4375 205.707 56.2461 205.605 56.0039 205.496 55.7695 205.371 55.5391 203.23 51.1562 200.801 46.9023 198.086 42.8008 192.805 34.8242 194.996 24.0391 202.977 18.7539 209.719 14.2891 218.828 15.1328 224.633 20.7617L239.84 35.5039C256.289 51.4531 269.199 71.2344 277.168 92.7109L285.449 115.02C285.465 115.062 285.48 115.098 285.496 115.137 285.516 115.188 285.539 115.242 285.559 115.293 285.617 115.43 285.672 115.555 285.73 115.66 285.891 115.996 286.066 116.328 286.277 116.645 288.707 120.312 293.645 121.316 297.309 118.887L382.219 62.6602C391.875 56.2656 404.934 58.918 411.328 68.5742 417.723 78.2305 415.07 91.2891 405.414 97.6836L398.043 102.566C398.043 102.566 398.039 102.566 398.035 102.57L381.594 113.461C381.57 113.477 381.555 113.492 381.531 113.504 381.438 113.57 381.348 113.633 381.273 113.695 377.875 116.191 376.996 120.938 379.352 124.492 381.777 128.16 386.719 129.164 390.387 126.734L406.84 115.836C411.516 112.746 417.113 111.656 422.609 112.773 428.105 113.891 432.844 117.082 435.938 121.762 439.035 126.438 440.129 132.043 439.012 137.539 437.895 143.039 434.703 147.773 430.023 150.871L406.203 166.648C402.535 169.074 401.531 174.012 403.961 177.68 405.492 179.992 408.023 181.246 410.605 181.246 412.113 181.246 413.641 180.816 414.992 179.922L418.68 177.48 431.438 169.031C441.098 162.637 454.152 165.289 460.547 174.945 466.941 184.605 464.289 197.66 454.633 204.059L442.734 211.938C442.672 211.977 442.609 212.02 442.547 212.062L430.812 219.832C427.145 222.258 426.141 227.199 428.57 230.867 430.102 233.18 432.633 234.434 435.215 234.434 436.723 234.434 438.25 234.004 439.602 233.109L443.289 230.668C443.289 230.668 443.289 230.664 443.293 230.664L456.051 222.219C460.727 219.121 466.328 218.027 471.828 219.148 477.328 220.262 482.062 223.457 485.16 228.133 488.254 232.809 489.344 238.414 488.227 243.91Z"/></svg>