<?xml version="1.0" encoding="iso-8859-1"?>
<!-- Generator: Adobe Illustrator 19.0.0, SVG Export Plug-In . SVG Version: 6.00 Build 0)  -->
<svg version="1.1" id="Layer_1" xmlns="http://www.w3.org/2000/svg" xmlns:xlink="http://www.w3.org/1999/xlink" x="0px" y="0px"
	 viewBox="0 0 128 128" style="enable-background:new 0 0 128 128;" xml:space="preserve">
<g>
	<circle style="fill:#2ECBD0;" cx="64" cy="64" r="64"/>
	<g>
		<path style="fill:#F4EDDA;" d="M93.813,92.565c0,1.345-0.885,2.435-2.208,2.435h-55.21c-1.322,0-2.581-1.09-2.581-2.435v-57.13
			c0-1.345,1.259-2.435,2.581-2.435h55.211c1.323,0,2.208,1.09,2.208,2.435L93.813,92.565L93.813,92.565z"/>
		<path style="fill:#F5795D;" d="M93.813,51.553c0,0.414-0.943,1.447-2.265,1.447H36.452c-1.322,0-2.638-1.033-2.638-1.447V34.075
			c0-0.414,1.316-1.075,2.638-1.075h55.096c1.322,0,2.265,0.661,2.265,1.075V51.553z"/>
		<path style="fill:#F4EDDA;" d="M52.813,39.628c0,1.31-1.062,2.372-2.372,2.372h-2.256c-1.31,0-2.372-1.062-2.372-2.372V29.372
			c0-1.31,1.062-2.372,2.372-2.372h2.256c1.31,0,2.372,1.062,2.372,2.372V39.628z"/>
		<path style="fill:#F4EDDA;" d="M81.813,39.628c0,1.31-1.062,2.372-2.372,2.372h-2.256c-1.31,0-2.372-1.062-2.372-2.372V29.372
			c0-1.31,1.062-2.372,2.372-2.372h2.256c1.31,0,2.372,1.062,2.372,2.372V39.628z"/>
		<rect x="37.813" y="57" style="fill:#E2DCCC;" width="10" height="9"/>
		<rect x="51.813" y="57" style="fill:#E2DCCC;" width="10" height="9"/>
		<rect x="65.813" y="57" style="fill:#E2DCCC;" width="10" height="9"/>
		<rect x="79.813" y="57" style="fill:#E2DCCC;" width="10" height="9"/>
		<rect x="37.813" y="69" style="fill:#E2DCCC;" width="10" height="10"/>
		<rect x="51.813" y="69" style="fill:#E2DCCC;" width="10" height="10"/>
		<rect x="65.813" y="69" style="fill:#E2DCCC;" width="10" height="10"/>
		<rect x="79.813" y="69" style="fill:#E2DCCC;" width="10" height="10"/>
		<rect x="37.813" y="82" style="fill:#E2DCCC;" width="10" height="10"/>
		<rect x="51.813" y="82" style="fill:#E2DCCC;" width="10" height="10"/>
		<rect x="65.813" y="82" style="fill:#E2DCCC;" width="10" height="10"/>
		<rect x="79.813" y="82" style="fill:#F5795D;" width="10" height="10"/>
	</g>
</g>
<g>
</g>
<g>
</g>
<g>
</g>
<g>
</g>
<g>
</g>
<g>
</g>
<g>
</g>
<g>
</g>
<g>
</g>
<g>
</g>
<g>
</g>
<g>
</g>
<g>
</g>
<g>
</g>
<g>
</g>
</svg>
