<svg width="512" height="512" viewBox="0 0 512 512" xmlns="http://www.w3.org/2000/svg" xmlns:xlink="http://www.w3.org/1999/xlink" id="Capa_1" overflow="hidden"><g><g><path d="M70.295 18.286 70.295 288.373 117.02 288.373 399.883 52.202 399.883 18.286C399.883 12.345 395.009 7.5 389.067 7.5L81.111 7.5C75.17 7.5 70.295 12.345 70.295 18.286Z" fill="#C6D0DA" fill-rule="evenodd" clip-rule="evenodd"/></g><g><path d="M126.279 52.202C121.174 52.202 117.02 56.355 117.02 61.431L117.02 288.373 274.935 312.512 420.245 227.001 420.245 61.431C420.245 56.355 416.092 52.202 410.986 52.202L399.882 52.202Z" fill="#FAF8F9" fill-rule="evenodd" clip-rule="evenodd"/></g><g><path d="M210.645 105.008C199.31 118.044 185.177 123.869 167.208 125.427 165.16 125.6 164.064 125.254 163.949 127.561 161.613 172.926 182.408 198.94 210.819 217.628 211.425 218.032 211.252 218.032 211.857 217.628 240.267 198.968 261.063 172.926 258.755 127.561 258.611 125.254 257.515 125.6 255.467 125.427 237.498 123.87 223.394 118.044 212.058 105.008 211.193 104.028 211.481 104.028 210.645 105.008Z" fill="#CCF49F" fill-rule="evenodd" clip-rule="evenodd"/></g><g><path d="M247.65 288.373 117.021 288.373 70.295 288.373 66.142 288.373C54.518 288.373 45 297.89 45 309.513L45 454.723C45 466.346 54.518 475.863 66.142 475.863L267.379 475.863 424.746 475.863 445.859 475.863C457.483 475.863 467.001 466.346 467.001 454.723L467.001 253.102C467.001 238.74 455.233 226.973 440.869 226.973L420.246 227.002 399.883 227.031 307.99 227.175C300.029 227.204 292.992 228.761 288.492 242.403L278.714 271.935C276.291 287.71 264.783 288.373 247.65 288.373Z" fill="#FFE07D" fill-rule="evenodd" clip-rule="evenodd"/></g><g><path d="M277.445 375.066C271.417 378.7 267.379 385.304 267.379 392.803L267.379 475.862 267.379 483.793C267.379 495.185 276.695 504.5 288.088 504.5L404.036 504.5C415.429 504.5 424.745 495.185 424.745 483.793L424.745 475.862 424.745 392.803C424.745 381.44 415.429 372.096 404.036 372.096L399.883 372.096 394.98 372.096 297.145 372.096 288.088 372.096C284.194 372.095 280.56 373.191 277.445 375.066ZM327.862 432.256C327.862 422.191 335.996 414.029 346.062 414.029 356.128 414.029 364.262 422.191 364.262 432.256 364.262 442.292 356.128 450.454 346.062 450.454 335.996 450.454 327.862 442.292 327.862 432.256Z" fill="#C6D0DA" fill-rule="evenodd" clip-rule="evenodd"/></g><g><path d="M346.062 414.029C335.996 414.029 327.862 422.191 327.862 432.256 327.862 442.292 335.996 450.454 346.062 450.454 356.128 450.454 364.262 442.292 364.262 432.256 364.262 422.191 356.128 414.029 346.062 414.029Z" fill="#685D68" fill-rule="evenodd" clip-rule="evenodd"/></g><g><path d="M399.883 52.202 345.428 52.173C378.28 102.874 389.211 167.735 380.703 227.059L399.884 227.03 420.247 227.001 420.247 61.431C420.247 56.355 416.094 52.202 410.988 52.202Z" fill="#E5E1E5" fill-rule="evenodd" clip-rule="evenodd"/></g><g><path d="M399.883 227.03 385.202 227.059C390.653 227.088 395.701 228.818 399.883 231.702 401.7 232.971 403.344 234.442 404.786 236.115 408.766 240.701 411.189 246.67 411.189 253.188L411.189 364.914 411.189 373.393C419.092 376.306 424.745 383.92 424.745 392.802L424.745 475.861 445.858 475.861C457.482 475.861 467 466.344 467 454.721L467 253.102C467 238.74 455.232 226.973 440.868 226.973L420.245 227.002Z" fill="#FFC250" fill-rule="evenodd" clip-rule="evenodd"/></g><g><path d="M398.96 392.803 398.96 475.862 398.96 483.793C398.96 495.185 389.644 504.5 378.251 504.5L404.036 504.5C415.429 504.5 424.745 495.185 424.745 483.793L424.745 475.862 424.745 392.803C424.745 383.92 419.092 376.307 411.189 373.394 408.939 372.558 406.545 372.096 404.036 372.096L399.883 372.096 394.98 372.096 378.251 372.096C382.145 372.096 385.779 373.192 388.894 375.067 394.922 378.7 398.96 385.304 398.96 392.803Z" fill="#A0AAB7" fill-rule="evenodd" clip-rule="evenodd"/></g><g><path d="M222.614 114.583C223.191 119.543 223.479 124.59 223.479 129.724 223.479 159.112 213.644 186.164 197.174 207.477 199.943 209.842 202.856 212.063 205.856 214.226 207.471 215.38 209.144 216.504 210.817 217.629 211.423 218.033 211.25 218.033 211.855 217.629 227.574 207.304 240.957 194.73 249.38 177.859 256.216 164.247 259.763 147.837 258.754 127.562 258.61 125.255 257.514 125.601 255.466 125.428 242.689 124.331 231.873 121.043 222.614 114.583Z" fill="#95D6A4" fill-rule="evenodd" clip-rule="evenodd"/></g><g><path d="M256.692 117.989C256.508 117.98 256.31 117.971 256.114 117.955 239.015 116.473 227.174 110.962 217.68 100.044L217.508 99.84C215.798 97.783 213.667 96.751 211.272 96.773 208.845 96.795 206.769 97.862 205.099 99.945L204.947 100.132C195.499 110.977 183.657 116.474 166.577 117.954 166.364 117.973 166.166 117.981 165.982 117.99 157.781 118.402 156.589 124.558 156.458 127.176 154.294 169.194 170.258 199.927 206.728 223.917 208.168 224.921 209.747 225.423 211.33 225.423 212.92 225.423 214.515 224.915 215.975 223.898 252.411 199.968 268.386 169.236 266.242 127.093 266.077 124.491 264.82 118.398 256.692 117.989ZM211.338 208.918C183.254 189.247 170.744 165.409 171.28 132.547 187.86 130.573 200.811 124.943 211.35 115.077 221.891 124.945 234.837 130.577 251.418 132.55 251.936 165.417 239.427 189.256 211.338 208.918Z"/><path d="M371.213 97.45 306.259 97.45C302.116 97.45 298.759 100.807 298.759 104.95 298.759 109.093 302.116 112.45 306.259 112.45L371.213 112.45C375.356 112.45 378.713 109.093 378.713 104.95 378.713 100.807 375.355 97.45 371.213 97.45Z"/><path d="M371.213 133.847 306.259 133.847C302.116 133.847 298.759 137.204 298.759 141.347 298.759 145.49 302.116 148.847 306.259 148.847L371.213 148.847C375.356 148.847 378.713 145.49 378.713 141.347 378.713 137.204 375.355 133.847 371.213 133.847Z"/><path d="M371.213 170.242 306.259 170.242C302.116 170.242 298.759 173.599 298.759 177.742 298.759 181.885 302.116 185.242 306.259 185.242L371.213 185.242C375.356 185.242 378.713 181.885 378.713 177.742 378.713 173.599 375.355 170.242 371.213 170.242Z"/><path d="M440.856 219.473 427.746 219.493 427.746 61.431C427.746 52.207 420.228 44.702 410.987 44.702L407.383 44.702 407.383 18.286C407.383 8.203 399.166 1.06581e-14 389.066 1.06581e-14L81.111 1.06581e-14C71.011 1.06581e-14 62.795 8.203 62.795 18.286L62.795 281.075C48.574 282.738 37.5 294.853 37.5 309.513L37.5 454.722C37.5 470.515 50.349 483.363 66.142 483.363L127.606 483.363C131.748 483.363 135.106 480.006 135.106 475.863 135.106 471.72 131.748 468.363 127.606 468.363L66.142 468.363C58.62 468.363 52.5 462.244 52.5 454.722L52.5 309.513C52.5 301.992 58.62 295.873 66.142 295.873L247.65 295.873C263.082 295.873 282.252 295.872 286.022 273.725L295.614 244.752C298.927 234.707 302.74 234.693 308.002 234.675L440.869 234.473C451.142 234.473 459.501 242.829 459.501 253.102L459.501 454.722C459.501 462.243 453.382 468.363 445.859 468.363L432.246 468.363 432.246 392.803C432.246 377.249 419.592 364.596 404.037 364.596L402.48 364.596 402.48 344.87C402.48 325.707 386.901 310.116 367.752 310.116L324.4 310.116C305.236 310.116 289.644 325.707 289.644 344.87L289.644 364.596 288.087 364.596C272.532 364.596 259.878 377.249 259.878 392.803L259.878 468.363 166.745 468.363C162.603 468.363 159.245 471.72 159.245 475.863 159.245 480.006 162.603 483.363 166.745 483.363L259.878 483.363 259.878 483.794C259.878 499.348 272.532 512.001 288.087 512.001L404.035 512.001C419.59 512.001 432.244 499.348 432.244 483.794L432.244 483.363 445.857 483.363C461.65 483.363 474.499 470.515 474.499 454.722L474.499 253.102C474.5 234.559 459.413 219.473 440.856 219.473ZM307.963 219.675C298.125 219.71 287.272 222.158 281.371 240.045L271.594 269.577C271.462 269.974 271.365 270.383 271.301 270.796 269.985 279.366 266.448 280.873 247.65 280.873L124.521 280.873 124.521 61.431C124.521 60.494 125.326 59.702 126.28 59.702L201.761 59.702C205.903 59.702 209.261 56.345 209.261 52.202 209.261 48.059 205.903 44.702 201.761 44.702L126.28 44.702C117.039 44.702 109.521 52.207 109.521 61.431L109.521 280.873 77.795 280.873 77.795 18.286C77.795 16.505 79.314 15 81.111 15L389.066 15C390.864 15 392.382 16.505 392.382 18.286L392.382 44.702 237.007 44.702C232.865 44.702 229.507 48.059 229.507 52.202 229.507 56.345 232.865 59.702 237.007 59.702L410.987 59.702C411.94 59.702 412.746 60.494 412.746 61.431L412.746 219.516ZM304.645 344.87C304.645 333.977 313.507 325.116 324.401 325.116L367.753 325.116C378.631 325.116 387.481 333.977 387.481 344.87L387.481 364.596 304.646 364.596 304.646 344.87ZM417.245 483.793C417.245 491.075 411.319 497 404.036 497L288.088 497C280.805 497 274.879 491.075 274.879 483.793L274.879 392.803C274.879 385.521 280.805 379.596 288.088 379.596L404.036 379.596C411.319 379.596 417.245 385.521 417.245 392.803Z"/><path d="M346.062 406.529C331.891 406.529 320.363 418.07 320.363 432.256 320.363 443.818 328.039 453.618 338.562 456.835L338.562 472.632C338.562 476.775 341.919 480.132 346.062 480.132 350.205 480.132 353.562 476.775 353.562 472.632L353.562 456.835C364.085 453.618 371.762 443.818 371.762 432.256 371.762 418.07 360.232 406.529 346.062 406.529ZM346.062 442.954C340.163 442.954 335.363 438.155 335.363 432.256 335.363 426.341 340.163 421.529 346.062 421.529 351.962 421.529 356.762 426.341 356.762 432.256 356.762 438.155 351.962 442.954 346.062 442.954Z"/></g></g></svg>