<svg width="512" height="512" viewBox="0 0 512 512" xmlns="http://www.w3.org/2000/svg" xmlns:xlink="http://www.w3.org/1999/xlink" id="Capa_1" overflow="hidden"><g><g><g><g><g><g><g><path d="M366.966 504.5 50.369 504.5C40.229 504.5 32.01 496.28 32.01 486.141L32.01 66.75C32.01 56.61 40.23 48.391 50.369 48.391L366.966 48.391C377.106 48.391 385.325 56.611 385.325 66.75L385.325 486.141C385.326 496.28 377.106 504.5 366.966 504.5Z" fill="#EAB14D"/><path d="M62.017 467.93 62.017 84.96C62.017 81.336 64.955 78.398 68.579 78.398L348.755 78.398C352.379 78.398 355.317 81.336 355.317 84.96L355.317 467.93C355.317 471.554 352.379 474.492 348.755 474.492L68.58 474.492C64.955 474.492 62.017 471.554 62.017 467.93Z" fill="#F4F8F8"/><path d="M348.756 78.398 287.878 78.398C291.502 78.398 294.44 81.336 294.44 84.961L294.44 467.93C294.44 471.555 291.502 474.493 287.878 474.493L348.756 474.493C352.38 474.493 355.318 471.555 355.318 467.93L355.318 84.96C355.318 81.336 352.38 78.398 348.756 78.398Z" fill="#E7ECF1"/><path d="M157.436 215.107 135.075 215.107C132.492 215.107 130.398 217.201 130.398 219.784L130.398 276.446 162.113 276.446 162.113 219.784C162.113 217.201 160.019 215.107 157.436 215.107Z" fill="#8C9BA6"/><path d="M223.599 189.11 201.238 189.11C198.655 189.11 196.561 191.204 196.561 193.787L196.561 276.445 228.276 276.445 228.276 193.787C228.276 191.204 226.182 189.11 223.599 189.11Z" fill="#66B49D"/><path d="M289.763 153.768 267.402 153.768C264.819 153.768 262.725 155.862 262.725 158.445L262.725 276.445 294.44 276.445 294.44 158.445C294.44 155.862 292.346 153.768 289.763 153.768Z" fill="#FC8086"/><path d="M247.67 30.348 247.67 20.683C247.67 13.402 241.768 7.5 234.487 7.5L182.849 7.5C175.568 7.5 169.666 13.402 169.666 20.683L169.666 30.348C169.666 33.325 167.252 35.739 164.275 35.739L142.784 35.739C135.635 35.739 129.839 41.535 129.839 48.684L129.839 78.397 287.499 78.397 287.499 48.685C287.499 41.536 281.703 35.74 274.554 35.74L253.063 35.74C250.084 35.74 247.67 33.326 247.67 30.348Z" fill="#C2D0DA"/></g></g></g></g><g><g><path d="M369.516 368.754 402.81 368.754 402.81 452.591 369.516 452.591Z" fill="#E7ECF1" transform="matrix(0.707 -0.707 0.707 0.707 -177.285 393.342)"/><path d="M474.013 498.523C466.044 506.492 453.124 506.492 445.155 498.523L387.95 441.318C384.498 437.867 384.498 432.271 387.95 428.819L404.309 412.46C407.761 409.008 413.356 409.008 416.808 412.46L474.013 469.665C481.982 477.634 481.982 490.554 474.013 498.523Z" fill="#9D6B6B"/></g><circle cx="303.467" cy="327.977" r="102.21" fill="#818181"/><circle cx="303.467" cy="327.977" r="73.967" fill="#DDEAFB"/><path d="M303.467 254.01C292.502 254.01 282.104 256.415 272.745 260.696 298.255 272.364 315.99 298.092 315.99 327.978 315.99 357.864 298.256 383.591 272.745 395.259 282.105 399.54 292.502 401.945 303.467 401.945 344.318 401.945 377.434 368.829 377.434 327.978 377.435 287.126 344.318 254.01 303.467 254.01Z" fill="#BED8FB"/></g></g></g><g><g><g><path d="M165.58 337.293 99.926 337.293C95.784 337.293 92.426 340.65 92.426 344.793 92.426 348.936 95.784 352.293 99.926 352.293L165.58 352.293C169.722 352.293 173.08 348.936 173.08 344.793 173.08 340.65 169.722 337.293 165.58 337.293Z"/><path d="M165.58 376.637 99.926 376.637C95.784 376.637 92.426 379.994 92.426 384.137 92.426 388.28 95.784 391.637 99.926 391.637L165.58 391.637C169.722 391.637 173.08 388.28 173.08 384.137 173.08 379.994 169.722 376.637 165.58 376.637Z"/><path d="M165.58 415.979 99.926 415.979C95.784 415.979 92.426 419.336 92.426 423.479 92.426 427.622 95.784 430.979 99.926 430.979L165.58 430.979C169.722 430.979 173.08 427.622 173.08 423.479 173.08 419.336 169.722 415.979 165.58 415.979Z"/><path d="M479.324 464.361 422.119 407.156C419.324 404.361 415.759 402.794 412.1 402.452L396.229 386.581C419.84 349.22 418.707 300.603 392.832 264.321L392.832 66.75C392.832 52.491 381.231 40.891 366.973 40.891L293.453 40.891C290.382 33.474 283.074 28.24 274.56 28.24L255.177 28.24 255.177 20.684C255.176 9.278 245.898 2.4869e-14 234.493 2.4869e-14L182.855 2.4869e-14C171.45 2.4869e-14 162.172 9.278 162.172 20.684L162.172 28.24 142.79 28.24C134.276 28.24 126.968 33.474 123.897 40.891L50.376 40.891C36.117 40.891 24.517 52.492 24.517 66.75L24.517 486.141C24.517 500.4 36.118 512 50.376 512L366.973 512C381.232 512 392.832 500.399 392.832 486.141L392.832 456.801 439.858 503.827C445.298 509.266 452.445 511.987 459.59 511.987 466.736 511.987 473.883 509.266 479.323 503.827 490.204 492.946 490.204 475.242 479.324 464.361ZM370.444 394.947C333.516 431.876 273.43 431.875 236.504 394.947 199.578 358.019 199.577 297.934 236.504 261.008 254.97 242.541 279.219 233.312 303.475 233.312 327.725 233.312 351.984 242.546 370.445 261.008 407.372 297.935 407.372 358.021 370.444 394.947ZM220.791 255.874C217.158 260.034 213.893 264.405 210.994 268.945L204.068 268.945 204.068 196.61 220.783 196.61 220.783 255.704C220.783 255.761 220.79 255.817 220.791 255.874ZM270.231 223.445 270.231 161.269 286.946 161.269 286.946 219.567C281.301 220.42 275.711 221.712 270.231 223.445ZM137.344 48.848C137.349 48.745 137.355 48.643 137.357 48.539 137.357 48.515 137.355 48.491 137.355 48.467 137.47 45.565 139.86 43.239 142.789 43.239L164.28 43.239C171.388 43.239 177.171 37.457 177.171 30.348L177.171 20.683C177.171 17.549 179.72 14.999 182.854 14.999L234.492 14.999C237.626 14.999 240.175 17.549 240.175 20.683L240.175 30.348C240.175 37.456 245.958 43.239 253.066 43.239L274.558 43.239C277.498 43.239 279.895 45.583 279.993 48.5 279.994 48.538 279.99 48.575 279.991 48.613 279.994 48.69 279.998 48.769 280.003 48.848L280.003 70.898 137.344 70.898ZM377.832 486.141C377.832 492.129 372.961 497 366.973 497L50.376 497C44.388 497 39.517 492.129 39.517 486.141L39.517 66.75C39.517 60.762 44.389 55.891 50.376 55.891L122.345 55.891 122.345 70.899 68.586 70.899C60.832 70.899 54.524 77.207 54.524 84.961L54.524 467.931C54.524 475.685 60.832 481.994 68.586 481.994L348.762 481.994C356.516 481.994 362.825 475.685 362.825 467.931L362.825 452.426C362.825 448.283 359.468 444.926 355.325 444.926 351.182 444.926 347.825 448.283 347.825 452.426L347.825 466.993 69.524 466.993 69.524 85.898 347.825 85.898 347.825 203.82C347.825 207.963 351.182 211.32 355.325 211.32 359.468 211.32 362.825 207.963 362.825 203.82L362.825 84.96C362.825 77.206 356.516 70.898 348.762 70.898L295.003 70.898 295.003 55.891 366.972 55.891C372.96 55.891 377.831 60.762 377.831 66.75L377.831 247.319C356.485 227.622 329.16 217.961 301.945 218.337L301.945 158.445C301.945 151.731 296.482 146.268 289.768 146.268L267.408 146.268C260.693 146.268 255.23 151.731 255.23 158.445L255.23 229.439C248.431 232.761 241.908 236.828 235.782 241.639L235.782 193.787C235.782 187.073 230.32 181.61 223.605 181.61L201.244 181.61C194.53 181.61 189.067 187.073 189.067 193.787L189.067 268.945 169.618 268.945 169.618 219.783C169.618 213.069 164.156 207.606 157.441 207.606L135.08 207.606C128.366 207.606 122.903 213.069 122.903 219.783L122.903 268.945 110.753 268.945C108.918 268.945 107.424 267.452 107.424 265.617L107.424 127.405C107.424 123.262 104.066 119.905 99.924 119.905 95.782 119.905 92.424 123.262 92.424 127.405L92.424 265.617C92.424 275.723 100.646 283.945 110.753 283.945L202.986 283.945C185.44 324.117 193.075 372.732 225.896 405.554 247.287 426.944 275.375 437.635 303.473 437.635 323.86 437.635 344.25 431.996 362.077 420.731L377.831 436.485 377.831 486.141ZM154.619 222.606 154.619 268.945 137.905 268.945 137.905 222.606ZM384.365 421.804 374.312 411.751C376.623 409.795 378.874 407.734 381.052 405.555 383.23 403.376 385.292 401.126 387.248 398.815L397.301 408.868ZM468.716 493.22C463.686 498.252 455.497 498.254 450.465 493.22L393.26 436.015C392.738 435.494 392.738 434.645 393.26 434.123L409.619 417.764C409.88 417.502 410.223 417.372 410.564 417.372 410.907 417.372 411.25 417.502 411.51 417.764L468.715 474.969C473.749 480 473.749 488.188 468.716 493.22Z"/><path d="M303.474 246.51C258.553 246.51 222.007 283.056 222.007 327.978 222.007 372.899 258.553 409.445 303.474 409.445 348.395 409.445 384.941 372.899 384.941 327.978 384.941 283.056 348.395 246.51 303.474 246.51ZM303.474 394.444C266.824 394.444 237.007 364.628 237.007 327.977 237.007 291.326 266.824 261.509 303.474 261.509 340.124 261.509 369.941 291.326 369.941 327.977 369.941 364.628 340.125 394.444 303.474 394.444Z"/></g></g></g></g></svg>