<svg width="512" height="512" viewBox="0 0 512 512" xmlns="http://www.w3.org/2000/svg" xmlns:xlink="http://www.w3.org/1999/xlink" id="Capa_1" overflow="hidden"><g><g><g><path d="M435.411 342.828C431.268 342.828 427.911 339.471 427.911 335.328L427.911 206.869C427.911 202.726 431.268 199.369 435.411 199.369 439.554 199.369 442.911 202.726 442.911 206.869L442.911 335.328C442.911 339.471 439.554 342.828 435.411 342.828Z" fill="#5F6C75"/></g><g><path d="M256 342.828C251.857 342.828 248.5 339.471 248.5 335.328L248.5 207.514C248.5 203.371 251.857 200.014 256 200.014 260.143 200.014 263.5 203.371 263.5 207.514L263.5 335.328C263.5 339.471 260.143 342.828 256 342.828Z" fill="#5F6C75"/></g><g><path d="M76.589 342.828C72.446 342.828 69.089 339.471 69.089 335.328L69.089 206.514C69.089 202.371 72.446 199.014 76.589 199.014 80.732 199.014 84.089 202.371 84.089 206.514L84.089 335.328C84.089 339.471 80.731 342.828 76.589 342.828Z" fill="#5F6C75"/></g><circle cx="76.589" cy="271.514" r="18" fill="#BF4A55"/><circle cx="435.411" cy="271.514" r="18" fill="#AEF2AB"/><path d="M504.5 98.014 504.5 175.514C504.5 192.084 491.07 205.514 474.5 205.514L37.5 205.514C20.93 205.514 7.5 192.084 7.5 175.514L7.5 98.014 263.851 88.014Z" fill="#F9F8F8"/><path d="M7.5 98.014 504.5 98.014 504.5 118.014 7.5 118.014Z" fill="#EDE8E5"/><path d="M57.5 205.514 37.5 205.514C20.93 205.514 7.5 192.084 7.5 175.514L7.5 97.014 27.5 97.014 27.5 175.514C27.5 192.084 40.93 205.514 57.5 205.514Z" fill="#EDE8E5"/><path d="M504.5 38.514 504.5 98.014 7.5 98.014 7.5 38.514C7.5 21.944 20.93 8.514 37.5 8.514L474.5 8.514C491.07 8.514 504.5 21.944 504.5 38.514Z" fill="#5F6C75"/><g fill="#4E5A61"><path d="M235.258 80.514C227.003 80.514 220.311 73.798 220.311 65.514 220.311 57.23 227.003 50.514 235.258 50.514L443.573 50.514C451.828 50.514 458.52 57.23 458.52 65.514 458.52 73.798 451.828 80.514 443.573 80.514Z"/><ellipse cx="168.369" cy="65.514" rx="14.947" ry="15"/><path d="M178.861 76.198 191.735 63.329 178.596 64.508Z"/><path d="M158.092 54.622 170.654 42.105 167.961 52.514Z"/><ellipse cx="105.534" cy="65.514" rx="14.947" ry="15"/><path d="M116.053 76.171 128.435 63.672 115.761 64.508Z"/><path d="M95.257 54.622 107.628 42.163 105.126 52.514Z"/><ellipse cx="40.447" cy="65.514" rx="14.947" ry="15"/><path d="M51.269 75.86 63.99 62.674 50.851 64.054Z"/><path d="M30.17 54.622 41.792 42.584 40.039 52.514Z"/></g><ellipse cx="181.349" cy="52.514" rx="14.947" ry="15" fill="#AEF2AB"/><path d="M225.014 54.591 237.985 41.599 234.96 55.875Z" fill="#4E5A61"/><path d="M454.33 75.929 467.479 62.75 457.294 66.131Z" fill="#4E5A61"/><ellipse cx="118.446" cy="52.514" rx="14.947" ry="15" fill="#F0C585"/><ellipse cx="52.995" cy="52.514" rx="14.947" ry="15" fill="#BF4A55"/><path d="M248.237 67.514C239.982 67.514 233.29 60.798 233.29 52.514 233.29 44.23 239.982 37.514 248.237 37.514L456.552 37.514C464.807 37.514 471.499 44.23 471.499 52.514 471.499 60.798 464.807 67.514 456.552 67.514Z" fill="#F9F8F8"/><path d="M145.677 379.718 145.677 489.383C145.677 497.724 138.706 504.486 130.108 504.486L23.069 504.486C14.47 504.486 7.5 497.724 7.5 489.383L7.5 350.432C7.5 342.091 14.471 335.329 23.069 335.329L99.704 335.329C102.805 335.329 105.779 336.526 107.97 338.655L142.266 371.717C144.451 373.841 145.677 376.718 145.677 379.718Z" fill="#BF4A55"/><path d="M80.981 411.293 41.323 411.293C37.18 411.293 33.823 407.936 33.823 403.793 33.823 399.65 37.18 396.293 41.323 396.293L80.981 396.293C85.124 396.293 88.481 399.65 88.481 403.793 88.481 407.936 85.124 411.293 80.981 411.293Z" fill="#5F6C75"/><path d="M112.495 443.947 40.683 443.947C36.54 443.947 33.183 440.59 33.183 436.447 33.183 432.304 36.54 428.947 40.683 428.947L112.496 428.947C116.639 428.947 119.996 432.304 119.996 436.447 119.996 440.59 116.638 443.947 112.495 443.947Z" fill="#5F6C75"/><path d="M325.089 379.718 325.089 489.383C325.089 497.724 318.118 504.486 309.52 504.486L202.481 504.486C193.882 504.486 186.912 497.724 186.912 489.383L186.912 350.432C186.912 342.091 193.883 335.329 202.481 335.329L279.116 335.329C282.217 335.329 285.191 336.526 287.382 338.655L321.678 371.717C323.862 373.841 325.089 376.718 325.089 379.718Z" fill="#F7F06D"/><path d="M260.393 411.293 220.735 411.293C216.592 411.293 213.235 407.936 213.235 403.793 213.235 399.65 216.592 396.293 220.735 396.293L260.393 396.293C264.536 396.293 267.893 399.65 267.893 403.793 267.893 407.936 264.535 411.293 260.393 411.293Z" fill="#5F6C75"/><path d="M291.906 443.947 220.093 443.947C215.95 443.947 212.593 440.59 212.593 436.447 212.593 432.304 215.95 428.947 220.093 428.947L291.906 428.947C296.049 428.947 299.406 432.304 299.406 436.447 299.406 440.59 296.049 443.947 291.906 443.947Z" fill="#5F6C75"/><path d="M504.5 379.718 504.5 489.383C504.5 497.724 497.529 504.486 488.931 504.486L381.892 504.486C373.293 504.486 366.323 497.724 366.323 489.383L366.323 350.432C366.323 342.091 373.294 335.329 381.892 335.329L458.527 335.329C461.628 335.329 464.602 336.526 466.793 338.655L501.089 371.717C503.273 373.841 504.5 376.718 504.5 379.718Z" fill="#AEF2AB"/><path d="M439.804 411.293 400.147 411.293C396.004 411.293 392.647 407.936 392.647 403.793 392.647 399.65 396.004 396.293 400.147 396.293L439.804 396.293C443.947 396.293 447.304 399.65 447.304 403.793 447.304 407.936 443.946 411.293 439.804 411.293Z" fill="#5F6C75"/><path d="M471.317 443.947 399.504 443.947C395.361 443.947 392.004 440.59 392.004 436.447 392.004 432.304 395.361 428.947 399.504 428.947L471.317 428.947C475.46 428.947 478.817 432.304 478.817 436.447 478.817 440.59 475.46 443.947 471.317 443.947Z" fill="#5F6C75"/></g><g><path d="M52.913 29.514C40.522 29.514 30.441 39.608 30.441 52.014 30.441 64.42 40.522 74.514 52.913 74.514 65.304 74.514 75.384 64.42 75.384 52.014 75.384 39.608 65.304 29.514 52.913 29.514ZM52.913 59.514C48.793 59.514 45.441 56.15 45.441 52.014 45.441 47.878 48.793 44.514 52.913 44.514 57.032 44.514 60.384 47.878 60.384 52.014 60.384 56.15 57.032 59.514 52.913 59.514Z"/><path d="M117.788 29.514C105.397 29.514 95.316 39.608 95.316 52.014 95.316 64.42 105.397 74.514 117.788 74.514 130.179 74.514 140.259 64.42 140.259 52.014 140.259 39.608 130.179 29.514 117.788 29.514ZM117.788 59.514C113.668 59.514 110.316 56.15 110.316 52.014 110.316 47.878 113.668 44.514 117.788 44.514 121.907 44.514 125.259 47.878 125.259 52.014 125.259 56.15 121.907 59.514 117.788 59.514Z"/><path d="M180.792 29.514C168.401 29.514 158.32 39.608 158.32 52.014 158.32 64.42 168.401 74.514 180.792 74.514 193.183 74.514 203.263 64.42 203.263 52.014 203.263 39.608 193.183 29.514 180.792 29.514ZM180.792 59.514C176.672 59.514 173.32 56.15 173.32 52.014 173.32 47.878 176.672 44.514 180.792 44.514 184.911 44.514 188.263 47.878 188.263 52.014 188.263 56.15 184.911 59.514 180.792 59.514Z"/><path d="M457.385 29.514 247.788 29.514C235.397 29.514 225.316 39.608 225.316 52.014 225.316 64.42 235.397 74.514 247.788 74.514L457.385 74.514C469.776 74.514 479.857 64.42 479.857 52.014 479.857 39.608 469.775 29.514 457.385 29.514ZM457.385 59.514 247.788 59.514C243.668 59.514 240.316 56.15 240.316 52.014 240.316 47.878 243.668 44.514 247.788 44.514L457.385 44.514C461.505 44.514 464.857 47.878 464.857 52.014 464.857 56.15 461.505 59.514 457.385 59.514Z"/><path d="M41.323 411.293 80.981 411.293C85.124 411.293 88.481 407.936 88.481 403.793 88.481 399.65 85.124 396.293 80.981 396.293L41.323 396.293C37.18 396.293 33.823 399.65 33.823 403.793 33.823 407.936 37.181 411.293 41.323 411.293Z"/><path d="M40.683 443.947 112.496 443.947C116.639 443.947 119.996 440.59 119.996 436.447 119.996 432.304 116.639 428.947 112.496 428.947L40.683 428.947C36.54 428.947 33.183 432.304 33.183 436.447 33.183 440.59 36.54 443.947 40.683 443.947Z"/><path d="M220.734 411.293 260.392 411.293C264.535 411.293 267.892 407.936 267.892 403.793 267.892 399.65 264.535 396.293 260.392 396.293L220.734 396.293C216.591 396.293 213.234 399.65 213.234 403.793 213.234 407.936 216.592 411.293 220.734 411.293Z"/><path d="M220.094 443.947 291.907 443.947C296.05 443.947 299.407 440.59 299.407 436.447 299.407 432.304 296.05 428.947 291.907 428.947L220.094 428.947C215.951 428.947 212.594 432.304 212.594 436.447 212.594 440.59 215.951 443.947 220.094 443.947Z"/><path d="M400.146 411.293 439.803 411.293C443.946 411.293 447.303 407.936 447.303 403.793 447.303 399.65 443.946 396.293 439.803 396.293L400.146 396.293C396.003 396.293 392.646 399.65 392.646 403.793 392.646 407.936 396.004 411.293 400.146 411.293Z"/><path d="M399.505 443.947 471.318 443.947C475.461 443.947 478.818 440.59 478.818 436.447 478.818 432.304 475.461 428.947 471.318 428.947L399.505 428.947C395.362 428.947 392.005 432.304 392.005 436.447 392.005 440.59 395.362 443.947 399.505 443.947Z"/><path d="M474.5 214.014C495.178 214.014 512 197.192 512 176.514L512 37.514C512 16.836 495.178 0.014 474.5 0.014L37.5 0.014C16.822 0.014 0 16.836 0 37.514L0 176.514C0 197.192 16.822 214.014 37.5 214.014L69.089 214.014 69.089 247.141C58.677 250.351 51.089 260.063 51.089 271.514 51.089 282.965 58.677 292.676 69.089 295.887L69.089 327.829 23.069 327.829C10.349 327.828-3.55271e-15 337.968-3.55271e-15 350.432L-3.55271e-15 361.014C-3.55271e-15 365.157 3.357 368.514 7.5 368.514 11.643 368.514 15 365.157 15 361.014L15 350.432C15 346.24 18.62 342.828 23.069 342.828L99.704 342.828C100.848 342.828 101.955 343.267 102.765 344.054L137.037 377.093C137.772 377.809 138.178 378.74 138.178 379.718L138.178 489.383C138.178 493.575 134.558 496.987 130.109 496.987L23.069 496.987C18.62 496.987 15 493.576 15 489.383L15 395.142C15 390.999 11.643 387.642 7.5 387.642 3.357 387.642 1.77636e-15 390.999 1.77636e-15 395.142L1.77636e-15 489.383C1.77636e-15 501.847 10.349 511.987 23.069 511.987L130.108 511.987C142.829 511.987 153.177 501.847 153.177 489.383L153.177 379.718C153.177 374.729 151.106 369.853 147.471 366.318L113.197 333.277C109.582 329.763 104.79 327.829 99.704 327.829L84.089 327.829 84.089 295.887C94.501 292.677 102.089 282.965 102.089 271.514 102.089 260.063 94.501 250.352 84.089 247.141L84.089 214.014 126.589 214.014C130.732 214.014 134.089 210.657 134.089 206.514 134.089 202.371 130.732 199.014 126.589 199.014L37.5 199.014C25.094 199.014 15 188.92 15 176.514L15 104.514 497 104.514 497 176.514C497 188.92 486.906 199.014 474.5 199.014L161.589 199.014C157.446 199.014 154.089 202.371 154.089 206.514 154.089 210.657 157.446 214.014 161.589 214.014L248.5 214.014 248.5 327.828 202.48 327.828C189.759 327.828 179.411 337.968 179.411 350.432L179.411 489.383C179.411 501.847 189.76 511.987 202.48 511.987L243 511.987C247.143 511.987 250.5 508.63 250.5 504.487 250.5 500.344 247.143 496.987 243 496.987L202.48 496.987C198.031 496.987 194.411 493.576 194.411 489.383L194.411 350.432C194.411 346.24 198.031 342.828 202.48 342.828L279.116 342.828C280.259 342.828 281.367 343.267 282.177 344.054L316.449 377.094C317.184 377.809 317.589 378.74 317.589 379.718L317.589 489.383C317.589 493.575 313.969 496.987 309.52 496.987L278 496.987C273.857 496.987 270.5 500.344 270.5 504.487 270.5 508.63 273.857 511.987 278 511.987L309.52 511.987C322.241 511.987 332.589 501.847 332.589 489.383L332.589 379.718C332.589 374.728 330.518 369.851 326.883 366.318L292.608 333.275C288.993 329.763 284.202 327.829 279.117 327.829L263.5 327.829 263.5 214.014 427.911 214.014 427.911 247.141C417.499 250.351 409.911 260.063 409.911 271.514 409.911 282.965 417.499 292.676 427.911 295.887L427.911 327.829 381.891 327.829C369.17 327.829 358.822 337.969 358.822 350.433L358.822 489.384C358.822 501.848 369.171 511.988 381.891 511.988L488.93 511.988C501.651 511.988 511.999 501.848 511.999 489.384L511.999 468.015C511.999 463.872 508.642 460.515 504.499 460.515 500.356 460.515 496.999 463.872 496.999 468.015L496.999 489.384C496.999 493.576 493.379 496.988 488.93 496.988L381.892 496.988C377.443 496.988 373.823 493.577 373.823 489.384L373.823 350.432C373.823 346.24 377.443 342.828 381.892 342.828L458.528 342.828C459.672 342.828 460.779 343.267 461.589 344.054L495.861 377.094C496.596 377.809 497.001 378.74 497.001 379.718L497.001 433.014C497.001 437.157 500.358 440.514 504.501 440.514 508.644 440.514 512.001 437.157 512.001 433.014L512.001 379.718C512.001 374.728 509.93 369.851 506.295 366.318L472.022 333.277C468.407 329.763 463.615 327.829 458.529 327.829L442.913 327.829 442.913 295.887C453.325 292.677 460.913 282.965 460.913 271.514 460.913 260.063 453.325 250.352 442.913 247.141L442.913 214.014ZM76.589 282.014C70.799 282.014 66.089 277.304 66.089 271.514 66.089 265.724 70.799 261.014 76.589 261.014 82.379 261.014 87.089 265.724 87.089 271.514 87.089 277.304 82.379 282.014 76.589 282.014ZM15 89.514 15 37.514C15 25.108 25.094 15.014 37.5 15.014L474.5 15.014C486.906 15.014 497 25.108 497 37.514L497 89.514ZM435.411 282.014C429.621 282.014 424.911 277.304 424.911 271.514 424.911 265.724 429.621 261.014 435.411 261.014 441.201 261.014 445.911 265.724 445.911 271.514 445.911 277.304 441.201 282.014 435.411 282.014Z"/></g></g></svg>