<?xml version="1.0" encoding="utf-8"?>
<!-- Generator: Adobe Illustrator 19.2.0, SVG Export Plug-In . SVG Version: 6.00 Build 0)  -->
<svg xmlns="http://www.w3.org/2000/svg" version="1.1" id="massstorage" x="0px" y="0px" viewBox="0 0 228 231.8242"
	 enable-background="new 0 0 228 231.8242" xml:space="preserve" width="512" height="512">
<g>
	<path fill="#5CB0FF" d="M102.2551,99.4014l-2.854,2.8535C97.3015,104.9629,96,108.3164,96,112c0,8.8223,7.1777,16,16,16   s16-7.1777,16-16s-7.1777-16-16-16C108.3167,96,104.9624,97.3018,102.2551,99.4014z"/>
	<circle fill="#5CB0FF" cx="112" cy="16" r="8"/>
	<circle fill="#D0E8FF" cx="48" cy="48" r="4"/>
	<circle fill="#D0E8FF" cx="180" cy="48" r="4"/>
	<circle fill="#5CB0FF" cx="16" cy="112" r="8"/>
	<circle fill="#5CB0FF" cx="212" cy="112" r="8"/>
	<circle fill="#D0E8FF" cx="180" cy="180" r="4"/>
	<circle fill="#D0E8FF" cx="48" cy="180" r="4"/>
	<circle fill="#5CB0FF" cx="112" cy="212" r="8"/>
	<path fill="#1C71DA" d="M212,96c-7.4331,0-13.6428,5.1191-15.4319,12h-60.9294c-0.447-2.6484-1.3032-5.1582-2.5442-7.4385   l41.7642-41.7637C176.4231,59.5459,178.1531,60,180,60c6.6172,0,12-5.3828,12-12s-5.3828-12-12-12s-12,5.3828-12,12   c0,1.8467,0.4539,3.5771,1.2024,5.1416L128.0952,94.248c-3.323-3.0156-7.4827-5.1074-12.0952-5.8867V31.4316   c6.8811-1.7891,12-7.998,12-15.4316c0-8.8223-7.1777-16-16-16S96,7.1777,96,16c0,7.4336,5.1189,13.6426,12,15.4316v56.9297   c-3.6375,0.6143-6.9956,2.0391-9.8843,4.0977L58.7976,53.1416C59.5461,51.5771,60,49.8467,60,48c0-6.6172-5.3828-12-12-12   s-12,5.3828-12,12s5.3828,12,12,12c1.8469,0,3.5769-0.4541,5.1414-1.2021l39.3181,39.3174   c-2.0586,2.8887-3.4841,6.2471-4.0981,9.8848H31.4319C29.6428,101.1191,23.4331,96,16,96c-8.8223,0-16,7.1777-16,16   s7.1777,16,16,16c7.4331,0,13.6428-5.1191,15.4319-12h56.9294c0.7788,4.6123,2.8713,8.7725,5.8872,12.0957l-41.1072,41.1064   C51.5769,168.4541,49.8469,168,48,168c-6.6172,0-12,5.3828-12,12s5.3828,12,12,12s12-5.3828,12-12   c0-1.8467-0.4539-3.5771-1.2024-5.1416l41.7642-41.7637c2.2798,1.2412,4.7903,2.0967,7.4382,2.5439v60.9297   c-6.8811,1.7891-12,7.998-12,15.4316c0,8.8223,7.1777,16,16,16s16-7.1777,16-16c0-7.4336-5.1189-13.6426-12-15.4316v-60.9297   c3.6375-0.6143,6.9956-2.0391,9.8843-4.0977l43.3181,43.3174C168.4539,176.4229,168,178.1533,168,180c0,6.6172,5.3828,12,12,12   s12-5.3828,12-12s-5.3828-12-12-12c-1.8469,0-3.5769,0.4541-5.1414,1.2021l-43.3181-43.3174   c2.0586-2.8887,3.4841-6.2471,4.0981-9.8848h60.9294c1.7891,6.8809,7.9988,12,15.4319,12c8.8223,0,16-7.1777,16-16   S220.8223,96,212,96z M180,44c2.2051,0,4,1.7949,4,4s-1.7949,4-4,4s-4-1.7949-4-4S177.7949,44,180,44z M128,112   c0,8.8223-7.1777,16-16,16s-16-7.1777-16-16c0-3.6836,1.3015-7.0371,3.4011-9.7451l2.854-2.8535   C104.9624,97.3018,108.3167,96,112,96C120.8223,96,128,103.1777,128,112z M104,16c0-4.4121,3.5879-8,8-8s8,3.5879,8,8   s-3.5879,8-8,8S104,20.4121,104,16z M44,48c0-2.2051,1.7949-4,4-4s4,1.7949,4,4s-1.7949,4-4,4S44,50.2051,44,48z M16,120   c-4.4121,0-8-3.5879-8-8s3.5879-8,8-8s8,3.5879,8,8S20.4121,120,16,120z M48,184c-2.2051,0-4-1.7949-4-4s1.7949-4,4-4s4,1.7949,4,4   S50.2051,184,48,184z M120,212c0,4.4121-3.5879,8-8,8s-8-3.5879-8-8s3.5879-8,8-8S120,207.5879,120,212z M184,180   c0,2.2051-1.7949,4-4,4s-4-1.7949-4-4s1.7949-4,4-4S184,177.7949,184,180z M212,120c-4.4121,0-8-3.5879-8-8s3.5879-8,8-8   s8,3.5879,8,8S216.4121,120,212,120z"/>
</g>
<path fill="#FF5D5D" d="M24.2524,227.8242c-1.0239,0-2.0474-0.3904-2.8286-1.1716L7.2817,212.511  c-1.562-1.562-1.562-4.0947,0-5.6567c1.5625-1.562,4.0947-1.5625,5.6572,0l14.1421,14.1416c1.562,1.562,1.562,4.0947,0,5.6567  C26.2998,227.4336,25.2764,227.8242,24.2524,227.8242z"/>
<path fill="#FF5D5D" d="M10.1104,227.8242c-1.0239,0-2.0474-0.3904-2.8286-1.1716c-1.562-1.562-1.562-4.0947,0-5.6567  l14.1421-14.1416c1.5635-1.5623,4.0957-1.5618,5.6572,0c1.562,1.562,1.562,4.0947,0,5.6567L12.939,226.6526  C12.1577,227.4336,11.1338,227.8242,10.1104,227.8242z"/>
<path fill="#00D40B" d="M202.2524,231.8242c-7.7197,0-14-6.2803-14-14s6.2803-14,14-14s14,6.2803,14,14  S209.9722,231.8242,202.2524,231.8242z M202.2524,211.8242c-3.3086,0-6,2.6917-6,6s2.6914,6,6,6s6-2.6917,6-6  S205.561,211.8242,202.2524,211.8242z"/>
<path fill="#FFC504" d="M153.5298,36.54c-1.0239,0-2.0474-0.3904-2.8286-1.1716l-11.3135-11.3135  c-1.562-1.562-1.562-4.0947,0-5.6567l11.3135-11.3135c1.5625-1.562,4.0952-1.5625,5.6567,0l11.314,11.3135  c0.7505,0.75,1.1719,1.7676,1.1719,2.8284s-0.4214,2.0784-1.1719,2.8284l-11.314,11.3135  C155.5771,36.1494,154.5532,36.54,153.5298,36.54z M147.873,21.2266l5.6567,5.6567l5.6572-5.6567l-5.6572-5.6567L147.873,21.2266z"/>
</svg>
