<svg width="512" height="512" viewBox="0 0 512 512" xmlns="http://www.w3.org/2000/svg" xmlns:xlink="http://www.w3.org/1999/xlink" id="Capa_1" overflow="hidden"><g><g><g><g><g><path d="M376.471 504.5 59.874 504.5C49.734 504.5 41.515 496.28 41.515 486.141L41.515 66.75C41.515 56.61 49.735 48.391 59.874 48.391L376.471 48.391C386.611 48.391 394.83 56.611 394.83 66.75L394.83 486.141C394.831 496.28 386.611 504.5 376.471 504.5Z" fill="#FFC250"/><path d="M376.471 48.39 315.026 48.39C325.166 48.39 333.385 56.61 333.385 66.749L333.385 486.14C333.385 496.28 325.165 504.499 315.026 504.499L376.471 504.499C386.611 504.499 394.83 496.279 394.83 486.14L394.83 66.75C394.831 56.61 386.611 48.39 376.471 48.39Z" fill="#EAB14D"/><path d="M71.522 467.93 71.522 84.96C71.522 81.336 74.46 78.398 78.084 78.398L358.26 78.398C361.884 78.398 364.822 81.336 364.822 84.96L364.822 467.93C364.822 471.554 361.884 474.492 358.26 474.492L78.085 474.492C74.46 474.492 71.522 471.554 71.522 467.93Z" fill="#F5F5F5"/><path d="M358.261 78.398 296.816 78.398C300.44 78.398 303.378 81.336 303.378 84.96L303.378 467.93C303.378 471.554 300.44 474.492 296.816 474.492L358.261 474.492C361.885 474.492 364.823 471.554 364.823 467.93L364.823 84.96C364.823 81.336 361.885 78.398 358.261 78.398Z" fill="#EAEAEA"/><path d="M257.175 30.348 257.175 20.683C257.175 13.402 251.273 7.5 243.992 7.5L192.354 7.5C185.073 7.5 179.171 13.402 179.171 20.683L179.171 30.348C179.171 33.325 176.757 35.739 173.78 35.739L152.289 35.739C145.14 35.739 139.344 41.535 139.344 48.684L139.344 78.397 297.004 78.397 297.004 48.685C297.004 41.536 291.208 35.74 284.059 35.74L262.568 35.74C259.589 35.74 257.175 33.326 257.175 30.348Z" fill="#C2D0DA"/></g><g><g fill="#66B49D"><path d="M109.694 184.936 109.694 127.142C109.694 120.739 114.885 115.548 121.288 115.548L179.082 115.548C185.485 115.548 190.676 120.739 190.676 127.142L190.676 184.936C190.676 191.339 185.485 196.53 179.082 196.53L121.288 196.53C114.884 196.53 109.694 191.34 109.694 184.936Z"/><path d="M109.694 305.343 109.694 247.549C109.694 241.146 114.885 235.955 121.288 235.955L179.082 235.955C185.485 235.955 190.676 241.146 190.676 247.549L190.676 305.343C190.676 311.746 185.485 316.937 179.082 316.937L121.288 316.937C114.884 316.937 109.694 311.746 109.694 305.343Z"/><path d="M109.694 425.748 109.694 367.954C109.694 361.551 114.885 356.36 121.288 356.36L179.082 356.36C185.485 356.36 190.676 361.551 190.676 367.954L190.676 425.748C190.676 432.151 185.485 437.342 179.082 437.342L121.288 437.342C114.884 437.342 109.694 432.151 109.694 425.748Z"/></g></g></g><g><g><path d="M441.317 203.308 433.953 193.607 406.399 176.159 395.808 174.49 254.721 397.435C251.317 402.811 248.819 408.709 247.328 414.895 264.494 415.107 280.075 424.974 287.606 440.401 292.56 436.409 296.825 431.629 300.229 426.253Z" fill="#FC8086"/><path d="M461.235 134.654 449.329 127.115C440.048 121.238 427.759 123.999 421.885 133.282L410.967 150.535 414.45 157.556 447.58 178.536 456.476 179.354 467.4 162.09C473.272 152.811 470.513 140.529 461.235 134.654Z" fill="#8C9BA6"/></g><path d="M411.967 149.988 440.316 149.988 440.316 203.854 411.967 203.854Z" fill="#C9E2E7" transform="matrix(0.535 -0.845 0.845 0.535 48.683 442.294)"/><path d="M287.607 440.401 247.434 472.774C241.767 477.341 233.534 472.127 235.239 465.052L247.328 414.895C264.495 415.107 280.076 424.974 287.607 440.401Z" fill="#7C8B96"/></g></g></g><g><g><g><path d="M170.652 136.8C167.317 134.343 162.619 135.057 160.164 138.394L145.319 158.563 140.243 151.591C137.805 148.243 133.113 147.503 129.763 149.942 126.414 152.381 125.675 157.074 128.114 160.423L136.871 172.449C138.821 175.126 141.962 176.729 145.273 176.738L145.299 176.738C148.601 176.738 151.738 175.153 153.696 172.493L172.248 147.289C174.702 143.952 173.988 139.256 170.652 136.8Z"/><path d="M170.652 259.827C167.317 257.37 162.619 258.084 160.164 261.421L145.319 281.589 140.243 274.618C137.804 271.269 133.114 270.529 129.762 272.968 126.413 275.407 125.674 280.099 128.113 283.448L136.87 295.476C138.819 298.152 141.96 299.756 145.271 299.764 145.28 299.765 145.289 299.765 145.297 299.765 148.599 299.765 151.737 298.179 153.695 295.519L172.247 270.316C174.702 266.979 173.988 262.282 170.652 259.827Z"/><path d="M170.652 377.611C167.317 375.154 162.619 375.868 160.164 379.205L145.319 399.373 140.243 392.402C137.804 389.054 133.114 388.313 129.762 390.752 126.413 393.191 125.674 397.883 128.113 401.232L136.87 413.26C138.819 415.936 141.96 417.54 145.271 417.548 145.28 417.549 145.289 417.549 145.297 417.549 148.599 417.549 151.737 415.963 153.695 413.303L172.247 388.1C174.702 384.764 173.988 380.067 170.652 377.611Z"/><path d="M228.027 147.871 320.743 147.871C324.886 147.871 328.245 144.513 328.245 140.369 328.245 136.225 324.886 132.867 320.743 132.867L228.027 132.867C223.884 132.867 220.525 136.225 220.525 140.369 220.525 144.513 223.884 147.871 228.027 147.871Z"/><path d="M228.027 179.212 274.385 179.212C278.528 179.212 281.887 175.854 281.887 171.71 281.887 167.566 278.528 164.208 274.385 164.208L228.027 164.208C223.884 164.208 220.525 167.566 220.525 171.71 220.525 175.854 223.884 179.212 228.027 179.212Z"/><path d="M228.027 268.276 290.235 268.276C294.378 268.276 297.737 264.918 297.737 260.774 297.737 256.63 294.378 253.272 290.235 253.272L228.027 253.272C223.884 253.272 220.525 256.63 220.525 260.774 220.525 264.918 223.884 268.276 228.027 268.276Z"/><path d="M274.385 299.618C278.528 299.618 281.887 296.26 281.887 292.116 281.887 287.972 278.528 284.614 274.385 284.614L228.027 284.614C223.884 284.614 220.525 287.972 220.525 292.116 220.525 296.26 223.884 299.618 228.027 299.618Z"/><path d="M179.087 108.047 121.293 108.047C110.764 108.047 102.197 116.614 102.197 127.143L102.197 184.937C102.197 195.466 110.764 204.033 121.293 204.033L179.087 204.033C189.616 204.033 198.183 195.466 198.183 184.937L198.183 127.143C198.183 116.614 189.617 108.047 179.087 108.047ZM183.18 184.937C183.18 187.193 181.344 189.029 179.088 189.029L121.294 189.029C119.038 189.029 117.202 187.194 117.202 184.937L117.202 127.143C117.202 124.887 119.038 123.051 121.294 123.051L179.088 123.051C181.344 123.051 183.18 124.886 183.18 127.143Z"/><path d="M179.087 228.453 121.293 228.453C110.764 228.453 102.197 237.02 102.197 247.549L102.197 305.343C102.197 315.872 110.764 324.439 121.293 324.439L179.087 324.439C189.616 324.439 198.183 315.872 198.183 305.343L198.183 247.549C198.183 237.019 189.617 228.453 179.087 228.453ZM183.18 305.343C183.18 307.599 181.344 309.435 179.088 309.435L121.294 309.435C119.038 309.435 117.202 307.6 117.202 305.343L117.202 247.549C117.202 245.293 119.038 243.457 121.294 243.457L179.088 243.457C181.344 243.457 183.18 245.292 183.18 247.549Z"/><path d="M179.087 348.857 121.293 348.857C110.764 348.857 102.197 357.424 102.197 367.953L102.197 425.747C102.197 436.276 110.764 444.843 121.293 444.843L179.087 444.843C189.616 444.843 198.183 436.276 198.183 425.747L198.183 367.953C198.183 357.424 189.617 348.857 179.087 348.857ZM183.18 425.747C183.18 428.003 181.344 429.839 179.088 429.839L121.294 429.839C119.038 429.839 117.202 428.004 117.202 425.747L117.202 367.953C117.202 365.697 119.038 363.861 121.294 363.861L179.088 363.861C181.344 363.861 183.18 365.696 183.18 367.953Z"/><path d="M465.253 128.318 453.347 120.778C447.165 116.862 439.827 115.591 432.689 117.194 425.55 118.799 419.463 123.088 415.55 129.271L404.632 146.523 389.472 170.478 372.328 197.569 372.328 84.961C372.328 77.206 366.019 70.897 358.264 70.897L304.508 70.897 304.508 55.894 376.474 55.894C382.461 55.894 387.332 60.764 387.332 66.751L387.332 131.719C387.332 135.863 390.691 139.221 394.834 139.221 398.977 139.221 402.336 135.863 402.336 131.719L402.336 66.751C402.336 52.492 390.735 40.89 376.475 40.89L302.957 40.89C299.885 33.473 292.576 28.239 284.062 28.239L264.682 28.239 264.682 20.684C264.682 9.28 255.403 1.42109e-14 243.997 1.42109e-14L192.359 1.42109e-14C180.953 1.42109e-14 171.674 9.28 171.674 20.685L171.674 28.24 152.294 28.24C143.78 28.24 136.471 33.474 133.4 40.891L59.881 40.891C45.621 40.891 34.02 52.492 34.02 66.752L34.02 486.14C34.02 500.399 45.621 512.001 59.881 512.001L376.476 512.001C390.736 512.001 402.337 500.399 402.337 486.14L402.337 317.932C402.337 313.788 398.978 310.43 394.835 310.43 390.692 310.43 387.333 313.788 387.333 317.932L387.333 486.139C387.333 492.126 382.462 496.996 376.475 496.996L59.881 496.996C53.894 496.996 49.023 492.126 49.023 486.139L49.023 66.751C49.023 60.764 53.894 55.894 59.881 55.894L131.847 55.894 131.847 70.898 78.091 70.898C70.336 70.898 64.027 77.207 64.027 84.962L64.027 467.929C64.027 475.684 70.336 481.993 78.091 481.993L358.265 481.993C366.02 481.993 372.329 475.684 372.329 467.929L372.329 326.357 447.66 207.32C447.661 207.318 447.663 207.315 447.664 207.313L462.819 183.366 473.744 166.103C481.817 153.344 478.008 136.394 465.253 128.318ZM435.979 131.833C439.208 131.105 442.525 131.682 445.32 133.453L457.226 140.994C462.994 144.646 464.716 152.31 461.065 158.079L454.153 169.001 421.321 148.21 428.229 137.295C429.998 134.498 432.75 132.558 435.979 131.833ZM293.897 422.239C292.477 424.481 290.887 426.595 289.146 428.574 286.791 425.416 284.115 422.557 281.172 420.037L420.959 199.293 430.972 205.634ZM242.67 466.98C242.618 466.962 242.553 466.927 242.528 466.927 242.523 466.927 242.52 466.928 242.518 466.932 258.768 399.444 250.857 432.299 253.116 422.917 262.862 424.546 271.923 430.025 277.885 438.602 238.163 470.61 243.234 466.467 242.67 466.98ZM413.298 160.888 446.13 181.679 438.994 192.955 406.162 172.164ZM146.85 48.854C146.855 48.762 146.861 48.67 146.863 48.577 146.864 48.545 146.86 48.514 146.861 48.482 146.969 45.576 149.361 43.242 152.294 43.242L173.785 43.242C180.894 43.242 186.678 37.458 186.678 30.349L186.678 20.684C186.678 17.551 189.227 15.003 192.36 15.003L243.998 15.003C247.131 15.003 249.68 17.551 249.68 20.684L249.68 30.349C249.68 37.458 255.464 43.242 262.573 43.242L284.064 43.242C286.997 43.242 289.389 45.575 289.497 48.482 289.497 48.514 289.494 48.545 289.495 48.577 289.497 48.668 289.503 48.76 289.508 48.852L289.508 70.897 146.85 70.897ZM79.03 85.901 357.325 85.901 357.325 221.278 278.809 345.35C276.593 348.851 277.635 353.486 281.136 355.701 284.622 357.906 289.262 356.89 291.487 353.373L398.138 184.842 408.282 191.265 268.495 412.01C264.959 410.427 261.231 409.23 257.369 408.452 258.415 406.032 259.645 403.69 261.065 401.446L272.727 383.019C274.943 379.518 273.901 374.884 270.4 372.668 266.898 370.453 262.264 371.495 260.049 374.996L248.388 393.422C244.535 399.507 241.727 406.14 240.04 413.138 240.04 413.14 240.039 413.141 240.039 413.143L227.951 463.294C227.652 464.533 227.513 465.772 227.516 466.99L79.03 466.99ZM357.325 466.989 266.572 466.989 292.319 446.242C297.923 441.726 302.719 436.351 306.573 430.264L357.325 350.066Z"/></g></g></g></g></svg>