<?xml version="1.0" encoding="iso-8859-1"?>
<!-- Generator: Adobe Illustrator 19.0.0, SVG Export Plug-In . SVG Version: 6.00 Build 0)  -->
<svg version="1.1" id="Layer_1" xmlns="http://www.w3.org/2000/svg" x="0px" y="0px"
     viewBox="0 0 512 512" style="enable-background:new 0 0 512 512;" xml:space="preserve">
<circle style="fill:#C1321F;" cx="256" cy="256" r="256"/>
<g>
	<path style="fill:#A82116;" d="M506.306,309.781L398.222,201.697l-4.203,4.937l-59.706-59.706l-17.977,13.969l-18.642,12.355
		l67.381,67.381l-241.986,153.41l117.476,117.476c70.561,4.237,142.539-20.583,196.455-74.499
		C473.245,400.793,496.333,356.409,506.306,309.781z"/>
	<path style="fill:#A82116;" d="M365.137,132.513L365.137,132.513l-3.965,2.925l149.213,149.213
		c1.577-14.084,1.991-28.27,1.234-42.41l-127.16-127.16L365.137,132.513z"/>
</g>
<g>
	<path style="fill:#F4E3C3;" d="M287.03,156.66c0-7.14,5.789-12.929,12.929-12.929s12.929,5.789,12.929,12.929
		c0-7.14,5.789-12.929,12.929-12.929s12.929,5.789,12.929,12.929c0,12.364-25.859,27.152-25.859,27.152S287.03,169.72,287.03,156.66
		z"/>
	<path style="fill:#F4E3C3;" d="M351.677,122.161c0-4.998,4.051-9.051,9.051-9.051c4.998,0,9.051,4.053,9.051,9.051
		c0-4.998,4.051-9.051,9.051-9.051c4.998,0,9.051,4.053,9.051,9.051c0,8.654-18.101,19.006-18.101,19.006
		S351.677,131.303,351.677,122.161z"/>
</g>
<path style="fill:#FFD15D;" d="M227.556,201.697l-28.444-28.444h-85.333v200.259c0,15.076,12.221,27.295,27.295,27.295h229.854
	c15.076,0,27.295-12.221,27.295-27.295V201.697H227.556z"/>
<path style="fill:#F9B54C;" d="M255.426,201.697v199.111h115.502c15.076,0,27.295-12.221,27.295-27.295V201.697H255.426z"/>
<path style="fill:#D83E20;" d="M261.86,313.353c0-15.519,12.581-28.1,28.1-28.1c15.519,0,28.1,12.581,28.1,28.1
	c0-15.519,12.581-28.1,28.1-28.1c15.519,0,28.1,12.581,28.1,28.1c0.003,26.871-56.198,59.011-56.198,59.011
	S261.86,341.737,261.86,313.353z"/>
<g>
</g>
<g>
</g>
<g>
</g>
<g>
</g>
<g>
</g>
<g>
</g>
<g>
</g>
<g>
</g>
<g>
</g>
<g>
</g>
<g>
</g>
<g>
</g>
<g>
</g>
<g>
</g>
<g>
</g>
</svg>
