<?xml version="1.0" encoding="iso-8859-1"?>
<!-- Generator: Adobe Illustrator 19.0.0, SVG Export Plug-In . SVG Version: 6.00 Build 0)  -->
<svg version="1.1" id="Layer_1" xmlns="http://www.w3.org/2000/svg" xmlns:xlink="http://www.w3.org/1999/xlink" x="0px" y="0px"
	 viewBox="0 0 512 512" style="enable-background:new 0 0 512 512;" xml:space="preserve">
<g transform="translate(0 1)">
	<path style="fill:#FFE100;" d="M439.348,147.48c0-15.36-28.16-27.307-42.667-29.867c10.24,2.56,17.067,14.507,17.067,29.867
		v174.933c0,84.48,1.707,82.773-25.6,119.467v34.133c0,12.8,0,23.893-8.533,26.453c12.8-1.707,34.133-12.8,34.133-26.453V441.88
		c27.307-36.693,25.6-34.987,25.6-119.467"/>
	<path style="fill:#FFFFFF;" d="M200.414,289.133V80.067c0-11.947,6.827-22.187,17.067-27.307c-4.267-1.707-8.533-2.56-12.8-2.56
		c-16.213,0-29.867,13.653-29.867,29.867v160.427C189.321,258.413,200.414,276.333,200.414,289.133"/>
	<path style="fill:#FFE100;" d="M388.148,323.267V148.333c0-16.213,11.947-29.867-4.267-29.867s-29.867,12.8-29.867,29.867V54.467
		c0-16.213-13.653-29.867-29.867-29.867c-16.213,0-29.867,12.8-29.867,29.867V37.4c0-16.213-13.653-29.867-29.867-29.867
		c-16.213,0-29.867,13.653-29.867,29.867v5.12c-0.853-0.853-2.56-0.853-4.267-0.853c-16.213,0-29.867,13.653-29.867,29.867V280.6
		c0-23.893-37.547-63.147-59.733-85.333c-18.773-18.773-54.613-14.507-25.6,25.6c20.48,28.16,34.133,87.893,34.133,119.467
		c0,75.947,59.733,102.4,59.733,102.4v34.133c0,14.507,11.093,25.6,25.6,25.6h128c14.507,0,0-11.093,0-25.6v-34.133
		C389.854,406.04,388.148,407.747,388.148,323.267"/>
	<path style="fill:#FFFFFF;" d="M208.948,476.013V441.88c0,0-59.733-26.453-59.733-102.4c0-31.573-13.653-91.307-34.133-119.467
		c-27.307-37.547,2.56-43.52,22.187-29.013c-1.707-1.707-3.413-3.413-5.12-5.12c-18.773-18.773-71.68-5.973-42.667,34.133
		c20.48,28.16,34.133,87.893,34.133,119.467c0,75.947,59.733,102.4,59.733,102.4v34.133c0,14.507,11.093,25.6,25.6,25.6h25.6
		C220.041,501.613,208.948,490.52,208.948,476.013"/>
	<path style="fill:#FFA800;" d="M413.748,147.48c0-15.36-11.093-27.307-25.6-29.867c10.24,2.56,0,14.507,0,29.867v174.933
		c0,84.48,1.707,82.773-25.6,119.467v34.133c0,12.8,11.093,23.04,3.413,25.6c12.8-1.707,22.187-11.947,22.187-25.6V441.88
		c27.307-36.693,25.6-34.987,25.6-119.467"/>
	<path style="fill:#FFFFFF;" d="M302.814,32.28c-5.12,5.12-8.533,12.8-8.533,20.48C294.281,45.08,297.694,38.253,302.814,32.28"/>
	<path d="M362.548,511h-153.6c-18.773,0-34.133-15.36-34.133-34.133v-29.013c-15.36-8.533-59.733-39.253-59.733-107.52
		c0-32.427-14.507-88.747-32.427-114.347c-19.627-27.307-5.12-42.667-0.853-46.933c15.36-12.8,42.667-11.947,56.32,1.707
		c10.24,10.24,20.48,25.6,28.16,41.813V71.533c0-21.333,17.067-38.4,38.4-38.4c7.68,0,15.36,2.56,21.333,6.827V37.4
		c0-10.24,4.267-19.627,11.093-27.307S254.174-1,264.414-1c16.213,0,30.72,10.24,35.84,25.6c6.827-5.12,14.507-8.533,23.893-8.533
		c21.333,0,38.4,17.067,38.4,38.4v62.293c5.973-4.267,13.653-6.827,21.333-6.827c21.333,0,38.4,17.067,38.4,38.4V203.8
		c0,5.12-3.413,8.533-8.533,8.533s-8.533-3.413-8.533-8.533v-55.467c0-11.947-9.387-21.333-21.333-21.333
		c-11.093,0-20.48,8.533-21.333,20.48V255c0,5.12-3.413,8.533-8.533,8.533c-5.12,0-8.533-3.413-8.533-8.533V148.333
		c0-0.853,0-0.853,0-1.707v-92.16c0-11.947-9.387-21.333-21.333-21.333c-11.093,0-20.48,8.533-21.333,20.48v184.32
		c0,5.12-3.413,8.533-8.533,8.533c-5.12,0-8.533-3.413-8.533-8.533V54.467c0-0.853,0-0.853,0-1.707V37.4
		c0-11.947-9.387-21.333-21.333-21.333c-5.973,0-11.093,2.56-15.36,5.973c-3.413,4.267-5.973,9.387-5.973,15.36v34.133l0,0V229.4
		c0,5.12-3.413,8.533-8.533,8.533c-5.12,0-8.533-3.413-8.533-8.533V71.533c0-11.947-9.387-21.333-21.333-21.333
		c-11.947,0-21.333,9.387-21.333,21.333V280.6c0,5.12-3.413,8.533-8.533,8.533l0,0c-5.12,0-8.533-3.413-8.533-8.533
		c0-21.333-18.773-66.56-40.107-87.893c-7.68-7.68-24.747-7.68-33.28-0.853c-7.68,5.973-2.56,16.213,3.413,23.893
		c22.187,30.72,35.84,93.013,35.84,124.587c0,69.973,53.76,94.72,54.613,94.72c3.413,1.707,5.12,4.267,5.12,7.68v34.133
		c0,9.387,7.68,17.067,17.067,17.067h153.6c9.387,0,17.067-7.68,17.067-17.067v-34.133c0-1.707,0.853-3.413,1.707-5.12
		c23.893-32.427,23.893-32.427,23.893-97.28v-68.267c0-5.12,3.413-8.533,8.533-8.533s8.533,3.413,8.533,8.533v68.267
		c0,66.56,0,70.827-25.6,105.813v30.72C396.681,495.64,381.321,511,362.548,511z"/>
	<path d="M208.094,451.267h-25.6c-5.12,0-8.533-3.413-8.533-8.533c0-5.12,3.413-8.533,8.533-8.533h25.6
		c5.12,0,8.533,3.413,8.533,8.533C216.628,447.853,213.214,451.267,208.094,451.267z"/>
	<path d="M387.294,451.267h-16.213c-5.12,0-8.533-3.413-8.533-8.533c0-5.12,3.413-8.533,8.533-8.533h16.213
		c5.12,0,8.533,3.413,8.533,8.533C395.828,447.853,392.414,451.267,387.294,451.267z"/>
	<path d="M200.414,323.267c-18.773,0-34.133-18.773-34.133-42.667c0-5.12,3.413-8.533,8.533-8.533c5.12,0,8.533,3.413,8.533,8.533
		c0,13.653,7.68,25.6,17.067,25.6c5.12,0,8.533,3.413,8.533,8.533C208.948,319.853,204.681,323.267,200.414,323.267z"/>
	<path d="M226.014,255c-5.12,0-8.533-3.413-8.533-8.533c0-4.267,2.56-7.68,6.827-8.533c0.853-0.853,1.707-4.267,1.707-8.533
		c0-5.12,3.413-8.533,8.533-8.533c5.12,0,8.533,3.413,8.533,8.533C243.081,243.907,236.254,255,226.014,255z"/>
	<path d="M243.081,255c-10.24,0-17.067-11.093-17.067-25.6c0-5.12,3.413-8.533,8.533-8.533c5.12,0,8.533,3.413,8.533,8.533
		c0,4.267,0.853,7.68,1.707,8.533c3.413,0.853,6.827,4.267,6.827,8.533C251.614,251.587,247.348,255,243.081,255z M245.641,238.787
		L245.641,238.787L245.641,238.787z"/>
	<path d="M285.748,263.533c-5.12,0-8.533-3.413-8.533-8.533c0-4.267,2.56-7.68,6.827-8.533c0.853-0.853,1.707-4.267,1.707-8.533
		c0-5.12,3.413-8.533,8.533-8.533c5.12,0,8.533,3.413,8.533,8.533C302.814,252.44,295.988,263.533,285.748,263.533z"/>
	<path d="M302.814,263.533c-10.24,0-17.067-11.093-17.067-25.6c0-5.12,3.413-8.533,8.533-8.533c5.12,0,8.533,3.413,8.533,8.533
		c0,4.267,0.853,7.68,1.707,8.533c3.413,0.853,6.827,4.267,6.827,8.533C311.348,260.12,307.081,263.533,302.814,263.533z
		 M305.374,247.32L305.374,247.32L305.374,247.32z"/>
	<path d="M345.481,280.6c-5.12,0-8.533-3.413-8.533-8.533c0-4.267,2.56-7.68,6.827-8.533c0.853-0.853,1.707-4.267,1.707-8.533
		c0-5.12,3.413-8.533,8.533-8.533c5.12,0,8.533,3.413,8.533,8.533C362.548,269.507,355.721,280.6,345.481,280.6z"/>
	<path d="M362.548,280.6c-10.24,0-17.067-11.093-17.067-25.6c0-5.12,3.413-8.533,8.533-8.533c5.12,0,8.533,3.413,8.533,8.533
		c0,4.267,0.853,7.68,1.707,8.533c3.413,0.853,6.827,4.267,6.827,8.533C371.081,277.187,366.814,280.6,362.548,280.6z
		 M365.108,264.387L365.108,264.387L365.108,264.387z"/>
	<path d="M422.281,237.933c0-5.12-3.413-8.533-8.533-8.533s-8.533,3.413-8.533,8.533c0,5.12,3.413,8.533,8.533,8.533
		S422.281,243.053,422.281,237.933"/>
</g>
<g>
</g>
<g>
</g>
<g>
</g>
<g>
</g>
<g>
</g>
<g>
</g>
<g>
</g>
<g>
</g>
<g>
</g>
<g>
</g>
<g>
</g>
<g>
</g>
<g>
</g>
<g>
</g>
<g>
</g>
</svg>
