<svg width="512" height="512" viewBox="0 0 512 512" xmlns="http://www.w3.org/2000/svg" xmlns:xlink="http://www.w3.org/1999/xlink" id="Capa_1" overflow="hidden"><g><g><g><g><path d="M118.33 136.8 25.972 136.8C15.77 136.8 7.501 128.53 7.501 118.329L7.501 25.971C7.501 15.77 15.771 7.5 25.972 7.5L118.329 7.5C128.531 7.5 136.8 15.77 136.8 25.971L136.8 118.328C136.801 128.53 128.531 136.8 118.33 136.8Z" fill="#DF75A5"/></g><g><path d="M119.883 7.5C120.078 10.065 120.177 12.657 120.177 15.272 120.177 71.125 74.899 116.403 19.046 116.403 15.141 116.403 11.291 116.174 7.501 115.743L7.501 118.25C7.501 128.452 15.771 136.721 25.972 136.721L118.329 136.721C128.53 136.721 136.8 128.451 136.8 118.25L136.8 25.893C136.801 16.216 129.356 8.29 119.883 7.5Z" fill="#DD5790"/></g></g></g><g><g><g><path d="M118.33 298.426 25.972 298.426C15.77 298.426 7.501 290.156 7.501 279.955L7.501 187.598C7.501 177.396 15.771 169.127 25.972 169.127L118.329 169.127C128.531 169.127 136.8 177.397 136.8 187.598L136.8 279.955C136.801 290.156 128.531 298.426 118.33 298.426Z" fill="#FFE07D"/></g><g><path d="M119.883 169.165C120.078 171.73 120.177 174.322 120.177 176.937 120.177 232.79 74.899 278.068 19.046 278.068 15.141 278.068 11.291 277.839 7.501 277.408L7.501 279.915C7.501 290.117 15.771 298.386 25.972 298.386L118.329 298.386C128.53 298.386 136.8 290.116 136.8 279.915L136.8 187.558C136.801 177.88 129.356 169.955 119.883 169.165Z" fill="#FFD064"/></g></g></g><g><g><g><g><path d="M399.154 136.8 306.797 136.8C296.595 136.8 288.326 128.53 288.326 118.329L288.326 25.971C288.326 15.769 296.596 7.5 306.797 7.5L399.154 7.5C409.356 7.5 417.625 15.77 417.625 25.971L417.625 118.328C417.625 128.53 409.355 136.8 399.154 136.8Z" fill="#B3E59F"/></g><g><path d="M400.707 7.578C400.902 10.143 401.001 12.735 401.001 15.35 401.001 71.203 355.723 116.481 299.87 116.481 295.965 116.481 292.115 116.252 288.325 115.821L288.325 118.328C288.325 128.53 296.595 136.799 306.796 136.799L399.153 136.799C409.354 136.799 417.624 128.529 417.624 118.328L417.624 25.971C417.625 16.294 410.18 8.369 400.707 7.578Z" fill="#95D6A4"/></g></g></g><g><g><g><path d="M399.154 298.426 306.797 298.426C296.595 298.426 288.326 290.156 288.326 279.955L288.326 187.598C288.326 177.396 296.596 169.127 306.797 169.127L399.154 169.127C409.356 169.127 417.625 177.397 417.625 187.598L417.625 279.955C417.625 290.156 409.355 298.426 399.154 298.426Z" fill="#90D8F9"/></g><g><path d="M400.707 169.204C400.902 171.769 401.001 174.361 401.001 176.976 401.001 232.829 355.723 278.107 299.87 278.107 295.965 278.107 292.115 277.878 288.325 277.447L288.325 279.954C288.325 290.156 296.595 298.425 306.796 298.425L399.153 298.425C409.354 298.425 417.624 290.155 417.624 279.954L417.624 187.597C417.625 177.92 410.18 169.994 400.707 169.204Z" fill="#75CEF9"/></g></g></g></g><g><g><path d="M91.13 495.129 104.043 504.498 286.447 504.498 275.534 469.172 273.53 432.551C273.35 429.252 272.765 425.988 271.79 422.832L240.304 320.916C237.07 310.449 226.177 304.049 215.602 306.909 204.5 309.911 198.189 321.486 201.555 332.38L195.436 312.575C192.202 302.108 181.31 295.708 170.734 298.568 159.632 301.57 153.321 313.145 156.687 324.039L150.867 305.199C147.633 294.732 136.74 288.332 126.165 291.192 115.063 294.194 108.752 305.769 112.118 316.663L91.985 251.496C88.751 241.029 77.858 234.629 67.283 237.489 56.181 240.491 49.87 252.066 53.236 262.96L89.017 378.778C85.723 368.117 74.411 362.145 63.751 365.439 53.09 368.733 47.118 380.045 50.412 390.705L76.254 474.351C78.834 482.704 84.054 489.995 91.13 495.129Z" fill="#FFDDCE"/></g><g><path d="M165.501 504.498 286.447 504.498 275.534 469.172 273.53 432.551C273.35 429.252 272.765 425.988 271.79 422.832L251.555 357.333C243.739 401.077 222.539 463.448 165.501 504.498Z" fill="#FFCBBE"/></g></g><g><path d="M25.971 144.299 118.331 144.299C132.65 144.299 144.301 132.649 144.301 118.329L144.301 25.97C144.3 11.65 132.65 1.42109e-14 118.331 1.42109e-14L67.211 1.42109e-14C63.068 1.42109e-14 59.711 3.358 59.711 7.5 59.711 11.642 63.068 15 67.211 15L118.331 15C124.38 15 129.301 19.921 129.301 25.97L129.301 118.33C129.301 124.379 124.38 129.3 118.331 129.3L25.971 129.3C19.922 129.3 15.001 124.379 15.001 118.33L15.001 25.97C15.001 19.921 19.922 15 25.971 15L32.211 15C36.354 15 39.711 11.642 39.711 7.5 39.711 3.358 36.353 1.24345e-14 32.211 1.24345e-14L25.971 1.24345e-14C11.651 1.24345e-14 0.001 11.65 0.001 25.97L0.001 118.33C0.001 132.649 11.651 144.299 25.971 144.299Z"/><path d="M43.96 111.484C47.83 112.957 52.164 111.016 53.639 107.145L57.845 96.101 86.496 96.101 90.656 107.123C91.789 110.126 94.643 111.977 97.674 111.977 98.554 111.977 99.449 111.821 100.321 111.492 104.196 110.03 106.152 105.702 104.689 101.827L80.633 38.085C80.608 38.017 80.581 37.949 80.553 37.881 79.165 34.506 75.911 32.325 72.262 32.325 72.259 32.325 72.256 32.325 72.253 32.325 68.601 32.328 65.347 34.515 63.964 37.896 63.941 37.952 63.918 38.009 63.897 38.066L39.621 101.806C38.146 105.677 40.09 110.01 43.96 111.484ZM72.236 58.315 80.835 81.101 63.558 81.101Z"/><path d="M169.126 47.325 223.675 47.325C227.818 47.325 231.175 43.967 231.175 39.825 231.175 35.683 227.818 32.325 223.675 32.325L169.126 32.325C164.983 32.325 161.626 35.683 161.626 39.825 161.626 43.967 164.984 47.325 169.126 47.325Z"/><path d="M169.126 79.65 203.472 79.65C207.615 79.65 210.972 76.292 210.972 72.15 210.972 68.008 207.615 64.65 203.472 64.65L169.126 64.65C164.983 64.65 161.626 68.008 161.626 72.15 161.626 76.292 164.984 79.65 169.126 79.65Z"/><path d="M169.126 111.975 203.472 111.975C207.615 111.975 210.972 108.617 210.972 104.475 210.972 100.333 207.615 96.975 203.472 96.975L169.126 96.975C164.983 96.975 161.626 100.333 161.626 104.475 161.626 108.617 164.984 111.975 169.126 111.975Z"/><path d="M169.126 208.95 223.675 208.95C227.818 208.95 231.175 205.592 231.175 201.45 231.175 197.308 227.818 193.95 223.675 193.95L169.126 193.95C164.983 193.95 161.626 197.308 161.626 201.45 161.626 205.592 164.984 208.95 169.126 208.95Z"/><path d="M169.126 241.275 203.472 241.275C207.615 241.275 210.972 237.917 210.972 233.775 210.972 229.633 207.615 226.275 203.472 226.275L169.126 226.275C164.983 226.275 161.626 229.633 161.626 233.775 161.626 237.917 164.984 241.275 169.126 241.275Z"/><path d="M169.126 273.601 203.472 273.601C207.615 273.601 210.972 270.243 210.972 266.101 210.972 261.959 207.615 258.601 203.472 258.601L169.126 258.601C164.983 258.601 161.626 261.959 161.626 266.101 161.626 270.243 164.984 273.601 169.126 273.601Z"/><path d="M306.797 144.3 399.154 144.3C413.475 144.3 425.126 132.649 425.126 118.328L425.126 25.972C425.125 11.651 413.475 7.10543e-15 399.154 7.10543e-15L306.797 7.10543e-15C292.476 7.10543e-15 280.825 11.651 280.825 25.972L280.825 118.329C280.825 132.649 292.475 144.3 306.797 144.3ZM295.825 25.972C295.825 19.922 300.747 15 306.797 15L399.154 15C405.204 15 410.126 19.922 410.126 25.972L410.126 118.329C410.126 124.379 405.204 129.301 399.154 129.301L306.797 129.301C300.747 129.301 295.825 124.379 295.825 118.329Z"/><path d="M358.956 111.975C367.716 111.975 375.575 109.099 381.685 103.658 382.882 102.591 384.021 101.417 385.068 100.167 387.729 96.993 387.312 92.262 384.137 89.602 380.963 86.942 376.232 87.358 373.572 90.532 372.991 91.225 372.365 91.872 371.709 92.456 368.342 95.455 364.052 96.975 358.956 96.975 345.268 96.975 334.131 85.838 334.131 72.15 334.131 58.462 345.268 47.325 358.956 47.325 363.932 47.325 368.729 48.789 372.831 51.56 376.263 53.878 380.925 52.976 383.244 49.543 385.562 46.111 384.66 41.449 381.227 39.13 374.636 34.678 366.935 32.324 358.956 32.324 336.996 32.324 319.131 50.19 319.131 72.149 319.131 94.108 336.996 111.975 358.956 111.975Z"/><path d="M399.15 161.629 352.98 161.629C348.837 161.629 345.48 164.987 345.48 169.129 345.48 173.271 348.837 176.629 352.98 176.629L399.15 176.629C405.204 176.629 410.129 181.55 410.129 187.599L410.129 279.959C410.129 286.008 405.203 290.929 399.15 290.929L306.8 290.929C300.751 290.929 295.83 286.008 295.83 279.959L295.83 187.599C295.83 181.55 300.751 176.629 306.8 176.629L317.981 176.629C322.124 176.629 325.481 173.271 325.481 169.129 325.481 164.987 322.124 161.629 317.981 161.629L306.8 161.629C292.481 161.629 280.83 173.279 280.83 187.599L280.83 279.959C280.83 294.279 292.48 305.929 306.8 305.929L399.15 305.929C413.475 305.929 425.129 294.279 425.129 279.959L425.129 187.599C425.129 173.28 413.475 161.629 399.15 161.629Z"/><path d="M323.266 265.05C323.333 267.377 323.869 269.761 325.614 271.423 327.018 272.818 328.918 273.6 330.897 273.6L330.925 273.6C331.479 273.598 344.53 273.547 349.742 273.457 368.83 273.123 382.683 256.434 382.683 233.775 382.683 209.954 369.177 193.95 349.076 193.95L330.766 193.95C328.775 193.95 326.865 194.742 325.457 196.152 324.051 197.562 323.262 199.473 323.266 201.464L323.266 201.515 323.266 201.517ZM349.077 208.95C362.797 208.95 367.684 221.774 367.684 233.775 367.684 245.903 362.055 258.239 349.481 258.459 346.94 258.503 342.355 258.539 338.372 258.563 338.348 250.917 338.313 239.401 338.313 233.704 338.313 228.946 338.293 216.902 338.28 208.95Z"/><path d="M449.95 47.325 504.499 47.325C508.642 47.325 511.999 43.967 511.999 39.825 511.999 35.683 508.642 32.325 504.499 32.325L449.95 32.325C445.807 32.325 442.45 35.683 442.45 39.825 442.45 43.967 445.808 47.325 449.95 47.325Z"/><path d="M449.95 79.65 484.296 79.65C488.439 79.65 491.796 76.292 491.796 72.15 491.796 68.008 488.439 64.65 484.296 64.65L449.95 64.65C445.807 64.65 442.45 68.008 442.45 72.15 442.45 76.292 445.808 79.65 449.95 79.65Z"/><path d="M449.95 111.975 484.296 111.975C488.439 111.975 491.796 108.617 491.796 104.475 491.796 100.333 488.439 96.975 484.296 96.975L449.95 96.975C445.807 96.975 442.45 100.333 442.45 104.475 442.45 108.617 445.808 111.975 449.95 111.975Z"/><path d="M504.499 193.95 449.95 193.95C445.807 193.95 442.45 197.308 442.45 201.45 442.45 205.592 445.807 208.95 449.95 208.95L504.499 208.95C508.642 208.95 511.999 205.592 511.999 201.45 511.999 197.308 508.642 193.95 504.499 193.95Z"/><path d="M484.296 226.275 449.95 226.275C445.807 226.275 442.45 229.633 442.45 233.775 442.45 237.917 445.807 241.275 449.95 241.275L484.296 241.275C488.439 241.275 491.796 237.917 491.796 233.775 491.796 229.633 488.439 226.275 484.296 226.275Z"/><path d="M484.296 258.601 449.95 258.601C445.807 258.601 442.45 261.959 442.45 266.101 442.45 270.243 445.807 273.601 449.95 273.601L484.296 273.601C488.439 273.601 491.796 270.243 491.796 266.101 491.796 261.958 488.439 258.601 484.296 258.601Z"/><path d="M259.396 357.304 247.465 318.696C243.039 304.358 227.864 295.823 213.642 299.668 208.869 300.958 204.636 303.422 201.253 306.818 195.595 294.461 182.014 287.747 168.773 291.327 163.944 292.632 159.67 295.137 156.268 298.592 153.461 292.944 148.962 288.555 143.618 285.89 144.068 283.963 144.3 281.976 144.3 279.957L144.3 187.597C144.3 173.277 132.65 161.627 118.33 161.627L25.97 161.627C11.651 161.627-1.42109e-14 173.277-1.42109e-14 187.597L-1.42109e-14 279.957C-1.42109e-14 294.277 11.65 305.927 25.97 305.927L58.665 305.927 74.583 357.456C70.284 356.684 65.83 356.946 61.535 358.271 49.85 361.883 42 372.519 42 384.737 42 387.475 42.417 390.224 43.244 392.92L69.087 476.578C72.178 486.546 78.275 495.06 86.728 501.209L99.638 510.569C100.968 511.533 102.508 511.997 104.034 511.997 106.355 511.997 108.645 510.922 110.112 508.899 112.543 505.546 111.796 500.856 108.442 498.424L95.542 489.071C89.733 484.846 85.54 478.99 83.416 472.143L57.58 388.508C55.448 381.906 59.305 374.565 65.962 372.604 72.439 370.455 79.982 374.425 81.851 380.991L96.141 427.245 91.589 435.867C89.654 439.53 91.056 444.067 94.719 446.001 95.836 446.591 97.033 446.87 98.214 446.87 100.906 446.87 103.509 445.416 104.854 442.871L110.857 431.501C111.786 429.742 111.977 427.686 111.39 425.785L60.406 260.742C56.18 244.168 79.139 237.444 84.815 253.703L123.439 378.717C126.732 388.134 140.379 383.832 137.771 374.289L119.284 314.45C119.278 314.432 119.27 314.415 119.265 314.397 118.258 311.088 118.622 307.598 120.295 304.563 121.973 301.518 124.752 299.339 128.112 298.431 134.628 296.676 141.624 300.706 143.697 307.428L162.045 366.79C165.338 376.207 178.985 371.905 176.377 362.362 176.377 362.362 163.863 321.846 163.857 321.824 162.829 318.498 163.187 314.988 164.866 311.941 166.543 308.898 169.321 306.72 172.689 305.81 179.21 304.051 186.198 308.081 188.275 314.791L200.652 354.863C203.445 364.239 217.98 359.661 214.984 350.435L208.697 330.083C207.703 326.784 208.068 323.307 209.735 320.282 211.414 317.237 214.192 315.059 217.558 314.149 224.08 312.383 231.063 316.412 233.135 323.123L245.066 361.733C246.289 365.69 250.484 367.911 254.446 366.684 258.402 365.461 260.619 361.262 259.396 357.304ZM71.2 223.703C69.855 223.703 67.354 223.71 64.606 223.72L59.921 223.72 59.921 208.95 71.2 208.95C75.267 208.95 78.576 212.259 78.576 216.326 78.576 220.394 75.267 223.703 71.2 223.703ZM112.006 290.908 99.342 249.907C99.343 249.887 99.347 249.867 99.348 249.847 99.369 249.44 99.38 249.03 99.38 248.618 99.38 240.609 95.576 233.477 89.684 228.919 92.138 225.329 93.576 220.992 93.576 216.325 93.576 203.987 83.538 193.949 71.2 193.949L52.421 193.949C48.278 193.949 44.921 197.307 44.921 201.449L44.921 266.098C44.921 268.1 45.722 270.019 47.145 271.428 47.5 271.779 47.886 272.091 48.297 272.361L54.033 290.928 25.971 290.928C19.922 290.928 15.001 286.007 15.001 279.958L15.001 187.598C15.001 181.549 19.922 176.628 25.971 176.628L118.331 176.628C124.38 176.628 129.301 181.549 129.301 187.598L129.301 279.958C129.301 281.042 129.139 282.102 128.835 283.116 127.296 283.26 125.748 283.532 124.205 283.948 119.52 285.214 115.357 287.611 112.006 290.908Z"/><path d="M282.978 467.836 281.019 432.15C280.804 428.215 280.108 424.333 278.956 420.625L269.726 390.745C268.503 386.788 264.307 384.572 260.346 385.793 256.389 387.016 254.171 391.215 255.394 395.173L264.628 425.065C265.419 427.607 265.894 430.266 266.042 432.97L268.052 469.58C268.085 470.191 268.194 470.797 268.374 471.382L279.284 506.712C280.278 509.933 283.245 512.001 286.447 512.001 287.18 512.001 287.926 511.893 288.663 511.665 292.621 510.443 294.839 506.244 293.616 502.286Z"/></g></g></svg>