<?xml version="1.0" encoding="iso-8859-1"?>
<!-- Generator: Adobe Illustrator 19.0.0, SVG Export Plug-In . SVG Version: 6.00 Build 0)  -->
<svg version="1.1" id="Layer_1" xmlns="http://www.w3.org/2000/svg" xmlns:xlink="http://www.w3.org/1999/xlink" x="0px" y="0px"
	 viewBox="0 0 511.999 511.999" style="enable-background:new 0 0 511.999 511.999;" xml:space="preserve">
<g>
	<path style="fill:#FECC85;" d="M121.588,233.167h81.534c16.462,0,32.266,6.471,43.999,18.018l76.713,75.486
		c14.921,14.921,14.921,39.113,0,54.033l-0.123,0.123c-14.921,14.921-39.113,14.921-54.033,0l-81.94-81.94
		c-0.287-0.287-24.883-0.493-66.149-0.599L121.588,233.167L121.588,233.167z"/>
	<path style="fill:#FECC85;" d="M459.868,367.993H332.252c-1.865,4.626-4.67,8.961-8.419,12.711l-0.123,0.123
		c-14.921,14.921-39.113,14.921-54.033,0l-81.94-81.94c-0.287-0.287-24.883-0.493-66.149-0.599v52.577l55.895,72.785
		c10.135,13.197,25.829,20.933,42.468,20.933h239.917c21.101,0,38.207-17.105,38.207-38.207v-0.174
		C498.075,385.099,480.97,367.993,459.868,367.993z"/>
</g>
<rect x="13.925" y="233.16" style="fill:#CFEB70;" width="107.668" height="144.82"/>
<path style="fill:#FF5E8A;" d="M423.6,67.418c-33.829,0-60.372,37.72-60.372,37.72s-25.037-37.72-60.387-37.72
	c-34.384,0-62.462,28.36-64.3,62.697c-1.035,19.399,5.219,34.162,14.029,47.533c17.607,26.714,94.579,91.028,110.772,91.028
	c16.528,0,92.814-64.079,110.538-91.028c8.828-13.432,15.065-28.134,14.025-47.533C486.066,95.779,457.986,67.418,423.6,67.418"/>
<path d="M363.341,282.601c-4.197,0-16.969,0-63.733-38.692c-21.314-17.636-47.919-42.29-58.666-58.598
	c-7.662-11.627-17.688-30.075-16.308-55.937c1.081-20.198,9.631-39.163,24.075-53.401c14.708-14.496,33.931-22.481,54.131-22.481
	c26.994,0,48.348,17.138,60.589,30.022c12.507-12.817,34.146-30.022,60.171-30.022c20.201,0,39.426,7.983,54.133,22.481
	c14.444,14.237,22.996,33.201,24.076,53.398c1.367,25.516-7.99,43.291-16.295,55.926c-10.842,16.486-37.308,41.123-58.459,58.684
	C380.538,282.601,367.594,282.601,363.341,282.601z M362.402,254.823L362.402,254.823L362.402,254.823z M302.84,81.344
	c-26.327,0-48.935,22.213-50.395,49.516c-0.737,13.807,2.778,25.508,11.751,39.126c7.007,10.632,27.379,30.888,50.693,50.406
	c26.045,21.805,42.872,32.136,48.488,34.145c5.608-1.968,22.383-12.229,48.285-33.985c23.163-19.455,43.489-39.773,50.583-50.556
	c8.977-13.658,12.493-25.363,11.754-39.136c-1.461-27.304-24.071-49.517-50.399-49.517c-25.877,0-48.761,31.491-48.984,31.809
	c-2.647,3.761-6.943,5.924-11.577,5.91c-4.598-0.063-8.869-2.391-11.412-6.223C351.435,112.557,330.142,81.344,302.84,81.344z"/>
<path d="M459.868,354.068H348.905c0.091-13.489-5.003-27.02-15.305-37.323l-76.713-75.486
	c-14.428-14.198-33.523-22.017-53.766-22.017h-81.534H13.925C6.234,219.242,0,225.476,0,233.167v144.82
	c0,7.691,6.234,13.925,13.925,13.925h107.663c4.132,0,7.831-1.81,10.381-4.668l34.469,44.884
	c12.684,16.516,32.689,26.377,53.512,26.377h239.917c28.745,0,52.132-23.386,52.132-52.132v-0.174
	C512,377.455,488.613,354.068,459.868,354.068z M237.354,261.11l76.632,75.407c7.366,7.366,8.973,18.317,4.889,27.267
	c-0.181,0.397-0.348,0.803-0.55,1.189c-0.168,0.32-0.37,0.627-0.554,0.941c-0.224,0.383-0.433,0.774-0.678,1.145
	c-0.171,0.26-0.375,0.504-0.557,0.759c-0.292,0.407-0.574,0.819-0.893,1.209c-0.199,0.244-0.429,0.471-0.641,0.709
	c-0.334,0.377-0.657,0.763-1.018,1.124l-0.123,0.123c-0.142,0.142-0.298,0.265-0.443,0.402c-4.534,4.321-10.442,6.71-16.727,6.71
	c-6.486,0-12.584-2.526-17.17-7.113l-81.94-81.94c-4.067-4.068-8.104-4.15-14.215-4.275c-3.029-0.061-7.474-0.118-13.216-0.17
	c-0.898-0.008-1.839-0.015-2.8-0.024c-0.379-0.003-0.762-0.006-1.15-0.008c-0.791-0.006-1.603-0.013-2.434-0.018
	c-0.524-0.004-1.061-0.007-1.6-0.011c-0.71-0.004-1.43-0.01-2.167-0.014c-0.51-0.003-1.021-0.007-1.543-0.01
	c-0.861-0.006-1.741-0.01-2.637-0.015c-0.773-0.004-1.568-0.008-2.369-0.013c-0.538-0.003-1.078-0.006-1.626-0.008
	c-0.688-0.004-1.374-0.007-2.08-0.01c-1.12-0.006-2.259-0.011-3.423-0.015c-0.526-0.003-1.065-0.004-1.601-0.007
	c-1.23-0.006-2.483-0.011-3.761-0.015c-0.086,0-0.169,0-0.255-0.001c-1.688-0.007-3.419-0.013-5.191-0.02v-37.311h67.609
	C216.01,247.092,228.167,252.072,237.354,261.11z M107.663,364.062H87.668V315c0-7.691-6.234-13.925-13.925-13.925
	S59.818,307.309,59.818,315v49.062H27.85v-116.97h79.813v51.194v52.577V364.062z M484.15,406.375
	c0,13.389-10.892,24.282-24.282,24.282H219.951c-12.229,0-23.976-5.79-31.425-15.49l-53.014-69.033v-33.88
	c8.75,0.031,16.011,0.065,22.015,0.1c0.074,0,0.145,0.001,0.219,0.001c2.572,0.015,4.911,0.031,7.043,0.046
	c0.148,0.001,0.297,0.003,0.443,0.003c2.664,0.02,4.992,0.04,7.029,0.06c0.128,0.001,0.255,0.003,0.38,0.004
	c0.34,0.003,0.674,0.007,0.997,0.01c0.033,0,0.067,0,0.1,0.001c0.32,0.003,0.629,0.007,0.936,0.01
	c0.096,0.001,0.196,0.001,0.291,0.003c1.076,0.011,2.054,0.024,2.938,0.035c0.068,0.001,0.132,0.001,0.199,0.003
	c0.167,0.003,0.33,0.004,0.492,0.007c0.143,0.001,0.281,0.004,0.419,0.006c0.201,0.003,0.4,0.006,0.589,0.008
	c0.017,0,0.035,0,0.053,0.001c0.216,0.003,0.421,0.007,0.622,0.01c0.067,0.001,0.135,0.003,0.201,0.003
	c0.455,0.007,0.879,0.014,1.267,0.021l78.086,78.086c0.616,0.615,1.244,1.214,1.884,1.794c9.603,8.709,21.925,13.475,34.98,13.475
	c0.87,0,1.738-0.021,2.601-0.063c12.095-0.59,23.433-5.29,32.378-13.411c0.641-0.581,1.269-1.179,1.884-1.795l0.123-0.123
	c0.647-0.647,1.273-1.308,1.878-1.98c0.276-0.306,0.535-0.624,0.803-0.936c0.316-0.368,0.639-0.731,0.943-1.106
	c0.331-0.407,0.645-0.827,0.962-1.244c0.22-0.288,0.448-0.574,0.663-0.866c0.331-0.453,0.645-0.918,0.961-1.38
	c0.182-0.267,0.37-0.532,0.547-0.802c0.071-0.107,0.148-0.21,0.217-0.319h119.212c13.389,0,24.282,10.892,24.282,24.282v0.175
	H484.15z"/>
<path d="M73.748,287.373c-3.676,0-7.255-1.49-9.859-4.08c-0.641-0.641-1.211-1.351-1.727-2.117c-0.501-0.752-0.933-1.56-1.281-2.395
	c-0.348-0.849-0.613-1.727-0.794-2.604c-0.181-0.905-0.265-1.824-0.265-2.729c0-0.905,0.084-1.824,0.265-2.715
	c0.181-0.891,0.446-1.768,0.794-2.604c0.348-0.849,0.78-1.657,1.281-2.409c0.515-0.766,1.086-1.476,1.727-2.117
	c3.245-3.231,8.049-4.721,12.574-3.802c0.891,0.181,1.768,0.446,2.604,0.794c0.836,0.348,1.643,0.78,2.409,1.281
	c0.752,0.501,1.476,1.086,2.117,1.727s1.225,1.351,1.727,2.117c0.501,0.752,0.933,1.56,1.281,2.409
	c0.348,0.836,0.613,1.713,0.794,2.604c0.181,0.891,0.279,1.81,0.279,2.715s-0.097,1.824-0.279,2.729
	c-0.181,0.877-0.446,1.755-0.794,2.604c-0.348,0.836-0.78,1.643-1.281,2.395c-0.501,0.766-1.086,1.476-1.727,2.117
	s-1.365,1.225-2.117,1.741c-0.766,0.501-1.574,0.933-2.409,1.281c-0.835,0.348-1.713,0.613-2.604,0.794
	C75.56,287.289,74.655,287.373,73.748,287.373z"/>
<g>
</g>
<g>
</g>
<g>
</g>
<g>
</g>
<g>
</g>
<g>
</g>
<g>
</g>
<g>
</g>
<g>
</g>
<g>
</g>
<g>
</g>
<g>
</g>
<g>
</g>
<g>
</g>
<g>
</g>
</svg>
