<?xml version="1.0" encoding="iso-8859-1"?>
<!-- Generator: Adobe Illustrator 19.0.0, SVG Export Plug-In . SVG Version: 6.00 Build 0)  -->
<svg version="1.1" id="Layer_1" xmlns="http://www.w3.org/2000/svg" x="0px" y="0px"
     viewBox="0 0 512.004 512.004" style="enable-background:new 0 0 512.004 512.004;" xml:space="preserve">
<path style="fill:#20272E;" d="M312.148,133.525v93.461c0,44.799,36.315,81.114,81.114,81.114h37.625
	c44.799,0,81.114-36.315,81.114-81.114v-93.461H312.148z"/>
<g>
	<path style="fill:#58422C;" d="M334.823,331.022H177.177c-48.447,0-87.72,39.274-87.72,87.72l0,0
		c0,17.39,13.004,32.473,30.329,33.977c19.739,1.715,36.289-13.8,36.289-33.178c0,18.395,14.913,33.308,33.308,33.308
		c18.397,0,33.308-14.913,33.308-33.308c0,18.395,14.913,33.308,33.308,33.308c18.397,0,33.308-14.913,33.308-33.308
		c0,18.395,14.912,33.308,33.308,33.308c18.395,0,33.308-14.913,33.308-33.308c0,18.798,15.572,33.96,34.522,33.288
		c18.05-0.641,32.096-16.024,32.096-34.085l0,0C422.543,370.296,383.27,331.022,334.823,331.022z"/>
	<path style="fill:#58422C;" d="M478.692,59.154c-18.395,0-33.308,14.913-33.308,33.308c0-18.395-14.913-33.308-33.308-33.308
		s-33.308,14.913-33.308,33.308c0-18.395-14.913-33.308-33.308-33.308S312.15,74.067,312.15,92.462v65.937h66.618h66.618h66.618
		V92.462C512,74.067,497.087,59.154,478.692,59.154z"/>
</g>
<path style="fill:#EEE5DD;" d="M393.261,271.15c-24.352,0-44.165-19.812-44.165-44.165V195.35h125.954v31.636
	c0,24.352-19.812,44.165-44.165,44.165H393.261z"/>
<path style="fill:#20272E;" d="M199.852,133.525v93.461c0,44.799-36.315,81.114-81.114,81.114H81.114
	C36.315,308.099,0,271.783,0,226.986v-93.461H199.852z"/>
<path style="fill:#58422C;" d="M33.308,59.154c18.395,0,33.308,14.913,33.308,33.308c0-18.395,14.913-33.308,33.308-33.308
	s33.308,14.913,33.308,33.308c0-18.395,14.913-33.308,33.308-33.308s33.308,14.913,33.308,33.308v65.937h-66.615H66.618H0V92.462
	C0,74.067,14.913,59.154,33.308,59.154z"/>
<path style="fill:#EEE5DD;" d="M118.739,271.15c24.352,0,44.165-19.812,44.165-44.165V195.35H36.949v31.636
	c0,24.352,19.812,44.165,44.165,44.165H118.739z"/>
<g>
	<path style="opacity:0.3;fill:#20272E;enable-background:new    ;" d="M334.823,331.022H177.177c-5.599,0-11.069,0.547-16.377,1.55
		c3.789,10.058,9.138,19.584,16.002,28.189c18.575,23.289,46.151,37.217,75.664,38.214c1.174,0.039,2.352,0.059,3.536,0.059
		c1.184,0,2.362-0.021,3.54-0.059c29.507-0.997,57.083-14.926,75.658-38.214c6.863-8.605,12.213-18.131,16.002-28.191
		C345.892,331.569,340.423,331.022,334.823,331.022z"/>
	<path style="opacity:0.3;fill:#20272E;enable-background:new    ;" d="M512,92.464c0-18.397-14.913-33.308-33.308-33.308
		s-33.308,14.913-33.308,33.308c0-18.397-14.913-33.308-33.308-33.308s-33.308,14.913-33.308,33.308
		c0-18.397-14.913-33.308-33.308-33.308S312.15,74.069,312.15,92.464v41.061v24.876v68.585c0,21.807,8.622,41.589,22.622,56.165
		l177.231-124.75v-24.876V92.464H512z"/>
</g>
<path style="fill:#FFA5B7;" d="M335.649,280.286c9.489,49.216-26.716,96.291-76.809,97.983c-0.943,0.032-1.89,0.048-2.84,0.048
	s-1.898-0.017-2.84-0.048c-50.093-1.692-86.299-48.768-76.809-97.983l22.355-115.944c0.671-3.483,1.044-7.011,1.332-10.547
	c2.343-28.855,26.503-51.543,55.962-51.543s53.619,22.688,55.962,51.543c0.287,3.536,0.66,7.064,1.332,10.547L335.649,280.286z"/>
<g>
	<path style="opacity:0.3;fill:#20272E;enable-background:new    ;" d="M335.649,280.286l-22.355-115.944
		c-0.671-3.483-1.044-7.011-1.332-10.546c-2.343-28.855-26.503-51.543-55.962-51.543l0,0v276.064l0,0c0.95,0,1.898-0.015,2.84-0.048
		C308.933,376.577,345.14,329.502,335.649,280.286z"/>
	<path style="opacity:0.3;fill:#20272E;enable-background:new    ;" d="M199.852,92.464c0-18.397-14.913-33.308-33.308-33.308
		s-33.31,14.912-33.31,33.308c0-18.397-14.913-33.308-33.308-33.308S66.618,74.069,66.618,92.464
		c0-18.397-14.913-33.308-33.308-33.308S0,74.067,0,92.464v41.061v24.876v68.585c0,21.807,8.622,41.589,22.622,56.165
		l177.231-124.75v-24.876V92.464z"/>
</g>
<g>
</g>
<g>
</g>
<g>
</g>
<g>
</g>
<g>
</g>
<g>
</g>
<g>
</g>
<g>
</g>
<g>
</g>
<g>
</g>
<g>
</g>
<g>
</g>
<g>
</g>
<g>
</g>
<g>
</g>
</svg>
