<?xml version="1.0" encoding="iso-8859-1"?>
<!-- Generator: Adobe Illustrator 19.0.0, SVG Export Plug-In . SVG Version: 6.00 Build 0)  -->
<svg version="1.1" id="Layer_1" xmlns="http://www.w3.org/2000/svg" x="0px" y="0px"
     viewBox="0 0 297 297" style="enable-background:new 0 0 297 297;" xml:space="preserve">
<g>
	<g>
		<g>
			<g>
				<circle style="fill:#6AAC4B;" cx="148.5" cy="148.5" r="148.5"/>
			</g>
		</g>
	</g>
	<path style="fill:#508733;" d="M296.994,148.006l-73.68-73.676L74.359,223.308l73.686,73.686c0.152,0,0.302,0.006,0.454,0.006
		c82.014,0,148.5-66.486,148.5-148.5C297,148.335,296.994,148.171,296.994,148.006z"/>
	<g>
		<path style="fill:#345F41;" d="M93.334,66h110.333C218.762,66,231,78.238,231,93.334v110.333C231,218.762,218.762,231,203.667,231
			H93.334C78.238,231,66,218.762,66,203.667V93.334C66,78.238,78.238,66,93.334,66z"/>
	</g>
	<polygon style="fill:#ECF0F1;" points="201,134.5 162.5,134.5 162.5,96 134.5,96 134.5,134.5 96,134.5 96,162.5 134.5,162.5 
		134.5,201 162.5,201 162.5,162.5 201,162.5 	"/>
</g>
<g>
</g>
<g>
</g>
<g>
</g>
<g>
</g>
<g>
</g>
<g>
</g>
<g>
</g>
<g>
</g>
<g>
</g>
<g>
</g>
<g>
</g>
<g>
</g>
<g>
</g>
<g>
</g>
<g>
</g>
</svg>
