<svg viewBox="0 0 512 512" xmlns="http://www.w3.org/2000/svg" xmlns:xlink="http://www.w3.org/1999/xlink" id="Layer_1" overflow="hidden"><g><path d="M256 8.17C250.432 8.17 244.973 8.636 239.66 9.527L317.176 77.803 348.643 74.063C335.335 35.708 298.886 8.17 256 8.17Z" fill="#C7E7EB"/><path d="M373.106 73.532C367.478 73.532 362.027 74.265 356.819 75.606L340.425 204.255 373.106 204.255C409.204 204.255 438.468 174.991 438.468 138.893 438.468 102.795 409.205 73.532 373.106 73.532Z" fill="#C7E7EB"/></g><path d="M405.787 138.894C405.787 108.457 384.982 82.881 356.819 75.606 354.445 76.217 352.118 76.943 349.857 77.803 349.477 76.546 349.073 75.299 348.643 74.063 345.949 73.724 343.21 73.53 340.426 73.53 332.234 73.53 324.402 75.051 317.176 77.802 306.527 42.577 276.596 15.725 239.659 9.526 202.722 15.724 172.791 42.577 162.143 77.802 154.917 75.051 147.085 73.531 138.893 73.531 102.795 73.531 73.531 102.795 73.531 138.893 73.531 174.991 102.795 204.255 138.893 204.255L340.425 204.255C376.524 204.255 405.787 174.992 405.787 138.894Z" fill="#FFFFFF"/><path d="M256 119.83 245.106 136.17 256 152.511C284.578 152.511 307.745 175.678 307.745 204.256 307.745 232.834 307.745 321.362 307.745 321.362L340.426 321.362C340.426 321.362 340.426 250.882 340.426 204.256 340.426 157.63 302.627 119.83 256 119.83Z" fill="#B7D9DD"/><path d="M171.574 204.255C171.574 250.882 171.574 321.361 171.574 321.361L204.255 321.361C204.255 321.361 204.255 232.832 204.255 204.255 204.255 175.678 227.421 152.51 256 152.51L256 119.83C209.373 119.83 171.574 157.628 171.574 204.255Z" fill="#C7E7EB"/><path d="M340.426 288.681 307.745 396.255 340.426 503.83 373.106 503.83 373.106 288.681Z" fill="#88ACB5"/><rect x="138.894" y="288.681" width="201.532" height="215.149" fill="#A7CBCF"/><circle cx="256" cy="379.915" r="16.34" fill="#2F5E88"/><circle cx="212.426" cy="462.979" r="8.17"/><circle cx="179.745" cy="430.298" r="8.17"/><path d="M256 355.404C242.484 355.404 231.489 366.4 231.489 379.915 231.489 390.566 238.32 399.648 247.829 403.02L247.829 428.936C247.829 433.449 251.487 437.106 255.999 437.106 260.511 437.106 264.169 433.449 264.169 428.936L264.169 403.02C273.678 399.647 280.509 390.565 280.509 379.915 280.511 366.4 269.516 355.404 256 355.404ZM256 388.085C251.494 388.085 247.83 384.42 247.83 379.915 247.83 375.41 251.495 371.745 256 371.745 260.505 371.745 264.17 375.41 264.17 379.915 264.17 384.42 260.506 388.085 256 388.085Z"/><path d="M373.106 212.426C413.652 212.426 446.638 179.44 446.638 138.894 446.638 98.348 413.652 65.362 373.106 65.362 366.949 65.362 360.877 66.121 354.969 67.628 347.831 49.412 335.581 33.192 319.88 21.353 301.352 7.384 279.263 0 256 0 232.737 0 210.648 7.384 192.12 21.354 176.419 33.192 164.167 49.413 157.031 67.629 151.123 66.121 145.051 65.362 138.894 65.362 98.348 65.362 65.362 98.348 65.362 138.894 65.362 179.44 98.348 212.426 138.894 212.426 143.406 212.426 147.064 208.769 147.064 204.256 147.064 199.743 143.406 196.086 138.894 196.086 107.358 196.086 81.703 170.429 81.703 138.895 81.703 107.361 107.359 81.704 138.894 81.704 145.881 81.704 152.726 82.961 159.236 85.442 161.353 86.247 163.711 86.139 165.747 85.14 167.782 84.14 169.309 82.341 169.965 80.17 181.324 42.588 216.703 16.34 256 16.34 295.297 16.34 330.676 42.587 342.036 80.168 342.692 82.338 344.219 84.138 346.254 85.138 348.289 86.138 350.649 86.247 352.765 85.44 359.275 82.96 366.119 81.702 373.107 81.702 404.643 81.702 430.298 107.359 430.298 138.893 430.298 170.427 404.642 196.084 373.107 196.084L348.215 196.084C344.062 148.842 304.303 111.658 256.001 111.658 204.944 111.658 163.405 153.196 163.405 204.254L163.405 280.509 138.894 280.509C134.382 280.509 130.724 284.166 130.724 288.679L130.724 503.83C130.724 508.343 134.382 512 138.894 512L373.107 512C377.619 512 381.277 508.343 381.277 503.83L381.277 288.681C381.277 284.168 377.619 280.511 373.107 280.511L348.596 280.511 348.596 212.426 373.106 212.426ZM364.936 495.66 147.064 495.66 147.064 296.851 364.936 296.851 364.936 495.66ZM212.426 212.426 275.064 212.426C279.576 212.426 283.234 208.769 283.234 204.256 283.234 199.743 279.576 196.086 275.064 196.086L213.205 196.086C217.042 175.952 234.766 160.682 256.001 160.682 280.028 160.682 299.575 180.23 299.575 204.256L299.575 280.511 212.426 280.511 212.426 212.426ZM315.915 280.511 315.915 204.256C315.915 171.219 289.037 144.341 256 144.341 222.963 144.341 196.085 171.219 196.085 204.256L196.085 280.511 179.745 280.511 179.745 204.256C179.745 162.208 213.953 128 256 128 298.047 128 332.255 162.208 332.255 204.255L332.255 280.51 315.915 280.51Z"/><g></g><g></g><g></g><g></g><g></g><g></g><g></g><g></g><g></g><g></g><g></g><g></g><g></g><g></g><g></g></svg>