<?xml version="1.0" encoding="iso-8859-1"?>
<!-- Generator: Adobe Illustrator 19.0.0, SVG Export Plug-In . SVG Version: 6.00 Build 0)  -->
<svg version="1.1" id="Layer_1" xmlns="http://www.w3.org/2000/svg" x="0px" y="0px"
     viewBox="0 0 512 512" style="enable-background:new 0 0 512 512;" xml:space="preserve">
<circle style="fill:#FC6F58;" cx="256" cy="256" r="256"/>
<path style="fill:#E15050;" d="M512,256c0-3.258-0.081-6.497-0.202-9.726L398.97,133.446l-7.49,6.142l-33.783-33.783l-15.344,26.671
	h-93.224h-10.368h-32.332l-26.671-26.671l-7.102,7.23l19.44,19.44h-25.066l-63.643,49.7l28.286,28.286l5.475,95.628l-33.761,49.19
	l32.404,32.404l-4.763,8.87l115.243,115.243c3.231,0.121,6.47,0.202,9.728,0.202C397.384,512,512,397.384,512,256z"/>
<path style="fill:#E9EFF4;" d="M255.998,387.017c-72.242,0-131.017-58.775-131.017-131.017s58.775-131.017,131.017-131.017
	S387.015,183.758,387.015,256S328.24,387.017,255.998,387.017z M255.998,137.051c-65.589,0-118.949,53.36-118.949,118.949
	s53.36,118.949,118.949,118.949S374.948,321.589,374.948,256S321.588,137.051,255.998,137.051z"/>
<path style="fill:#CFDBE6;" d="M255.998,124.983c-0.048,0-0.093,0.003-0.141,0.003v12.067c0.048,0,0.093-0.003,0.141-0.003
	c65.589,0,118.949,53.36,118.949,118.949s-53.36,118.949-118.949,118.949c-0.048,0-0.093-0.003-0.141-0.003v12.067
	c0.048,0,0.093,0.003,0.141,0.003c72.242,0,131.017-58.775,131.017-131.017S328.24,124.983,255.998,124.983z"/>
<path style="fill:#324A5E;" d="M408.61,182.177v-25.459h-14.333c-1.202-4.67-3.06-9.076-5.453-13.128l10.147-10.147l-18.001-18.001
	l-10.147,10.147c-4.051-2.393-8.456-4.251-13.128-5.453v-14.333H332.24v14.333c-4.67,1.202-9.076,3.06-13.128,5.453l-10.147-10.147
	l-18.001,18.001l10.147,10.147c-2.393,4.051-4.251,8.456-5.453,13.128h-14.333v25.457h14.333c1.202,4.67,3.06,9.076,5.453,13.128
	l-10.147,10.147l18.001,18.001l10.145-10.147c4.051,2.393,8.456,4.251,13.128,5.453v14.333h25.457v-14.333
	c4.67-1.202,9.076-3.06,13.128-5.453l10.145,10.147l18.001-18.001l-10.147-10.147c2.393-4.051,4.251-8.456,5.453-13.128h14.336
	V182.177z M344.967,194.905c-14.06,0-25.457-11.397-25.457-25.457s11.397-25.457,25.457-25.457s25.457,11.397,25.457,25.457
	S359.027,194.905,344.967,194.905z"/>
<path style="fill:#2B3B4E;" d="M408.61,182.177v-25.459h-14.333c-1.202-4.67-3.06-9.076-5.453-13.128l10.145-10.145l-18.001-18.001
	l-10.147,10.147c-4.051-2.393-8.456-4.251-13.128-5.453v-14.333h-13.059v38.202c0.11-0.002,0.219-0.017,0.329-0.017
	c14.06,0,25.457,11.397,25.457,25.457c0,14.06-11.397,25.457-25.457,25.457c-0.11,0-0.219-0.016-0.329-0.017v38.202h13.059v-14.333
	c4.67-1.202,9.076-3.06,13.128-5.453l10.145,10.145l18.001-18.001l-10.145-10.145c2.393-4.051,4.251-8.456,5.453-13.128h14.334
	V182.177z"/>
<path style="fill:#31BAFD;" d="M344.967,210.334c-22.545,0-40.886-18.341-40.886-40.886s18.341-40.886,40.886-40.886
	c22.545,0,40.886,18.341,40.886,40.886S367.513,210.334,344.967,210.334z M344.967,133.963c-19.566,0-35.487,15.919-35.487,35.487
	s15.919,35.487,35.487,35.487s35.487-15.919,35.487-35.487S364.534,133.963,344.967,133.963z"/>
<path style="fill:#2B9ED8;" d="M344.967,128.562c-0.11,0-0.219,0.007-0.329,0.009v5.408c0.11-0.002,0.219-0.017,0.329-0.017
	c19.566,0,35.487,15.919,35.487,35.487c0,19.566-15.919,35.485-35.487,35.485c-0.11,0-0.219-0.016-0.329-0.017v5.408
	c0.11,0,0.219,0.009,0.329,0.009c22.545,0,40.886-18.341,40.886-40.886S367.513,128.562,344.967,128.562z"/>
<path style="fill:#324A5E;" d="M230.674,182.177v-25.459h-14.333c-1.202-4.67-3.06-9.076-5.453-13.128l10.147-10.147l-18.001-18.001
	l-10.147,10.147c-4.051-2.393-8.456-4.251-13.128-5.453v-14.333h-25.459v14.333c-4.67,1.202-9.076,3.06-13.128,5.453l-10.147-10.147
	l-17.999,18.003l10.147,10.147c-2.393,4.051-4.251,8.456-5.453,13.128H103.39v25.457h14.333c1.202,4.67,3.06,9.076,5.453,13.128
	l-10.147,10.147l18.001,18.001l10.147-10.147c4.051,2.393,8.456,4.251,13.128,5.453v14.333h25.457v-14.333
	c4.67-1.202,9.076-3.06,13.128-5.453l10.147,10.147l18.001-18.001l-10.147-10.147c2.393-4.051,4.251-8.456,5.453-13.128
	L230.674,182.177L230.674,182.177z M167.031,194.905c-14.06,0-25.457-11.397-25.457-25.457s11.397-25.457,25.457-25.457
	s25.457,11.397,25.457,25.457S181.089,194.905,167.031,194.905z"/>
<path style="fill:#2B3B4E;" d="M230.674,182.177v-25.459h-14.333c-1.203-4.67-3.06-9.076-5.453-13.128l10.145-10.145l-18.001-18.001
	l-10.145,10.147c-4.051-2.393-8.456-4.251-13.128-5.453v-14.333h-12.683v38.188c14.038,0.024,25.412,11.411,25.412,25.455
	c0,14.045-11.374,25.431-25.412,25.455v38.188h12.683V218.76c4.67-1.202,9.076-3.06,13.128-5.453l10.145,10.145l18.001-18.001
	l-10.145-10.145c2.393-4.051,4.251-8.456,5.453-13.128h14.333V182.177z"/>
<path style="fill:#31BAFD;" d="M167.031,210.334c-22.545,0-40.886-18.341-40.886-40.886s18.341-40.886,40.886-40.886
	s40.886,18.341,40.886,40.886S189.576,210.334,167.031,210.334z M167.031,133.963c-19.566,0-35.487,15.919-35.487,35.487
	s15.919,35.487,35.487,35.487s35.487-15.919,35.487-35.487S186.597,133.963,167.031,133.963z"/>
<path style="fill:#2B9ED8;" d="M207.917,169.448c0-22.53-18.316-40.86-40.841-40.884v5.401c19.546,0.024,35.44,15.932,35.44,35.483
	s-15.894,35.459-35.44,35.483v5.401C189.6,210.308,207.917,191.978,207.917,169.448z"/>
<path style="fill:#324A5E;" d="M408.61,355.281v-25.457h-14.333c-1.202-4.67-3.06-9.076-5.453-13.128l10.147-10.147l-18.001-18.001
	l-10.147,10.147c-4.051-2.393-8.456-4.251-13.128-5.453v-14.333H332.24v14.333c-4.67,1.202-9.076,3.06-13.128,5.453l-10.147-10.147
	l-18.001,18.001l10.147,10.145c-2.393,4.051-4.251,8.456-5.453,13.128h-14.333v25.457h14.333c1.202,4.67,3.06,9.076,5.453,13.128
	l-10.147,10.147l18.001,18.001l10.145-10.145c4.051,2.393,8.456,4.251,13.128,5.453v14.333h25.457v-14.333
	c4.67-1.202,9.076-3.06,13.128-5.453l10.145,10.145l18.001-18.001l-10.147-10.147c2.393-4.051,4.251-8.456,5.453-13.128h14.336
	V355.281z M344.967,368.009c-14.06,0-25.457-11.397-25.457-25.457s11.397-25.457,25.457-25.457s25.457,11.397,25.457,25.457
	S359.027,368.009,344.967,368.009z"/>
<path style="fill:#2B3B4E;" d="M408.61,355.281v-25.457h-14.333c-1.202-4.67-3.06-9.076-5.453-13.128l10.145-10.145l-18.001-18.001
	l-10.147,10.145c-4.051-2.393-8.456-4.251-13.128-5.453v-14.333h-12.628v38.191c14.012,0.055,25.355,11.426,25.355,25.452
	s-11.343,25.397-25.355,25.452v38.191h12.628v-14.333c4.67-1.202,9.076-3.06,13.128-5.453l10.145,10.147l18.001-18.001
	l-10.145-10.145c2.393-4.051,4.251-8.456,5.453-13.128h14.334V355.281z"/>
<path style="fill:#31BAFD;" d="M344.967,383.438c-22.545,0-40.886-18.341-40.886-40.886c0-22.545,18.341-40.886,40.886-40.886
	c22.545,0,40.886,18.341,40.886,40.886C385.853,365.097,367.513,383.438,344.967,383.438z M344.967,307.066
	c-19.566,0-35.487,15.919-35.487,35.487c0,19.566,15.919,35.487,35.487,35.487s35.487-15.919,35.487-35.487
	C380.454,322.986,364.534,307.066,344.967,307.066z"/>
<path style="fill:#2B9ED8;" d="M385.853,342.552c0-22.511-18.287-40.827-40.784-40.884v5.403
	c19.52,0.055,35.385,15.948,35.385,35.481c0,19.532-15.865,35.425-35.385,35.481v5.403
	C367.568,383.379,385.853,365.063,385.853,342.552z"/>
<path style="fill:#324A5E;" d="M230.674,355.281v-25.457h-14.333c-1.202-4.67-3.06-9.076-5.453-13.128l10.147-10.147l-18.001-18.001
	l-10.147,10.147c-4.051-2.393-8.456-4.251-13.128-5.453v-14.333h-25.459v14.333c-4.67,1.202-9.076,3.06-13.128,5.453l-10.147-10.147
	l-18.001,18.001l10.147,10.145c-2.393,4.051-4.251,8.456-5.453,13.128h-14.333v25.457h14.333c1.202,4.67,3.06,9.076,5.453,13.128
	l-10.147,10.147l18.001,18.001l10.147-10.145c4.051,2.393,8.456,4.251,13.128,5.453v14.333h25.457v-14.333
	c4.67-1.202,9.076-3.06,13.128-5.453l10.147,10.145l18.001-18.001l-10.147-10.147c2.393-4.051,4.251-8.456,5.453-13.128h14.334
	V355.281z M167.031,368.009c-14.06,0-25.457-11.397-25.457-25.457s11.397-25.457,25.457-25.457s25.457,11.397,25.457,25.457
	S181.089,368.009,167.031,368.009z"/>
<path style="fill:#2B3B4E;" d="M230.674,355.281v-25.457h-14.333c-1.203-4.67-3.06-9.076-5.453-13.128l10.145-10.145l-18.001-18.001
	l-10.145,10.145c-4.051-2.393-8.456-4.251-13.128-5.453v-14.333h-12.683v38.188c14.038,0.024,25.412,11.411,25.412,25.455
	c0,14.045-11.374,25.431-25.412,25.455v38.188h12.683v-14.333c4.67-1.202,9.076-3.06,13.128-5.453l10.145,10.147l18.001-18.001
	l-10.145-10.145c2.393-4.051,4.251-8.456,5.453-13.128h14.333V355.281z"/>
<path style="fill:#31BAFD;" d="M167.031,383.438c-22.545,0-40.886-18.341-40.886-40.886c0-22.545,18.341-40.886,40.886-40.886
	s40.886,18.341,40.886,40.886C207.917,365.097,189.576,383.438,167.031,383.438z M167.031,307.066
	c-19.566,0-35.487,15.919-35.487,35.487c0,19.566,15.919,35.487,35.487,35.487s35.487-15.919,35.487-35.487
	C202.516,322.986,186.597,307.066,167.031,307.066z"/>
<path style="fill:#2B9ED8;" d="M207.917,342.552c0-22.53-18.316-40.86-40.841-40.884v5.401c19.546,0.024,35.44,15.932,35.44,35.483
	s-15.894,35.459-35.44,35.483v5.401C189.6,383.412,207.917,365.082,207.917,342.552z"/>
<path style="fill:#FFEDB5;" d="M167.031,133.963c-19.566,0-35.487,15.919-35.487,35.487s15.919,35.487,35.487,35.487
	s35.487-15.919,35.487-35.487S186.597,133.963,167.031,133.963z"/>
<path style="fill:#B5F1F4;" d="M167.031,133.963c-19.566,0-35.487,15.919-35.487,35.487s15.919,35.487,35.487,35.487
	s35.487-15.919,35.487-35.487S186.597,133.963,167.031,133.963z"/>
<path style="fill:#84DBFF;" d="M202.516,169.448c0-19.551-15.894-35.459-35.44-35.483v70.966
	C186.621,204.907,202.516,188.999,202.516,169.448z"/>
<path style="fill:#B5F1F4;" d="M344.967,133.963c-19.566,0-35.487,15.919-35.487,35.487s15.919,35.487,35.487,35.487
	s35.487-15.919,35.487-35.487S364.534,133.963,344.967,133.963z"/>
<path style="fill:#84DBFF;" d="M344.967,133.961c-0.11,0-0.219,0.016-0.329,0.017v70.939c0.11,0.002,0.219,0.017,0.329,0.017
	c19.566,0,35.487-15.919,35.487-35.485C380.454,149.882,364.534,133.961,344.967,133.961z"/>
<path style="fill:#B5F1F4;" d="M344.967,307.066c-19.566,0-35.487,15.919-35.487,35.487c0,19.566,15.919,35.487,35.487,35.487
	s35.487-15.919,35.487-35.487C380.454,322.986,364.534,307.066,344.967,307.066z"/>
<path style="fill:#84DBFF;" d="M380.454,342.552c0-19.532-15.865-35.425-35.385-35.481v70.961
	C364.589,377.977,380.454,362.084,380.454,342.552z"/>
<path style="fill:#B5F1F4;" d="M167.031,307.066c-19.566,0-35.487,15.919-35.487,35.487c0,19.566,15.919,35.487,35.487,35.487
	s35.487-15.919,35.487-35.487C202.516,322.986,186.597,307.066,167.031,307.066z"/>
<path style="fill:#84DBFF;" d="M202.516,342.552c0-19.551-15.894-35.459-35.44-35.483v70.966
	C186.621,378.011,202.516,362.103,202.516,342.552z"/>
<g>
</g>
<g>
</g>
<g>
</g>
<g>
</g>
<g>
</g>
<g>
</g>
<g>
</g>
<g>
</g>
<g>
</g>
<g>
</g>
<g>
</g>
<g>
</g>
<g>
</g>
<g>
</g>
<g>
</g>
</svg>
