<svg width="512" height="512" viewBox="0 0 512 512" xmlns="http://www.w3.org/2000/svg" xmlns:xlink="http://www.w3.org/1999/xlink" id="Capa_1" overflow="hidden"><g><g><path d="M504.5 121.648 7.5 121.648 7.5 59.018C7.5 47.86 16.545 38.815 27.703 38.815L484.297 38.815C495.455 38.815 504.5 47.86 504.5 59.018Z" fill="#90D8F9"/></g><g><path d="M484.297 38.815 453.992 38.815C465.15 38.815 474.195 47.86 474.195 59.018L474.195 121.648 504.5 121.648 504.5 59.018C504.5 47.86 495.455 38.815 484.297 38.815Z" fill="#75CEF9"/></g><g><path d="M7.5 121.648 504.5 121.648 504.5 452.981C504.5 464.139 495.455 473.184 484.297 473.184L27.703 473.184C16.545 473.184 7.5 464.139 7.5 452.981Z" fill="#ECF4FF"/></g><g><path d="M474.195 121.648 474.195 452.981C474.195 464.139 465.15 473.184 453.992 473.184L484.297 473.184C495.455 473.184 504.5 464.139 504.5 452.981L504.5 121.648Z" fill="#DDEAFB"/></g><g><g><g><circle cx="86.293" cy="265.091" r="16.163" fill="#DA387D"/></g><g><circle cx="215.593" cy="265.091" r="16.163" fill="#DA387D"/></g><g><circle cx="280.244" cy="265.091" r="16.163" fill="#DA387D"/></g><g><circle cx="150.943" cy="265.091" r="16.163" fill="#78D090"/></g></g><g><g><circle cx="86.293" cy="394.392" r="16.163" fill="#78D090"/></g><g><circle cx="215.593" cy="394.392" r="16.163" fill="#DA387D"/></g><g><circle cx="280.244" cy="394.392" r="16.163" fill="#DA387D"/></g><g><circle cx="150.943" cy="394.392" r="16.163" fill="#DA387D"/></g></g></g><g><g><path d="M433.932 424.301 421.666 440.86 409.4 424.301C404.245 417.342 401.462 408.91 401.462 400.25L401.462 153.974 441.868 153.974 441.868 400.25C441.87 408.911 439.087 417.342 433.932 424.301Z" fill="#4A80AA"/></g><g><path d="M423.687 153.974 423.687 400.25C423.687 408.91 420.904 417.342 415.749 424.301L412.575 428.586 421.666 440.859 433.932 424.3C439.087 417.341 441.87 408.909 441.87 400.249L441.87 153.974Z" fill="#407093"/></g><g><path d="M405.504 186.299 437.829 186.299 437.829 226.706 405.504 226.706Z" fill="#FFE07D" transform="matrix(0 -1 1 0 215.165 628.169)"/></g><g><path d="M423.687 190.339 441.87 190.339 441.87 222.664 423.687 222.664Z" fill="#FFD064"/></g></g><g><path d="M484.3 31.32 107.83 31.32C103.688 31.32 100.33 34.677 100.33 38.82 100.33 42.963 103.688 46.32 107.83 46.32L484.3 46.32C491.303 46.32 497 52.017 497 59.019L497 114.15 15 114.15 15 59.02C15 52.018 20.697 46.321 27.7 46.321L72.83 46.321C76.972 46.321 80.33 42.964 80.33 38.821 80.33 34.678 76.972 31.321 72.83 31.321L27.7 31.321C12.426 31.32-3.55271e-15 43.746-3.55271e-15 59.02L-3.55271e-15 367.22C-3.55271e-15 371.363 3.358 374.72 7.5 374.72 11.642 374.72 15 371.363 15 367.22L15 129.15 497 129.15 497 155.339C497 159.482 500.358 162.839 504.5 162.839 508.642 162.839 512 159.482 512 155.339L512 59.02C512 43.746 499.574 31.32 484.3 31.32Z"/><circle cx="438.839" cy="80.232" r="12.122"/><circle cx="397.423" cy="80.232" r="12.122"/><circle cx="356.006" cy="80.232" r="12.122"/><path d="M504.5 182.84C500.358 182.84 497 186.197 497 190.34L497 452.98C497 459.982 491.303 465.679 484.3 465.679L27.7 465.679C20.697 465.679 15 459.982 15 452.98L15 402.22C15 398.077 11.642 394.72 7.5 394.72 3.358 394.72-1.06581e-14 398.077-1.06581e-14 402.22L-1.06581e-14 452.981C-1.06581e-14 468.254 12.426 480.68 27.7 480.68L484.3 480.68C499.574 480.68 512 468.254 512 452.981L512 190.34C512 186.197 508.642 182.84 504.5 182.84Z"/><path d="M70.13 224.104 235.797 224.104C239.939 224.104 243.297 220.747 243.297 216.604 243.297 212.461 239.939 209.104 235.797 209.104L70.13 209.104C65.988 209.104 62.63 212.461 62.63 216.604 62.63 220.747 65.988 224.104 70.13 224.104Z"/><path d="M332.772 176.778 145.892 176.778C141.75 176.778 138.392 180.135 138.392 184.278 138.392 188.421 141.75 191.778 145.892 191.778L332.772 191.778C336.914 191.778 340.272 188.421 340.272 184.278 340.272 180.135 336.915 176.778 332.772 176.778Z"/><path d="M70.13 191.778 110.537 191.778C114.679 191.778 118.037 188.421 118.037 184.278 118.037 180.135 114.679 176.778 110.537 176.778L70.13 176.778C65.988 176.778 62.63 180.135 62.63 184.278 62.63 188.421 65.988 191.778 70.13 191.778Z"/><path d="M86.292 288.754C99.339 288.754 109.955 278.139 109.955 265.092 109.955 252.044 99.34 241.429 86.292 241.429 73.244 241.429 62.63 252.044 62.63 265.092 62.63 278.139 73.245 288.754 86.292 288.754ZM86.292 256.429C91.068 256.429 94.955 260.316 94.955 265.092 94.955 269.868 91.069 273.754 86.292 273.754 81.515 273.754 77.629 269.868 77.629 265.092 77.629 260.316 81.516 256.429 86.292 256.429Z"/><path d="M174.605 265.092C174.605 252.044 163.99 241.429 150.942 241.429 137.894 241.429 127.279 252.044 127.279 265.092 127.279 278.139 137.894 288.754 150.942 288.754 163.99 288.754 174.605 278.139 174.605 265.092ZM142.28 265.092C142.28 260.316 146.166 256.429 150.943 256.429 155.72 256.429 159.606 260.316 159.606 265.092 159.606 269.868 155.72 273.754 150.943 273.754 146.166 273.754 142.28 269.868 142.28 265.092Z"/><path d="M239.256 265.092C239.256 252.044 228.641 241.429 215.593 241.429 202.545 241.429 191.93 252.044 191.93 265.092 191.93 278.139 202.545 288.754 215.593 288.754 228.641 288.754 239.256 278.139 239.256 265.092ZM206.931 265.092C206.931 260.316 210.817 256.429 215.594 256.429 220.371 256.429 224.257 260.316 224.257 265.092 224.257 269.868 220.371 273.754 215.594 273.754 210.817 273.754 206.931 269.868 206.931 265.092Z"/><path d="M303.907 265.092C303.907 252.044 293.292 241.429 280.244 241.429 267.196 241.429 256.581 252.044 256.581 265.092 256.581 278.139 267.196 288.754 280.244 288.754 293.292 288.754 303.907 278.139 303.907 265.092ZM271.582 265.092C271.582 260.316 275.468 256.429 280.245 256.429 285.022 256.429 288.908 260.316 288.908 265.092 288.908 269.868 285.022 273.754 280.245 273.754 275.468 273.754 271.582 269.868 271.582 265.092Z"/><path d="M70.13 353.404 235.797 353.404C239.939 353.404 243.297 350.047 243.297 345.904 243.297 341.761 239.939 338.404 235.797 338.404L70.13 338.404C65.988 338.404 62.63 341.761 62.63 345.904 62.63 350.047 65.988 353.404 70.13 353.404Z"/><path d="M340.272 313.579C340.272 309.436 336.914 306.079 332.772 306.079L145.892 306.079C141.75 306.079 138.392 309.436 138.392 313.579 138.392 317.722 141.75 321.079 145.892 321.079L332.772 321.079C336.915 321.079 340.272 317.722 340.272 313.579Z"/><path d="M70.13 321.079 110.537 321.079C114.679 321.079 118.037 317.722 118.037 313.579 118.037 309.436 114.679 306.079 110.537 306.079L70.13 306.079C65.988 306.079 62.63 309.436 62.63 313.579 62.63 317.722 65.988 321.079 70.13 321.079Z"/><path d="M86.292 418.055C99.339 418.055 109.955 407.44 109.955 394.393 109.955 381.345 99.34 370.73 86.292 370.73 73.244 370.73 62.63 381.345 62.63 394.393 62.63 407.439 73.245 418.055 86.292 418.055ZM86.292 385.729C91.068 385.729 94.955 389.616 94.955 394.392 94.955 399.168 91.069 403.054 86.292 403.054 81.515 403.054 77.629 399.168 77.629 394.392 77.629 389.616 81.516 385.729 86.292 385.729Z"/><path d="M127.28 394.393C127.28 407.44 137.895 418.055 150.943 418.055 163.991 418.055 174.606 407.44 174.606 394.393 174.606 381.345 163.991 370.73 150.943 370.73 137.895 370.73 127.28 381.345 127.28 394.393ZM159.605 394.393C159.605 399.169 155.719 403.055 150.942 403.055 146.165 403.055 142.279 399.169 142.279 394.393 142.279 389.617 146.165 385.73 150.942 385.73 155.719 385.73 159.605 389.616 159.605 394.393Z"/><path d="M215.593 370.729C202.546 370.729 191.93 381.344 191.93 394.392 191.93 407.439 202.545 418.054 215.593 418.054 228.641 418.054 239.256 407.439 239.256 394.392 239.256 381.345 228.641 370.729 215.593 370.729ZM215.593 403.055C210.817 403.055 206.93 399.169 206.93 394.393 206.93 389.617 210.816 385.73 215.593 385.73 220.37 385.73 224.256 389.617 224.256 394.393 224.256 399.169 220.37 403.055 215.593 403.055Z"/><path d="M256.582 394.393C256.582 407.44 267.197 418.055 280.245 418.055 293.293 418.055 303.908 407.44 303.908 394.393 303.908 381.345 293.293 370.73 280.245 370.73 267.197 370.73 256.582 381.345 256.582 394.393ZM288.907 394.393C288.907 399.169 285.021 403.055 280.244 403.055 275.467 403.055 271.581 399.169 271.581 394.393 271.581 389.617 275.467 385.73 280.244 385.73 285.021 385.73 288.907 389.616 288.907 394.393Z"/><path d="M449.37 400.25 449.37 153.974C449.37 149.831 446.012 146.474 441.87 146.474L401.463 146.474C397.321 146.474 393.963 149.831 393.963 153.974L393.963 400.25C393.963 410.445 397.305 420.572 403.374 428.765L415.64 445.324C417.055 447.234 419.29 448.36 421.667 448.36 424.044 448.36 426.279 447.234 427.694 445.324L439.96 428.765 439.96 428.766C446.028 420.572 449.37 410.445 449.37 400.25ZM408.963 197.84 434.37 197.84 434.37 215.165 408.963 215.165ZM434.37 161.474 434.37 182.84 408.963 182.84 408.963 161.474ZM427.906 419.836 421.667 428.259 415.428 419.837C411.26 414.209 408.964 407.253 408.964 400.25L408.964 230.165 434.371 230.165 434.371 400.25C434.37 407.253 432.074 414.209 427.906 419.836Z"/></g></g></svg>