<svg width="512" height="512" viewBox="0 0 511 511" xmlns="http://www.w3.org/2000/svg" xmlns:xlink="http://www.w3.org/1999/xlink" id="Capa_1" overflow="hidden"><g><g><g><rect x="7.5" y="43.5" width="464" height="320" fill="#EAEBEF"/><path d="M239.5 117.375 7.5 293.376 7.5 363.5 471.5 363.5 471.5 293.376Z" fill="#D5D8DE"/><path d="M471.5 363.5 7.5 363.5 7.5 323.5 239.5 147.5 471.5 323.5Z" fill="#EAEBEF"/><path d="M239.5 227.5 7.5 43.5 471.5 43.5Z" fill="#F4F5F7"/></g><g><circle cx="399.5" cy="363.5" r="104" fill="#F7E88A"/><path d="M423.5 451.5C366.062 451.5 319.5 404.938 319.5 347.5 319.5 316.563 333.013 288.787 354.453 269.736 319.573 286.524 295.5 322.2 295.5 363.5 295.5 420.938 342.062 467.5 399.5 467.5 426.001 467.5 450.181 457.583 468.547 441.264 454.917 447.824 439.638 451.5 423.5 451.5Z" fill="#F6E477"/><g><path d="M431.5 363.5C431.5 345.827 417.173 331.5 399.5 331.5 381.827 331.5 367.5 345.827 367.5 363.5 367.5 403.5 351.5 419.5 351.5 419.5L447.5 419.5C447.5 419.5 431.5 403.5 431.5 363.5Z" fill="#F6B864"/><path d="M411.5 333.835C407.793 332.334 403.745 331.5 399.5 331.5 381.827 331.5 367.5 345.827 367.5 363.5 367.5 403.5 351.5 419.5 351.5 419.5L375.5 419.5C375.5 419.5 391.5 403.5 391.5 363.5 391.5 350.072 399.775 338.583 411.5 333.835Z" fill="#F4A63D"/></g></g></g><g><path d="M478.799 285.2C478.926 284.653 479 284.086 479 283.5L479 43.5C479 39.426 475.577 36 471.5 36L7.5 36C3.423 36 0 39.426 0 43.5L0 132.5C0 136.642 3.358 140 7.5 140 11.642 140 15 136.642 15 132.5L15 59.021 175.708 186.48 15 308.397 15 168.5C15 164.358 11.642 161 7.5 161 3.358 161 0 164.357 0 168.5L0 363.5C0 367.642 3.358 371 7.5 371L288.258 371C292.129 428.997 340.539 475 399.5 475 460.981 475 511 424.981 511 363.5 511 333.013 498.696 305.349 478.799 285.2ZM390.177 252.393 303.291 186.48 464 59.021 464 272.596C445.781 259.631 423.515 252 399.5 252 396.36 252 393.252 252.137 390.177 252.393ZM449.974 51 239.5 217.928 29.026 51 449.974 51ZM15 356 15 327.224 187.842 196.102 234.84 233.376C237.539 235.515 241.462 235.516 244.161 233.376L291.158 196.102 370.053 255.954C325.137 268.266 291.46 308.027 288.258 356L15 356ZM399.5 460C346.29 460 303 416.71 303 363.5 303 310.29 346.29 267 399.5 267 452.71 267 496 310.29 496 363.5 496 416.71 452.71 460 399.5 460Z"/><path d="M439 363.5C439 348.691 430.804 335.767 418.714 329.005 421.41 325.181 423 320.524 423 315.5 423 302.542 412.458 292 399.5 292 386.542 292 376 302.542 376 315.5 376 320.524 377.59 325.181 380.286 329.005 368.196 335.767 360 348.691 360 363.5 360 399.334 346.276 414.111 346.197 414.197 341.569 418.825 344.962 427 351.5 427L447.5 427C453.998 427 457.516 418.91 452.862 414.256 452.724 414.111 439 399.334 439 363.5ZM391 315.5C391 310.813 394.813 307 399.5 307 404.187 307 408 310.813 408 315.5 408 320.187 404.187 324 399.5 324 394.813 324 391 320.187 391 315.5ZM365.175 412C369.956 402.19 375 386.411 375 363.5 375 349.991 385.991 339 399.5 339 413.009 339 424 349.991 424 363.5 424 386.411 429.044 402.19 433.825 412L365.175 412Z"/></g></g></svg>