<svg width="512" height="512" viewBox="0 0 512.031 512.031" xmlns="http://www.w3.org/2000/svg" xmlns:xlink="http://www.w3.org/1999/xlink" id="Capa_1" overflow="hidden"><g><g><path d="M499.72 422.818 286.674 53.812C273.048 30.211 238.983 30.211 225.356 53.812L12.311 422.818C-1.315 446.419 15.717 475.921 42.97 475.921L469.061 475.921C496.313 475.92 513.346 446.418 499.72 422.818Z" fill="#E5646E"/><path d="M499.72 422.818 286.674 53.812C281.264 44.441 272.621 38.854 263.325 36.925L51.086 403.756C42.886 417.959 46.44 437.048 61.716 446.958 66.976 450.371 73.274 451.872 79.544 451.872L502.534 451.872C505.658 442.764 505.208 432.324 499.72 422.818Z" fill="#FF8086"/><path d="M447.072 427.823 256.016 96.903 64.959 427.823Z" fill="#FFFFFF"/><circle cx="256.016" cy="411.791" r="24.048" fill="#E5646E"/><path d="M264.443 355.678 247.589 355.678C243.326 355.678 239.808 352.341 239.584 348.083L232.412 211.809C232.171 207.223 235.824 203.372 240.417 203.372L271.616 203.372C276.209 203.372 279.862 207.223 279.621 211.809L272.449 348.083C272.224 352.341 268.706 355.678 264.443 355.678Z" fill="#E5646E"/><path d="M268.541 423.314C255.259 423.314 244.493 412.547 244.493 399.266 244.493 395.874 245.212 392.656 246.479 389.729 237.947 393.423 231.968 401.902 231.968 411.791 231.968 425.073 242.735 435.839 256.016 435.839 265.906 435.839 274.384 429.86 278.078 421.328 275.151 422.596 271.933 423.314 268.541 423.314Z" fill="#DB4655"/><path d="M240.416 203.372C235.823 203.372 232.169 207.223 232.411 211.809L239.583 348.083C239.807 352.341 243.324 355.678 247.588 355.678L257.017 355.678 256.015 203.372 240.416 203.372Z" fill="#DB4655"/></g><g><path d="M506.215 419.067 293.169 50.062C285.414 36.63 271.525 28.612 256.015 28.612 240.505 28.612 226.616 36.631 218.861 50.062L5.816 419.067C-1.939 432.499-1.939 448.537 5.816 461.968 13.571 475.401 27.461 483.419 42.97 483.419L469.061 483.419C484.571 483.419 498.46 475.4 506.215 461.968 513.97 448.537 513.97 432.499 506.215 419.067ZM493.225 454.469C488.181 463.205 479.148 468.42 469.061 468.42L42.97 468.42C32.883 468.42 23.85 463.205 18.806 454.469 13.763 445.734 13.763 435.303 18.806 426.568L231.852 57.562C236.895 48.827 245.929 43.612 256.016 43.612 266.103 43.612 275.136 48.827 280.18 57.562L493.225 426.568 493.225 426.568C498.268 435.303 498.268 445.733 493.225 454.469Z"/><path d="M294.565 148.673C292.494 145.085 287.907 143.857 284.32 145.928 280.733 147.999 279.504 152.586 281.575 156.173L434.082 420.323 312.132 420.323C307.99 420.323 304.632 423.681 304.632 427.823 304.632 431.965 307.99 435.323 312.132 435.323L447.072 435.323C449.752 435.323 452.227 433.893 453.567 431.573 454.907 429.253 454.907 426.393 453.567 424.073L294.565 148.673Z"/><path d="M199.905 420.323 77.949 420.323 256.015 111.902 264.711 126.965C266.782 130.552 271.369 131.781 274.956 129.71 278.543 127.639 279.772 123.052 277.701 119.465L262.51 93.152C261.17 90.832 258.695 89.402 256.015 89.402 253.335 89.402 250.859 90.832 249.52 93.152L58.464 424.073C57.124 426.393 57.124 429.253 58.464 431.573 59.804 433.893 62.279 435.323 64.959 435.323L199.905 435.323C204.047 435.323 207.405 431.965 207.405 427.823 207.405 423.681 204.047 420.323 199.905 420.323Z"/><path d="M256.016 380.243C238.62 380.243 224.468 394.396 224.468 411.791 224.468 429.187 238.62 443.34 256.016 443.34 273.412 443.34 287.564 429.187 287.564 411.791 287.564 394.396 273.412 380.243 256.016 380.243ZM256.016 428.34C246.891 428.34 239.468 420.916 239.468 411.791 239.468 402.666 246.891 395.243 256.016 395.243 265.141 395.243 272.564 402.666 272.564 411.791 272.564 420.916 265.141 428.34 256.016 428.34Z"/><path d="M240.417 195.872C236.18 195.872 232.077 197.635 229.161 200.708 226.245 203.782 224.7 207.971 224.922 212.203L232.094 348.477C232.528 356.72 239.334 363.178 247.589 363.178L264.443 363.178C272.698 363.178 279.504 356.72 279.938 348.477L287.11 212.203C287.333 207.972 285.787 203.782 282.871 200.708 279.954 197.634 275.852 195.872 271.615 195.872L240.417 195.872ZM272.13 211.415 264.958 347.689C264.944 347.963 264.717 348.178 264.442 348.178L247.588 348.178C247.313 348.178 247.087 347.963 247.072 347.689L239.9 211.415C239.897 211.36 239.888 211.194 240.041 211.033 240.194 210.872 240.361 210.872 240.416 210.872L271.614 210.872C271.669 210.872 271.836 210.872 271.989 211.033 272.142 211.194 272.133 211.36 272.13 211.415Z"/></g></g></svg>