<?xml version="1.0" encoding="UTF-8" standalone="no"?>
<!DOCTYPE svg PUBLIC "-//W3C//DTD SVG 1.1//EN" "http://www.w3.org/Graphics/SVG/1.1/DTD/svg11.dtd">
<svg width="100%" height="100%" viewBox="0 0 512 512" version="1.1" xmlns="http://www.w3.org/2000/svg"
     xml:space="preserve"
     style="fill-rule:evenodd;clip-rule:evenodd;stroke-linejoin:round;stroke-miterlimit:2;">
    <g transform="matrix(1.1366,0,0,1.1366,-23.8796,-41.5483)">
        <path d="M469.003,61.304C469.003,49.01 459.021,39.028 446.727,39.028L45.759,39.028C33.465,39.028 23.483,49.01 23.483,61.304L23.483,462.272C23.483,474.566 33.465,484.548 45.759,484.548L446.727,484.548C459.021,484.548 469.003,474.566 469.003,462.272L469.003,61.304Z" style="fill:rgb(6,52,79);"/>
    </g>
    <g transform="matrix(1,0,0,1,-1.12911,-3.62684)">
        <g transform="matrix(1.303,0,0,1.303,61.6796,181.447)">
            <path d="M72.94,53.14C69.45,51.42 64.82,50.29 59.05,49.73L31.6,46.57C27.72,46.13 24.92,45.52 23.2,44.74C21.48,43.97 20.34,42.72 19.79,41C19.23,39.28 18.96,36.43 18.96,32.43C18.96,28.88 19.24,26.19 19.79,24.36C20.34,22.53 21.62,21.06 23.62,19.95C25.5,18.84 28.17,18.07 31.6,17.62C35.04,17.18 39.69,16.95 45.57,16.95C51,16.95 56.77,17.14 62.87,17.53C68.97,17.92 74.07,18.44 78.17,19.11L78.17,3.16C73.95,2.27 68.47,1.52 61.7,0.91C54.94,0.31 48.35,0 41.92,0C32.49,0 24.84,0.78 18.97,2.33C13.08,3.88 8.45,7.07 5.07,11.89C1.69,16.72 0,23.84 0,33.27C0,39.92 0.69,45.41 2.08,49.74C3.47,54.06 6.01,57.53 9.73,60.14C13.44,62.75 18.8,64.44 25.78,65.21L53.06,68.37C56.83,68.7 59.52,69.31 61.13,70.2C62.74,71.09 63.79,72.47 64.29,74.36C64.79,76.25 65.04,79.24 65.04,83.34C65.04,87.11 64.76,90.02 64.21,92.07C63.65,94.12 62.49,95.7 60.72,96.81C58.83,98.03 56.23,98.89 52.9,99.39C49.57,99.89 44.92,100.14 38.93,100.14C28.84,100.14 16.97,99.47 3.33,98.14L3.33,114.61C9.09,115.39 15.8,116 23.46,116.44C31.11,116.88 38.1,117.11 44.42,117.11C53.4,117.11 60.61,116.36 66.04,114.86C71.47,113.36 75.8,110.09 79.01,105.05C82.22,100.01 83.83,92.44 83.83,82.35C83.83,73.26 82.83,66.49 80.84,62.06C79.06,57.83 76.43,54.86 72.94,53.14Z" style="fill:white;fill-rule:nonzero;"/>
        </g>
        <g transform="matrix(1.303,0,0,1.303,61.6796,181.447)">
            <path d="M281.37,49.4L228.14,49.4L228.14,1.33L209.35,1.33L209.35,115.77L228.14,115.77L228.14,66.87L281.37,66.87L281.37,115.77L300,115.77L300,1.33L281.37,1.33L281.37,49.4Z" style="fill:white;fill-rule:nonzero;"/>
        </g>
        <g transform="matrix(1.303,0,0,1.303,61.6796,181.447)">
            <circle cx="167.65" cy="109.86" r="10.14" style="fill:rgb(52,161,173);"/>
        </g>
        <g transform="matrix(1.303,0,0,1.303,61.6796,181.447)">
            <path d="M158.39,25.15L158.39,63.19L177.02,63.19L177.02,1.33L155.1,1.33L98.38,75.68L98.38,90.65L196.86,90.65L196.86,73.85L120.3,73.85L158.39,25.15Z" style="fill:rgb(52,161,173);fill-rule:nonzero;"/>
        </g>
    </g>
</svg>
