<svg width="512" height="512" viewBox="0 0 512 512" xmlns="http://www.w3.org/2000/svg" xmlns:xlink="http://www.w3.org/1999/xlink" id="Layer_1" overflow="hidden"><g><g><g><path d="M131 181.327 381 181.327 381 211.325 131 211.325Z" fill="#B9CFDF"/><path d="M361 181.327 381 181.327 381 211.325 361 211.325Z" fill="#90ABBD"/></g><g><path d="M111 92.759 401 92.759 401 181.329 111 181.329Z" fill="#EEF0F5"/><path d="M401 92.759 401 181.329 111 181.329 111 161.329 371.21 161.329C376.62 161.329 381 156.949 381 151.539L381 92.759Z" fill="#DAE1EA"/><g><path d="M141.126 122.044 171.126 122.044 171.126 152.042 141.126 152.042Z" fill="#00CEC8"/><path d="M201.126 122.044 231.126 122.044 231.126 152.042 201.126 152.042Z" fill="#FF4656"/></g></g><g><path d="M131 299.894 381 299.894 381 329.892 131 329.892Z" fill="#B9CFDF"/><path d="M361 299.894 381 299.894 381 329.892 361 329.892Z" fill="#90ABBD"/></g><g><path d="M111 211.326 401 211.326 401 299.896 111 299.896Z" fill="#EEF0F5"/><path d="M401 211.326 401 299.896 111 299.896 111 279.896 371.21 279.896C376.62 279.896 381 275.516 381 270.106L381 211.326Z" fill="#DAE1EA"/><g><path d="M141.126 240.611 171.126 240.611 171.126 270.609 141.126 270.609Z" fill="#00CEC8"/><path d="M201.126 240.611 231.126 240.611 231.126 270.609 201.126 270.609Z" fill="#FF4656"/></g></g><g><path d="M111 329.892 401 329.892 401 418.462 111 418.462Z" fill="#EEF0F5"/><path d="M401 329.892 401 418.462 111 418.462 111 398.462 371.21 398.462C376.62 398.462 381 394.082 381 388.672L381 329.892Z" fill="#DAE1EA"/><g><path d="M141.126 359.177 171.126 359.177 171.126 389.175 141.126 389.175Z" fill="#00CEC8"/><path d="M201.126 359.177 231.126 359.177 231.126 389.175 201.126 389.175Z" fill="#FF4656"/></g></g></g><g fill="#FF4656"><path d="M7.5 7.505 37.5 7.505 37.5 37.452 7.5 37.452Z"/><path d="M474.5 7.505 504.5 7.505 504.5 37.452 474.5 37.452Z" transform="matrix(-1 0 0 -1 979 44.957)"/><path d="M7.5 474.557 37.5 474.557 37.5 504.504 7.5 504.504Z"/><path d="M474.5 474.557 504.5 474.557 504.5 504.504 474.5 504.504Z" transform="matrix(-1 0 0 -1 979 979.062)"/></g><g fill="#00CEC8"><path d="M241 7.505 271 7.505 271 37.452 241 37.452Z" transform="matrix(-1 0 0 -1 512 44.957)"/><path d="M241 474.557 271 474.557 271 504.504 241 504.504Z" transform="matrix(-1 0 0 -1 512 979.062)"/></g></g><g><path d="M141.126 114.521C136.983 114.521 133.626 117.879 133.626 122.021L133.626 152C133.626 156.142 136.983 159.5 141.126 159.5L171.126 159.5C175.269 159.5 178.626 156.142 178.626 152L178.626 122.021C178.626 117.879 175.269 114.521 171.126 114.521ZM163.626 144.5 148.626 144.5 148.626 129.521 163.626 129.521Z"/><path d="M193.626 122.021 193.626 152C193.626 156.142 196.983 159.5 201.126 159.5L231.126 159.5C235.269 159.5 238.626 156.142 238.626 152L238.626 122.021C238.626 117.879 235.269 114.521 231.126 114.521L201.126 114.521C196.983 114.521 193.626 117.878 193.626 122.021ZM208.626 129.521 223.626 129.521 223.626 144.5 208.626 144.5Z"/><path d="M141.126 277.99 171.126 277.99C175.269 277.99 178.626 274.632 178.626 270.49L178.626 240.511C178.626 236.369 175.269 233.011 171.126 233.011L141.126 233.011C136.983 233.011 133.626 236.369 133.626 240.511L133.626 270.49C133.626 274.632 136.983 277.99 141.126 277.99ZM148.626 248.011 163.626 248.011 163.626 262.99 148.626 262.99Z"/><path d="M201.126 277.99 231.126 277.99C235.269 277.99 238.626 274.632 238.626 270.49L238.626 240.511C238.626 236.369 235.269 233.011 231.126 233.011L201.126 233.011C196.983 233.011 193.626 236.369 193.626 240.511L193.626 270.49C193.626 274.632 196.983 277.99 201.126 277.99ZM208.626 248.011 223.626 248.011 223.626 262.99 208.626 262.99Z"/><path d="M141.126 396.48 171.126 396.48C175.269 396.48 178.626 393.122 178.626 388.98L178.626 359.001C178.626 354.859 175.269 351.501 171.126 351.501L141.126 351.501C136.983 351.501 133.626 354.859 133.626 359.001L133.626 388.98C133.626 393.122 136.983 396.48 141.126 396.48ZM148.626 366.501 163.626 366.501 163.626 381.48 148.626 381.48Z"/><path d="M201.126 396.48 231.126 396.48C235.269 396.48 238.626 393.122 238.626 388.98L238.626 359.001C238.626 354.859 235.269 351.501 231.126 351.501L201.126 351.501C196.983 351.501 193.626 354.859 193.626 359.001L193.626 388.98C193.626 393.122 196.983 396.48 201.126 396.48ZM208.626 366.501 223.626 366.501 223.626 381.48 208.626 381.48Z"/><path d="M504.5 0 474.5 0C470.357 0 467 3.358 467 7.5L467 14.974 362.084 14.974C359.998 14.974 358.054 15.838 356.665 17.29L335.577 38.344C334.168 39.751 333.376 41.66 333.376 43.651L333.374 85.255 263.5 85.255 263.5 44.947 271 44.947C275.143 44.947 278.5 41.589 278.5 37.447L278.5 7.5C278.5 3.358 275.143-3.55271e-15 271-3.55271e-15L241-3.55271e-15C236.857-3.55271e-15 233.5 3.358 233.5 7.5L233.5 37.447C233.5 41.589 236.857 44.947 241 44.947L248.5 44.947 248.5 85.255 232.26 85.255C228.117 85.255 224.76 88.613 224.76 92.755 224.76 96.897 228.117 100.255 232.26 100.255L393.5 100.255 393.5 173.766 118.5 173.766 118.5 100.255 197.674 100.255C201.817 100.255 205.174 96.897 205.174 92.755 205.174 88.613 201.817 85.255 197.674 85.255L178.626 85.255 178.624 43.651C178.624 41.66 177.832 39.751 176.423 38.344L155.364 17.319C153.973 15.85 152.016 14.974 149.916 14.974L45 14.974 45 7.5C45 3.358 41.643-5.32907e-15 37.5-5.32907e-15L7.5-5.32907e-15C3.357-5.32907e-15 0 3.358 0 7.5L0 37.447C0 41.589 3.357 44.947 7.5 44.947L37.5 44.947C41.643 44.947 45 41.589 45 37.447L45 29.973 146.809 29.973 163.624 46.761 163.626 85.254 111 85.254C106.857 85.254 103.5 88.612 103.5 92.754L103.5 181.265C103.5 185.407 106.857 188.765 111 188.765L123.5 188.765 123.5 203.744 111 203.744C106.857 203.744 103.5 207.102 103.5 211.244L103.5 299.755C103.5 303.897 106.857 307.255 111 307.255L123.5 307.255 123.5 322.234 111 322.234C106.857 322.234 103.5 325.592 103.5 329.734L103.5 418.245C103.5 422.387 106.857 425.745 111 425.745L163.626 425.745 163.624 465.237 146.809 482.025 45 482.025 45 474.551C45 470.409 41.643 467.051 37.5 467.051L7.5 467.051C3.357 467.051 0 470.409 0 474.551L0 504.5C0 508.642 3.357 512 7.5 512L37.5 512C41.643 512 45 508.642 45 504.5L45 497.026 149.916 497.026C152.002 497.026 153.946 496.161 155.335 494.71L176.423 473.656C177.832 472.249 178.624 470.34 178.624 468.349L178.626 425.746 248.5 425.746 248.5 467.053 241 467.053C236.857 467.053 233.5 470.411 233.5 474.553L233.5 504.5C233.5 508.642 236.857 512 241 512L271 512C275.143 512 278.5 508.642 278.5 504.5L278.5 474.553C278.5 470.411 275.143 467.053 271 467.053L263.5 467.053 263.5 425.746 333.374 425.746 333.376 468.349C333.376 470.34 334.168 472.249 335.577 473.656L356.636 494.681C358.027 496.15 359.984 497.026 362.084 497.026L467 497.026 467 504.5C467 508.642 470.357 512 474.5 512L504.5 512C508.643 512 512 508.642 512 504.5L512 474.553C512 470.411 508.643 467.053 504.5 467.053L474.5 467.053C470.357 467.053 467 470.411 467 474.553L467 482.027 365.191 482.027 348.376 465.239 348.374 425.747 401 425.747C405.143 425.747 408.5 422.389 408.5 418.247L408.5 329.736C408.5 325.594 405.143 322.236 401 322.236L388.5 322.236 388.5 307.257 401 307.257C405.143 307.257 408.5 303.899 408.5 299.757L408.5 211.246C408.5 207.104 405.143 203.746 401 203.746L388.5 203.746 388.5 188.767 401 188.767C405.143 188.767 408.5 185.409 408.5 181.267L408.5 92.755C408.5 88.613 405.143 85.255 401 85.255L348.374 85.255 348.376 46.762 365.191 29.974 467 29.974 467 37.448C467 41.59 470.357 44.948 474.5 44.948L504.5 44.948C508.643 44.948 512 41.59 512 37.448L512 7.5C512 3.358 508.643-7.10543e-15 504.5-7.10543e-15ZM248.5 15 263.5 15 263.5 29.947 248.5 29.947ZM30 29.947 15 29.947 15 15 30 15ZM30 497 15 497 15 482.053 30 482.053ZM482 482.053 497 482.053 497 497 482 497ZM138.5 188.766 373.5 188.766 373.5 203.745 138.5 203.745ZM263.5 497 248.5 497 248.5 482.053 263.5 482.053ZM393.5 337.235 393.5 410.746 118.5 410.746 118.5 337.235ZM393.5 218.745 393.5 292.256 332.874 292.256C328.731 292.256 325.374 295.614 325.374 299.756 325.374 303.898 328.731 307.256 332.874 307.256L373.5 307.256 373.5 322.235 138.5 322.235 138.5 307.256 297.62 307.256C301.763 307.256 305.12 303.898 305.12 299.756 305.12 295.614 301.763 292.256 297.62 292.256L118.5 292.256 118.5 218.745ZM497 29.947 482 29.947 482 15 497 15Z"/><path d="M271.62 381.491C275.762 381.491 279.12 378.133 279.12 373.99 279.12 369.847 275.762 366.489 271.62 366.489 267.478 366.489 264.12 369.847 264.12 373.99 264.12 378.133 267.478 381.491 271.62 381.491Z"/><path d="M315.12 381.491C319.262 381.491 322.62 378.133 322.62 373.99 322.62 369.847 319.262 366.489 315.12 366.489 310.978 366.489 307.62 369.847 307.62 373.99 307.62 378.133 310.978 381.491 315.12 381.491Z"/><path d="M358.62 381.491C362.762 381.491 366.12 378.133 366.12 373.99 366.12 369.847 362.762 366.489 358.62 366.489 354.478 366.489 351.12 369.847 351.12 373.99 351.12 378.133 354.478 381.491 358.62 381.491Z"/><path d="M271.62 262.92C275.762 262.92 279.12 259.562 279.12 255.419 279.12 251.276 275.762 247.918 271.62 247.918 267.478 247.918 264.12 251.276 264.12 255.419 264.12 259.562 267.478 262.92 271.62 262.92Z"/><path d="M315.12 262.92C319.262 262.92 322.62 259.562 322.62 255.419 322.62 251.276 319.262 247.918 315.12 247.918 310.978 247.918 307.62 251.276 307.62 255.419 307.62 259.562 310.978 262.92 315.12 262.92Z"/><path d="M358.62 262.92C362.762 262.92 366.12 259.562 366.12 255.419 366.12 251.276 362.762 247.918 358.62 247.918 354.478 247.918 351.12 251.276 351.12 255.419 351.12 259.562 354.478 262.92 358.62 262.92Z"/><path d="M279.12 136.859C279.12 132.716 275.762 129.358 271.62 129.358 267.478 129.358 264.12 132.716 264.12 136.859 264.12 141.002 267.478 144.36 271.62 144.36 275.762 144.36 279.12 141.001 279.12 136.859Z"/><path d="M322.62 136.859C322.62 132.716 319.262 129.358 315.12 129.358 310.978 129.358 307.62 132.716 307.62 136.859 307.62 141.002 310.978 144.36 315.12 144.36 319.262 144.36 322.62 141.001 322.62 136.859Z"/><path d="M366.12 136.859C366.12 132.716 362.762 129.358 358.62 129.358 354.478 129.358 351.12 132.716 351.12 136.859 351.12 141.002 354.478 144.36 358.62 144.36 362.762 144.36 366.12 141.001 366.12 136.859Z"/></g></svg>