<?xml version="1.0" encoding="iso-8859-1"?>
<!-- Generator: Adobe Illustrator 19.0.0, SVG Export Plug-In . SVG Version: 6.00 Build 0)  -->
<svg version="1.1" id="Layer_1" xmlns="http://www.w3.org/2000/svg" xmlns:xlink="http://www.w3.org/1999/xlink" x="0px" y="0px"
	 viewBox="0 0 512 512" style="enable-background:new 0 0 512 512;" xml:space="preserve">
<g>
	<path style="fill:#FFCD85;" d="M255.999,405.347c-13.875,0-99.328-41.124-99.328-139.927v-52.664
		c35.309-9.674,68.039-23.655,99.328-42.13c31.184,18.412,66.027,33.006,99.328,42.13v52.664
		C355.328,364.224,269.874,405.347,255.999,405.347L255.999,405.347z M225.744,53.421H10.77v405.16h490.46V117.393H259.769
		L225.744,53.421z"/>
	<path style="fill:#85BF4F;" d="M156.672,265.42c0,98.803,85.453,139.927,99.328,139.927s99.328-41.124,99.328-139.927v-52.664
		c-33.302-9.125-68.143-23.719-99.328-42.13c-31.289,18.475-64.018,32.456-99.328,42.13L156.672,265.42L156.672,265.42z"/>
</g>
<g>
	<path style="fill:#000003;" d="M501.23,106.623H266.24l-30.986-58.259c-1.87-3.516-5.527-5.713-9.509-5.713H10.77
		C4.823,42.65,0,47.473,0,53.42v405.16c0,5.946,4.823,10.77,10.77,10.77h490.46c5.947,0,10.77-4.824,10.77-10.77V117.393
		C512,111.446,507.177,106.623,501.23,106.623z M490.46,447.811H21.54V64.191h197.734l30.986,58.26
		c1.87,3.515,5.527,5.712,9.509,5.712h230.69v319.647H490.46z"/>
	<path style="fill:#000003;" d="M163.34,106.842h0.255c5.948,0,10.77-4.822,10.77-10.77c0-5.947-4.822-10.77-10.77-10.77h-0.255
		c-5.947,0-10.77,4.823-10.77,10.77C152.57,102.021,157.393,106.842,163.34,106.842z"/>
	<path style="fill:#000003;" d="M132.711,85.299H53.417c-5.947,0-10.77,4.823-10.77,10.77c0,5.948,4.823,10.77,10.77,10.77h79.294
		c5.947,0,10.77-4.822,10.77-10.77C143.481,90.122,138.658,85.299,132.711,85.299z"/>
	<path style="fill:#000003;" d="M250.524,161.353c-30.889,18.236-62.52,31.651-96.697,41.013c-4.681,1.282-7.925,5.536-7.925,10.388
		v52.666c0,56.184,25.936,93.39,47.693,114.708c25.059,24.552,52.051,35.989,62.405,35.989s37.347-11.437,62.405-35.989
		c21.756-21.318,47.693-58.524,47.693-114.708v-52.666c0-4.852-3.245-9.105-7.923-10.388c-32.76-8.975-67.102-23.54-96.698-41.013
		C258.097,159.359,253.903,159.359,250.524,161.353z M344.558,220.881v44.539c0,48.076-21.891,80.024-40.255,98.359
		c-21.746,21.712-43.863,30.273-48.303,30.787c-4.44-0.514-26.557-9.075-48.303-30.787c-18.364-18.335-40.255-50.283-40.255-98.359
		v-44.532c31.039-9.147,60.141-21.571,88.562-37.809C283.802,198.909,314.149,211.861,344.558,220.881z"/>
	<path style="fill:#000003;" d="M230.639,330.858c2.103,2.103,4.859,3.155,7.615,3.155c2.756,0,5.512-1.051,7.615-3.155
		l70.513-70.512c4.206-4.206,4.206-11.025,0-15.232c-4.206-4.206-11.023-4.205-15.232,0l-62.897,62.897l-27.404-27.404
		c-4.207-4.206-11.024-4.206-15.232,0c-4.206,4.206-4.206,11.025,0,15.231L230.639,330.858z"/>
	<path style="fill:#000003;" d="M380.391,426.706h0.256c5.947,0,10.77-4.824,10.77-10.77c0-5.948-4.823-10.77-10.77-10.77h-0.256
		c-5.947,0-10.77,4.822-10.77,10.77C369.621,421.883,374.444,426.706,380.391,426.706z"/>
	<path style="fill:#000003;" d="M411.277,426.704h47.302c5.947,0,10.77-4.823,10.77-10.77c0-5.948-4.823-10.77-10.77-10.77h-47.302
		c-5.948,0-10.77,4.822-10.77,10.77C400.507,421.881,405.33,426.704,411.277,426.704z"/>
</g>
<g>
</g>
<g>
</g>
<g>
</g>
<g>
</g>
<g>
</g>
<g>
</g>
<g>
</g>
<g>
</g>
<g>
</g>
<g>
</g>
<g>
</g>
<g>
</g>
<g>
</g>
<g>
</g>
<g>
</g>
</svg>
