<?xml version="1.0" encoding="iso-8859-1"?>
<!-- Generator: Adobe Illustrator 19.0.0, SVG Export Plug-In . SVG Version: 6.00 Build 0)  -->
<svg version="1.1" id="Layer_1" xmlns="http://www.w3.org/2000/svg" x="0px" y="0px"
     viewBox="0 0 512 512" style="enable-background:new 0 0 512 512;" xml:space="preserve">
<path style="fill:#61322E;" d="M357.376,242.182c5.874-7.607,9.385-17.138,9.385-27.49c0-19.276-12.13-35.727-29.178-42.13v-26.275
	c0-80.153-64.793-145.453-144.755-146.274l80.75,365.703h18.995c43.503,0,78.769-35.266,78.769-78.769
	C371.341,270.314,366.187,254.897,357.376,242.182z"/>
<path style="fill:#81433D;" d="M326.24,242.182c7.146,12.716,11.343,28.132,11.343,44.763c0,43.503-28.649,78.769-64.006,78.769
	H90.022c-43.503,0-78.769-35.266-78.769-78.769c0-16.632,5.154-32.048,13.965-44.763c-5.874-7.607-9.385-17.138-9.385-27.49
	c0-19.276,12.13-35.727,29.178-42.13v-26.275C45.011,65.626,110.637,0,191.297,0c0.518,0,1.024,0,1.53,0.011
	c64.838,1.013,117.321,66.245,117.321,146.274v26.275c13.852,6.403,23.71,22.854,23.71,42.13
	C333.858,225.044,331.011,234.575,326.24,242.182z"/>
<g>
	<polygon style="fill:#9E52B6;" points="408.43,487.807 371.341,487.807 382.593,512 408.43,512 	"/>
	<path style="fill:#9E52B6;" d="M270.122,337.65l-34.4,8.237L348.835,512h33.758C382.593,434.446,336.457,367.684,270.122,337.65z"
		/>
</g>
<path style="fill:#B175C8;" d="M269.481,345.887l-156.976-8.248C46.159,367.661,0,434.435,0,512h348.835
	C348.835,440.894,316.889,378.858,269.481,345.887z"/>
<path style="fill:#A77C77;" d="M193.333,320.715l76.147,25.172c0.416-2.746,0.63-5.491,0.641-8.237
	C246.66,327.027,220.689,320.996,193.333,320.715z"/>
<path style="fill:#BA9894;" d="M193.333,320.715c27.693,0.428,53.653,9.531,76.147,25.172c-1.677,11.365-6.583,22.731-13.166,33.522
	L256,379.218l-64.703,33.758l-65.142-33.758c-8.124-13.357-13.65-27.592-13.65-41.579c24.025-10.881,50.705-16.935,78.792-16.935
	C191.972,320.703,192.658,320.703,193.333,320.715z"/>
<path style="fill:#FFFFFF;" d="M256,379.218l0.315,0.191c-22.607,37.044-65.018,67.325-65.018,67.325s-42.592-30.416-65.142-67.517
	H256z"/>
<path style="fill:#A77C77;" d="M298.67,112.527h-21.29c-3.668,0-7.292-0.18-10.87-0.518l-0.045,0.518l-75.168,174.418
	c62.149,0,112.527-50.379,112.527-112.527v-28.132C303.824,134.527,302.024,123.184,298.67,112.527z"/>
<path style="fill:#BA9894;" d="M270.066,146.286v28.132c0,62.149-35.266,112.527-78.769,112.527
	c-62.149,0-112.527-50.379-112.527-112.527v-28.132c0-11.759,1.8-23.102,5.154-33.758h21.29c34.535,0,65.446-15.563,86.084-40.049
	c18.443,21.887,45.101,36.639,75.213,39.531l-0.045,0.518C268.806,123.184,270.066,134.527,270.066,146.286z"/>
<g>
	<path style="fill:#81433D;" d="M161.477,160.352c-3.675,0-6.801-2.348-7.959-5.626h-14.546c-4.661,0-8.44-3.779-8.44-8.44
		s3.779-8.44,8.44-8.44h22.505c4.661,0,8.44,3.779,8.44,8.44v5.626C169.916,156.573,166.138,160.352,161.477,160.352z"/>
	<path style="fill:#81433D;" d="M221.117,160.352c-4.661,0-8.44-3.779-8.44-8.44v-5.626c0-4.661,3.779-8.44,8.44-8.44h22.505
		c4.661,0,8.44,3.779,8.44,8.44s-3.779,8.44-8.44,8.44h-14.546C227.918,158.003,224.792,160.352,221.117,160.352z"/>
</g>
<path style="fill:#61322E;" d="M209.864,205.363H172.73c-4.661,0-8.44-3.779-8.44-8.44c0-4.661,3.779-8.44,8.44-8.44h37.134
	c4.661,0,8.44,3.779,8.44,8.44C218.303,201.584,214.525,205.363,209.864,205.363z"/>
<path style="fill:#A77C77;" d="M512,269.908v75.236h-0.146L479.93,367.65l11.253-118.559C502.683,249.091,512,258.408,512,269.908z"
	/>
<path style="fill:#BA9894;" d="M491.182,249.091V367.65h-31.665l11.253-101.815C472.66,256.281,481.077,249.091,491.182,249.091z"/>
<path style="fill:#A77C77;" d="M449.547,203.776L438.295,367.65h32.059c0.011,0,0.011-143.056,0.011-143.056
	C470.365,213.105,461.048,203.776,449.547,203.776z"/>
<path style="fill:#BA9894;" d="M449.547,203.776V367.65h-32.07l11.253-143.056C428.73,213.105,438.047,203.776,449.547,203.776z"/>
<path style="fill:#A77C77;" d="M428.73,224.594V367.65h-32.07l11.253-193.468c11.5,0,20.818,9.317,20.818,20.818V224.594z"/>
<path style="fill:#BA9894;" d="M407.912,174.181V367.65h-32.07l11.253-143.394v-29.257
	C387.095,183.499,396.412,174.181,407.912,174.181z"/>
<path style="fill:#A77C77;" d="M387.095,224.256V367.65h-32.07l11.253-164.211C377.777,203.438,387.095,212.767,387.095,224.256z"/>
<path style="fill:#BA9894;" d="M345.459,224.256v79.94l-22.505,63.454h43.323V203.438
	C354.777,203.438,345.459,212.767,345.459,224.256z"/>
<path style="fill:#A77C77;" d="M470.354,345.144L408.43,512C465.898,512,512,465.898,512,408.43v-63.285H470.354z"/>
<path style="fill:#BA9894;" d="M470.354,408.43c0.079-31.226,0-63.285,0-63.285h-147.4L408.43,512
	c34.4,0,62.003-46.102,62.003-103.57H470.354z"/>
<path style="fill:#CDB4B1;" d="M408.43,442.874V512c-57.468,0-104.527-46.586-104.527-104.054l-0.079-103.75
	c0-11.489,9.317-20.818,20.818-20.818c11.5,0,20.818,9.329,20.818,20.818v40.949v33.758h0.068
	C380.714,379.049,408.565,407.687,408.43,442.874z"/>
<g>
</g>
<g>
</g>
<g>
</g>
<g>
</g>
<g>
</g>
<g>
</g>
<g>
</g>
<g>
</g>
<g>
</g>
<g>
</g>
<g>
</g>
<g>
</g>
<g>
</g>
<g>
</g>
<g>
</g>
</svg>
