<svg width="512" height="512" viewBox="0 0 512 512" xmlns="http://www.w3.org/2000/svg" xmlns:xlink="http://www.w3.org/1999/xlink" id="Capa_1" overflow="hidden"><g><g><g><path d="M345.915 7.5 166.085 7.5C157.75 7.5 149.756 10.811 143.863 16.705L16.705 143.863C10.811 149.757 7.5 157.75 7.5 166.085L7.5 345.914C7.5 354.249 10.811 362.243 16.705 368.136L143.863 495.294C149.757 501.188 157.75 504.499 166.085 504.499L345.914 504.499C354.249 504.499 362.243 501.188 368.136 495.294L495.294 368.136C501.188 362.242 504.499 354.249 504.499 345.914L504.499 166.085C504.499 157.75 501.188 149.756 495.294 143.863L368.137 16.705C362.243 10.811 354.25 7.5 345.915 7.5Z" fill="#FD4755"/><path d="M368.137 16.705C362.243 10.811 354.25 7.5 345.914 7.5L279.375 7.5C282.353 12.109 285.914 17.322 290.105 22.919 291.158 24.325 292.21 25.693 293.26 27.041L292.621 27.041C306.27 43.803 367.894 123.138 356.852 234.049 341.628 386.992 202.332 458.302 193.306 462.73 181.848 468.665 171.524 473.158 163.008 476.526 153.834 479.679 145.758 484.579 139.171 490.603L143.863 495.295C149.757 501.189 157.75 504.5 166.085 504.5L345.914 504.5C354.249 504.5 362.243 501.189 368.136 495.295L495.294 368.137C501.188 362.243 504.499 354.25 504.499 345.915L504.499 166.085C504.499 157.75 501.188 149.756 495.294 143.863Z" fill="#FB2B3A"/><path d="M339.371 37.572 172.629 37.572C168.08 37.572 163.717 39.379 160.5 42.596L42.596 160.5C39.379 163.717 37.572 168.08 37.572 172.629L37.572 339.37C37.572 343.919 39.379 348.282 42.596 351.499L160.5 469.404C163.717 472.621 168.08 474.428 172.629 474.428L339.37 474.428C343.919 474.428 348.282 472.621 351.499 469.404L469.404 351.5C472.621 348.283 474.428 343.92 474.428 339.371L474.428 172.629C474.428 168.08 472.621 163.717 469.404 160.5L351.5 42.596C348.283 39.38 343.92 37.572 339.371 37.572Z" fill="#F5F8F9"/><path d="M351.5 42.596C348.283 39.379 343.92 37.572 339.371 37.572L300.768 37.572C321.994 66.462 366.361 138.548 356.854 234.049 341.628 386.992 202.332 458.302 193.306 462.73 184.447 467.319 176.277 471.038 169.084 474.049 170.241 474.294 171.427 474.428 172.628 474.428L339.369 474.428C343.918 474.428 348.281 472.621 351.498 469.404L469.404 351.5C472.621 348.283 474.428 343.92 474.428 339.371L474.428 172.629C474.428 168.08 472.621 163.717 469.404 160.5Z" fill="#E8EDF2"/></g><path d="M369.13 218.94 322.43 302.03C313.84 317.3 297.69 326.75 280.17 326.75L240.08 326.75C213.31 326.75 191.61 305.05 191.61 278.28L191.61 145.85C191.61 140.86 194.11 136.45 197.94 133.82 200.29 132.19 203.15 131.24 206.23 131.24 210.26 131.24 213.92 132.88 216.56 135.52 219.2 138.16 220.84 141.82 220.84 145.85L220.84 108.37C220.84 99.33 228.17 92 237.22 92 241.74 92 245.83 93.83 248.8 96.8 251.76 99.76 253.59 103.85 253.59 108.37L253.59 93.94C253.59 87.57 257.22 82.05 262.52 79.32 264.77 78.16 267.31 77.51 270.02 77.51 274.56 77.51 278.66 79.35 281.64 82.32 284.61 85.3 286.45 89.4 286.45 93.94L286.45 117.33C286.45 109.34 292.92 102.86 300.91 102.86 301.39 102.86 301.86 102.88 302.32 102.93 305.75 103.26 308.83 104.79 311.14 107.1 313.75 109.72 315.37 113.34 315.37 117.33L315.37 231.12C315.37 234.37 319.4 235.89 321.55 233.45L336.86 216.08C343.88 208.1 355.74 206.58 364.55 212.52L368.19 214.98C369.49 215.86 369.9 217.58 369.13 218.94Z" fill="#FED402"/><g fill="#FAC600"><path d="M280.533 203.408C275.861 204.417 271.45 200.857 271.45 196.077L271.45 93.94C271.36 92.19 270.86 86.58 266.63 82.33 265.03 80.71 263.33 79.74 262.52 79.32 264.77 78.16 267.31 77.51 270.02 77.51 274.56 77.51 278.66 79.35 281.64 82.32 284.61 85.3 286.45 89.4 286.45 93.94L286.45 117.33 286.45 196.077C286.45 199.609 283.986 202.662 280.533 203.408Z"/><path d="M247.433 217.988C242.761 218.997 238.35 215.437 238.35 210.657L238.35 108.52C238.26 106.77 237.76 101.16 233.53 96.91 231.93 95.29 230.23 94.32 229.42 93.9 231.67 92.74 234.21 92.09 236.92 92.09 241.46 92.09 245.56 93.93 248.54 96.9 251.51 99.88 253.35 103.98 253.35 108.52L253.35 131.91 253.35 210.657C253.35 214.189 250.885 217.242 247.433 217.988Z"/><path d="M220.87 147.87 220.87 225.87C220.87 226.239 220.859 226.606 220.838 226.971 220.288 236.44 206.009 235.821 205.996 226.335L205.87 147.87C205.78 146.12 205.28 140.51 201.05 136.26 199.95 135.15 198.81 134.35 197.94 133.82 200.29 132.19 203.15 131.24 206.23 131.24 210.26 131.24 213.92 132.88 216.56 135.52 219.2 138.16 220.84 141.82 220.84 145.85Z"/><g><path d="M300.371 117.325 300.371 172.775C300.371 180.674 310.15 184.367 315.371 178.439L315.371 117.748C315.371 110.053 309.537 103.393 301.859 102.893 298.749 102.691 295.848 103.491 293.409 104.976 297.578 107.515 300.371 112.088 300.371 117.325Z"/><path d="M364.549 212.524C358.679 208.566 351.465 207.937 345.222 210.303 346.717 210.871 348.173 211.596 349.549 212.524 352.904 214.786 353.96 219.245 351.978 222.772L307.425 302.029C298.841 317.299 282.686 326.75 265.169 326.75L280.169 326.75C297.687 326.75 313.841 317.299 322.425 302.029L369.132 218.939C369.898 217.577 369.49 215.855 368.194 214.982Z"/></g></g></g><path d="M374.681 210.311 368.743 206.307C356.842 198.283 340.715 200.352 331.228 211.123L322.872 220.608 322.872 117.326C322.872 105.216 313.02 95.364 300.91 95.364 298.477 95.364 296.136 95.761 293.946 96.495L293.946 93.943C293.946 80.749 283.212 70.015 270.019 70.015 259.351 70.015 250.291 77.033 247.214 86.694 244.172 85.286 240.785 84.5 237.218 84.5 224.054 84.5 213.344 95.209 213.344 108.374L213.344 124.912C211.109 124.15 208.716 123.737 206.226 123.737 194.03 123.737 184.108 133.659 184.108 145.855L184.108 237.745C184.108 241.887 187.466 245.245 191.608 245.245 195.75 245.245 199.108 241.887 199.108 237.745L199.108 145.855C199.108 141.93 202.301 138.737 206.226 138.737 210.151 138.737 213.344 141.93 213.344 145.855L213.344 207.927C213.344 212.069 216.702 215.427 220.844 215.427 224.986 215.427 228.344 212.069 228.344 207.927L228.344 108.374C228.344 103.481 232.324 99.5 237.218 99.5 242.112 99.5 246.092 103.48 246.092 108.374L246.092 205.372C246.092 209.514 249.45 212.872 253.592 212.872 257.734 212.872 261.092 209.514 261.092 205.372L261.092 93.942C261.092 89.019 265.097 85.014 270.019 85.014 274.941 85.014 278.946 89.019 278.946 93.942L278.947 154.591 278.946 202.133 278.947 202.133C278.947 206.275 282.305 209.633 286.447 209.633 290.589 209.633 293.947 206.275 293.947 202.133L293.947 117.325C293.947 113.486 297.071 110.363 300.909 110.363 304.747 110.363 307.871 113.487 307.871 117.325L307.871 231.117C307.871 235.749 310.671 239.8 315.005 241.437 319.339 243.074 324.117 241.886 327.179 238.409L342.483 221.036C347.003 215.906 354.686 214.919 360.356 218.742L360.561 218.881 315.887 298.354C308.641 311.244 294.954 319.251 280.168 319.251L240.083 319.251C217.489 319.251 199.108 300.87 199.108 278.276L199.108 267.743C199.108 263.601 195.75 260.243 191.608 260.243 187.466 260.243 184.108 263.601 184.108 267.743L184.108 278.276C184.108 309.141 209.218 334.251 240.083 334.251L280.168 334.251C300.367 334.251 319.064 323.313 328.962 305.705L377.025 220.204C378.94 216.799 377.92 212.495 374.681 210.311ZM356.803 37.293C352.147 32.637 345.956 30.072 339.371 30.072L172.629 30.072C166.044 30.072 159.853 32.636 155.197 37.293L37.293 155.197C32.637 159.853 30.072 166.044 30.072 172.629L30.072 339.37C30.072 345.955 32.636 352.146 37.293 356.802L155.197 474.706C159.853 479.362 166.044 481.927 172.629 481.927L339.37 481.927C345.955 481.927 352.146 479.363 356.802 474.706L423.696 407.812C426.625 404.883 426.625 400.134 423.696 397.206 420.767 394.277 416.018 394.277 413.09 397.206L346.196 464.1C344.373 465.923 341.949 466.927 339.37 466.927L172.629 466.927C170.05 466.927 167.627 465.923 165.803 464.1L47.899 346.196C46.076 344.373 45.072 341.949 45.072 339.37L45.072 172.629C45.072 170.05 46.076 167.627 47.899 165.803L165.804 47.899C167.627 46.076 170.051 45.072 172.63 45.072L339.371 45.072C341.95 45.072 344.373 46.076 346.197 47.899L464.101 165.803C465.924 167.626 466.928 170.05 466.928 172.629L466.928 339.37C466.928 341.949 465.924 344.372 464.101 346.196L432.555 377.743C429.626 380.672 429.626 385.421 432.555 388.349 435.484 391.278 440.233 391.278 443.161 388.349L474.707 356.802C479.363 352.146 481.928 345.955 481.928 339.37L481.928 172.629C481.928 166.044 479.364 159.853 474.707 155.197ZM500.599 138.56 373.44 11.401C366.088 4.049 356.313-3.55271e-15 345.915-3.55271e-15L166.085-3.55271e-15C155.687-3.55271e-15 145.912 4.049 138.56 11.401L11.401 138.56C4.049 145.912-3.55271e-15 155.688-3.55271e-15 166.085L-3.55271e-15 345.914C-3.55271e-15 356.312 4.049 366.087 11.401 373.439L138.56 500.599C145.912 507.951 155.687 512 166.085 512L345.914 512C356.312 512 366.087 507.951 373.439 500.599L500.599 373.44C507.951 366.088 512 356.313 512 345.915L512 166.085C512 155.688 507.951 145.912 500.599 138.56ZM497 345.915C497 352.306 494.511 358.315 489.992 362.834L362.833 489.992C358.314 494.511 352.305 497 345.914 497L166.085 497C159.694 497 153.685 494.511 149.166 489.992L22.008 362.833C17.489 358.314 15 352.306 15 345.915L15 166.085C15 159.694 17.489 153.685 22.008 149.166L149.167 22.008C153.686 17.489 159.694 15 166.085 15L345.914 15C352.305 15 358.314 17.489 362.833 22.008L489.992 149.167C494.511 153.686 497 159.695 497 166.086ZM165.285 413.202C160.659 413.202 156.219 411.349 153.408 408.247 150.628 405.178 145.884 404.943 142.814 407.724 139.744 410.505 139.51 415.248 142.291 418.318 147.982 424.6 156.363 428.203 165.285 428.203 176.432 428.203 185.802 421.042 187.565 411.175 188.9 403.7 185.571 393.959 172.226 389.034 166.298 386.846 160.764 384.469 158.843 383.63 158.118 382.964 158.109 382.101 158.179 381.611 158.272 380.964 158.761 379.376 161.286 378.615 167.661 376.694 173.7 381.409 173.907 381.573 177.077 384.195 181.775 383.775 184.427 380.62 187.093 377.45 186.684 372.719 183.514 370.053 183.021 369.638 171.265 359.941 156.958 364.253 149.583 366.476 144.361 372.31 143.332 379.479 142.361 386.236 145.29 392.738 150.976 396.447 151.308 396.663 151.656 396.853 152.017 397.014 152.308 397.144 159.235 400.229 167.033 403.106 170.088 404.233 173.207 406.252 172.799 408.537 172.462 410.417 169.842 413.202 165.285 413.202ZM218.237 428.202C222.379 428.202 225.737 424.844 225.737 420.702L225.737 378.147 232.109 378.147C236.251 378.147 239.609 374.789 239.609 370.647 239.609 366.505 236.251 363.147 232.109 363.147L204.478 363.147C200.336 363.147 196.978 366.505 196.978 370.647 196.978 374.789 200.336 378.147 204.478 378.147L210.738 378.147 210.738 420.702C210.737 424.844 214.095 428.202 218.237 428.202ZM248.531 395.674C248.531 413.61 263.118 428.201 281.048 428.201 298.978 428.201 313.565 413.609 313.565 395.674 313.565 377.738 298.978 363.146 281.048 363.146 263.118 363.146 248.531 377.738 248.531 395.674ZM298.565 395.674C298.565 405.339 290.707 413.201 281.048 413.201 271.389 413.201 263.531 405.338 263.531 395.674 263.531 386.009 271.389 378.146 281.048 378.146 290.707 378.146 298.565 386.009 298.565 395.674ZM335.823 363.146C331.681 363.146 328.323 366.504 328.323 370.646L328.323 420.701C328.323 424.843 331.681 428.201 335.823 428.201 339.965 428.201 343.323 424.843 343.323 420.701L343.323 406.419C345.757 406.407 348.231 406.398 349.754 406.398 361.828 406.398 371.65 396.697 371.65 384.773 371.65 372.848 361.828 363.147 349.754 363.147L335.823 363.147ZM356.65 384.772C356.65 388.363 353.492 391.397 349.754 391.397 348.229 391.397 345.76 391.407 343.323 391.418L343.323 378.145 349.754 378.145C353.492 378.146 356.65 381.181 356.65 384.772Z"/></g></svg>