<svg viewBox="0 0 512.001 512.001" xmlns="http://www.w3.org/2000/svg" xmlns:xlink="http://www.w3.org/1999/xlink" id="Layer_1" overflow="hidden"><g><path d="M447.83 114.863C475.785 114.863 498.527 92.12 498.527 64.167 498.527 36.214 475.786 13.474 447.83 13.474 419.878 13.474 397.138 36.215 397.138 64.167 397.137 92.122 419.878 114.863 447.83 114.863ZM429.501 59.348 442.217 71.557 466.155 48.491C467.166 47.518 468.493 46.982 469.895 46.982 471.373 46.982 472.75 47.568 473.777 48.631 474.775 49.668 475.311 51.031 475.284 52.472 475.258 53.911 474.672 55.254 473.636 56.253L445.964 82.917C444.953 83.889 443.626 84.425 442.224 84.425 440.825 84.425 439.5 83.891 438.491 82.922L422.036 67.122C419.892 65.064 419.822 61.645 421.881 59.502 422.906 58.434 424.287 57.845 425.769 57.845 427.166 57.846 428.492 58.378 429.501 59.348Z" fill="#75BF4D"/><path d="M447.83 397.137C419.878 397.137 397.138 419.878 397.138 447.83 397.138 475.784 419.879 498.526 447.83 498.526 475.785 498.526 498.527 475.784 498.527 447.83 498.526 419.878 475.785 397.137 447.83 397.137ZM421.882 443.165C422.907 442.097 424.288 441.508 425.77 441.508 427.167 441.508 428.493 442.042 429.502 443.012L442.218 455.221 466.156 432.155C467.166 431.183 468.494 430.646 469.895 430.646 471.374 430.646 472.751 431.231 473.778 432.294 474.776 433.331 475.312 434.694 475.285 436.135 475.259 437.574 474.673 438.917 473.637 439.916L445.965 466.58C444.954 467.552 443.627 468.088 442.225 468.088 440.826 468.088 439.501 467.554 438.492 466.585L422.037 450.785C419.892 448.728 419.822 445.309 421.882 443.165Z" fill="#75BF4D"/><path d="M64.166 397.137C36.214 397.137 13.474 419.878 13.474 447.83 13.474 475.784 36.215 498.526 64.166 498.526 92.121 498.526 114.863 475.784 114.863 447.83 114.864 419.878 92.121 397.137 64.166 397.137ZM38.218 443.166C39.244 442.097 40.625 441.508 42.106 441.508 43.503 441.508 44.828 442.042 45.838 443.012L58.554 455.221 82.492 432.155C83.502 431.183 84.83 430.646 86.231 430.646 87.709 430.646 89.087 431.231 90.114 432.294 91.113 433.331 91.648 434.694 91.621 436.135 91.595 437.574 91.009 438.917 89.973 439.916L62.3 466.58C61.29 467.552 59.962 468.088 58.56 468.088 57.161 468.088 55.836 467.554 54.827 466.585L38.373 450.785C36.229 448.728 36.159 445.309 38.218 443.166Z" fill="#75BF4D"/><path d="M64.166 13.474C36.215 13.474 13.474 36.215 13.474 64.167 13.474 92.121 36.215 114.863 64.166 114.863 92.121 114.863 114.863 92.12 114.863 64.167 114.864 36.216 92.121 13.474 64.166 13.474ZM38.218 59.502C39.243 58.434 40.624 57.845 42.106 57.845 43.505 57.845 44.829 58.377 45.838 59.347L58.554 71.556 82.492 48.49C83.503 47.517 84.83 46.981 86.232 46.981 87.71 46.981 89.087 47.567 90.114 48.63 91.113 49.667 91.648 51.03 91.621 52.471 91.595 53.91 91.009 55.253 89.973 56.252L62.3 82.917C61.29 83.889 59.962 84.425 58.56 84.425 57.161 84.425 55.836 83.891 54.827 82.922L38.373 67.122C36.229 65.064 36.159 61.645 38.218 59.502Z" fill="#75BF4D"/></g><g><path d="M26.408 64.707C26.408 40.434 44.522 20.326 67.938 17.157 65.821 16.869 63.664 16.709 61.471 16.709 35.005 16.709 13.473 38.242 13.473 64.708 13.473 91.176 35.005 112.709 61.471 112.709 63.665 112.709 65.821 112.548 67.938 112.262 44.522 109.09 26.408 88.98 26.408 64.707Z" fill="#56A846"/><path d="M410.072 64.707C410.072 40.434 428.186 20.326 451.602 17.157 449.485 16.869 447.328 16.709 445.135 16.709 418.668 16.709 397.137 38.242 397.137 64.708 397.137 91.176 418.669 112.709 445.135 112.709 447.329 112.709 449.485 112.548 451.602 112.262 428.185 109.09 410.072 88.98 410.072 64.707Z" fill="#56A846"/><path d="M26.408 447.831C26.408 423.558 44.522 403.45 67.938 400.281 65.821 399.993 63.664 399.833 61.471 399.833 35.004 399.833 13.473 421.366 13.473 447.832 13.473 474.299 35.005 495.833 61.471 495.833 63.665 495.833 65.821 495.672 67.938 495.386 44.522 492.215 26.408 472.103 26.408 447.831Z" fill="#56A846"/><path d="M410.072 447.831C410.072 423.558 428.186 403.45 451.602 400.281 449.485 399.993 447.328 399.833 445.135 399.833 418.668 399.833 397.137 421.366 397.137 447.832 397.137 474.3 418.669 495.833 445.135 495.833 447.329 495.833 449.485 495.672 451.602 495.386 428.185 492.215 410.072 472.103 410.072 447.831Z" fill="#56A846"/></g><path d="M257.665 126.268 253.45 126.268C228.54 126.268 208.273 146.536 208.273 171.448L208.273 178.284 208.325 182.575 212.339 180.612C212.392 180.586 212.444 180.558 212.576 180.507L213.49 180.225C213.601 180.203 213.713 180.191 213.88 180.168L214.036 180.141C214.217 180.123 214.402 180.114 214.617 180.114 214.993 180.114 252.416 179.842 269.382 156.385 270.604 154.695 272.773 153.843 274.83 154.264 276.901 154.688 278.539 156.293 279.015 158.393 279.199 159.151 283.68 177.008 297.86 180.234L298.057 180.29C298.173 180.319 298.291 180.349 298.407 180.387L298.596 180.457C298.691 180.493 298.786 180.526 298.877 180.567L302.844 182.369 302.844 171.447C302.843 146.535 282.577 126.268 257.665 126.268Z" fill="#694B4B"/><g><path d="M259.673 259.489 251.637 259.489C249.727 259.489 247.754 259.35 245.775 259.074L242.709 258.648 242.709 270.097 255.432 282.488 267.841 269.614 268.596 268.816 268.596 258.647 265.53 259.073C263.554 259.35 261.582 259.489 259.673 259.489Z" fill="#FBCB99"/><path d="M308.236 198.191 307.379 198.054C306.881 197.975 306.4 197.827 305.948 197.615L302.11 195.816 302.11 217.927 305.986 216.037C309.711 214.222 312.025 210.532 312.025 206.407 312.025 203.534 310.899 200.834 308.854 198.802L308.236 198.191Z" fill="#FBCB99"/></g><path d="M203.544 198.253 202.575 198.372 201.907 199.083C200.031 201.082 198.999 203.683 198.999 206.406 198.999 210.656 201.521 214.51 205.425 216.221L209.202 217.877 209.202 195.758 205.297 197.721C204.744 197.999 204.155 198.178 203.544 198.253Z" fill="#EDBA89"/><path d="M273.417 172.971 271.807 170.099 269.311 172.244C253.924 185.47 233.317 189.311 222.403 190.425L219.982 190.672 219.982 217.053C219.982 234.507 234.184 248.709 251.64 248.709L259.676 248.709C277.131 248.709 291.333 234.508 291.333 217.053L291.333 189.536 289.747 188.82C283.135 185.835 277.641 180.503 273.417 172.971Z" fill="#FBCB99"/><path d="M313.249 289.147C313.163 289.118 313.112 289.098 313.015 289.059L277.716 274.903 259.435 293.873C258.448 294.898 257.065 295.5 255.555 295.522 254.142 295.522 252.806 294.979 251.795 293.994L232.557 275.256 197.258 289.079C197.18 289.11 197.101 289.139 196.979 289.18 196.07 289.502 174.738 297.375 174.738 324.358L174.738 358.097 335.59 358.097 335.59 324.358C335.591 297.354 314.194 289.481 313.249 289.147Z" fill="#6598CB"/><path d="M221.209 178.283 221.209 171.447C221.209 148.006 239.154 128.683 262.026 126.482 260.59 126.344 259.137 126.267 257.666 126.267L253.451 126.267C228.541 126.267 208.274 146.535 208.274 171.447L208.274 178.283 208.326 182.574 212.34 180.611C212.393 180.585 212.445 180.557 212.577 180.506L213.491 180.224C213.602 180.202 213.714 180.19 213.881 180.167L214.037 180.14C214.218 180.122 214.403 180.113 214.618 180.113 214.714 180.113 217.244 180.093 221.225 179.674L221.209 178.283Z" fill="#563B3B"/><g><path d="M264.572 259.489 268.597 259.489 268.597 258.649 265.531 259.075C264.386 259.233 263.249 259.335 262.121 259.403 262.945 259.45 263.766 259.489 264.572 259.489Z" fill="#EDBA89"/><path d="M255.646 270.098 255.646 259.488 251.637 259.488C249.727 259.488 247.754 259.349 245.775 259.073L242.709 258.647 242.709 270.096 255.432 282.487 261.693 275.989 255.646 270.098Z" fill="#EDBA89"/><path d="M232.915 217.054 232.915 190.673 235.336 190.426C244.819 189.458 261.617 186.422 275.954 176.968 275.07 175.706 274.213 174.391 273.418 172.971L271.808 170.099 269.312 172.244C253.925 185.47 233.318 189.311 222.404 190.425L219.983 190.672 219.983 217.053C219.983 234.507 234.185 248.709 251.641 248.709L259.677 248.709C260.503 248.709 261.316 248.667 262.126 248.604 245.808 247.35 232.915 233.684 232.915 217.054Z" fill="#EDBA89"/></g><path d="M209.915 289.179C210.036 289.138 210.115 289.109 210.194 289.078L236.267 278.867 232.558 275.254 197.259 289.077C197.181 289.108 197.102 289.137 196.98 289.178 196.071 289.5 174.739 297.373 174.739 324.356L174.739 350.55 187.674 350.55 187.674 324.356C187.673 297.374 209.006 289.501 209.915 289.179Z" fill="#4982AA"/><g><path d="M447.83 383.664C433.048 383.664 419.427 388.702 408.567 397.133L372.437 361.003C369.279 357.847 364.161 357.847 361.004 361.003 357.847 364.161 357.847 369.279 361.004 372.436L397.134 408.566C388.703 419.427 383.665 433.048 383.665 447.83 383.665 483.213 412.45 511.999 447.831 511.999 483.215 511.999 512.001 483.213 512.001 447.83 512 412.449 483.214 383.664 447.83 383.664ZM447.83 495.832C421.363 495.832 399.832 474.298 399.832 447.831 399.832 421.364 421.364 399.832 447.83 399.832 474.299 399.832 495.832 421.365 495.832 447.831 495.832 474.298 474.297 495.832 447.83 495.832Z" fill="#202121"/><path d="M464.285 430.213 442.213 451.481 431.366 441.066C428.145 437.972 423.029 438.078 419.936 441.299 416.845 444.519 416.948 449.636 420.169 452.729L436.624 468.529C438.188 470.032 440.205 470.782 442.223 470.782 444.245 470.782 446.267 470.027 447.832 468.518L475.504 441.854C478.718 438.756 478.813 433.638 475.715 430.424 472.62 427.212 467.502 427.114 464.285 430.213Z" fill="#202121"/><path d="M80.622 46.55 58.55 67.818 47.703 57.404C44.483 54.312 39.364 54.415 36.273 57.637 33.182 60.857 33.285 65.975 36.506 69.067L52.961 84.867C54.525 86.37 56.542 87.12 58.56 87.12 60.582 87.12 62.604 86.365 64.169 84.856L91.841 58.192C95.055 55.094 95.15 49.976 92.052 46.762 88.956 43.549 83.839 43.452 80.622 46.55Z" fill="#202121"/><path d="M173.027 161.594 114.866 103.434C123.298 92.572 128.336 78.952 128.336 64.168 128.337 28.785 99.55 0 64.166 0 28.785 0.001 0 28.786 0 64.168 0 99.551 28.785 128.337 64.166 128.337 78.949 128.337 92.571 123.299 103.433 114.867L161.594 173.028C163.173 174.606 165.243 175.395 167.311 175.395 169.379 175.395 171.449 174.606 173.028 173.028 176.184 169.87 176.184 164.752 173.027 161.594ZM16.168 64.168C16.168 37.702 37.7 16.169 64.166 16.169 90.635 16.169 112.168 37.702 112.168 64.168 112.168 90.636 90.634 112.169 64.166 112.169 37.7 112.169 16.168 90.635 16.168 64.168Z" fill="#202121"/><path d="M447.83 0.001C412.449 0.001 383.664 28.786 383.664 64.168 383.664 78.951 388.702 92.573 397.133 103.435L335.264 165.304C332.107 168.462 332.107 173.58 335.264 176.737 336.843 178.315 338.913 179.104 340.981 179.104 343.049 179.104 345.119 178.315 346.698 176.737L408.567 114.868C419.428 123.299 433.048 128.337 447.83 128.337 483.214 128.337 512 99.551 512 64.168 512 28.786 483.214 0.001 447.83 0.001ZM447.83 112.169C421.363 112.169 399.832 90.635 399.832 64.168 399.832 37.701 421.364 16.17 447.83 16.17 474.298 16.169 495.832 37.702 495.832 64.168 495.832 90.635 474.297 112.169 447.83 112.169Z" fill="#202121"/><path d="M464.285 46.55 442.213 67.818 431.366 57.403C428.145 54.311 423.029 54.414 419.936 57.636 416.845 60.856 416.948 65.974 420.169 69.066L436.624 84.866C438.188 86.369 440.205 87.119 442.223 87.119 444.245 87.119 446.267 86.364 447.832 84.855L475.504 58.191C478.718 55.093 478.813 49.975 475.715 46.761 472.62 43.549 467.502 43.452 464.285 46.55Z" fill="#202121"/><path d="M80.622 430.213 58.55 451.481 47.703 441.066C44.483 437.972 39.364 438.078 36.273 441.299 33.182 444.519 33.285 449.636 36.506 452.729L52.961 468.529C54.525 470.032 56.542 470.782 58.56 470.782 60.582 470.782 62.604 470.027 64.169 468.518L91.841 441.854C95.055 438.756 95.15 433.638 92.052 430.424 88.956 427.212 83.839 427.114 80.622 430.213Z" fill="#202121"/><path d="M150.998 361.003C147.84 357.847 142.722 357.847 139.565 361.003L103.434 397.134C92.572 388.703 78.951 383.665 64.166 383.665 28.785 383.664 0 412.449 0 447.831 0 483.214 28.785 512 64.166 512 99.55 512 128.336 483.214 128.336 447.831 128.336 433.049 123.298 419.428 114.867 408.567L150.998 372.436C154.155 369.279 154.155 364.161 150.998 361.003ZM64.166 495.832C37.7 495.832 16.168 474.298 16.168 447.831 16.168 421.364 37.7 399.832 64.166 399.832 90.635 399.832 112.168 421.365 112.168 447.831 112.169 474.298 90.635 495.832 64.166 495.832Z" fill="#202121"/><path d="M318.571 277.037 282.623 262.621 282.623 256.644C292.419 251.024 299.929 241.855 303.367 230.894 316.079 230.156 326.196 219.585 326.196 206.694 326.196 199.001 322.59 192.138 316.984 187.693L316.984 171.615C316.984 139.181 290.598 112.795 258.165 112.795L253.936 112.795C221.502 112.795 195.115 139.181 195.115 171.615L195.115 187.62C189.456 192.063 185.811 198.958 185.811 206.694 185.811 219.684 196.082 230.318 208.93 230.911 212.371 241.865 219.878 251.027 229.669 256.645L229.669 262.575 192.773 277.025C189.603 278.165 161.47 289.298 161.47 325.039L161.47 356.718C161.47 361.183 165.088 364.81 169.554 364.81L197.708 364.81C202.174 364.81 205.792 361.192 205.792 356.726 205.792 352.26 202.174 348.642 197.708 348.642L177.639 348.642 177.639 325.04C177.639 299.828 197.391 292.544 198.173 292.267 198.298 292.225 198.422 292.18 198.546 292.131L232.344 278.894 250.408 296.491C251.918 297.962 253.943 298.785 256.049 298.785 256.091 298.785 256.134 298.785 256.177 298.784 258.328 298.751 260.376 297.86 261.87 296.31L278.958 278.575 312.703 292.107C312.845 292.165 312.991 292.218 313.135 292.267 313.341 292.335 333.671 299.464 333.671 325.04L333.671 348.642 282.983 348.642 229.739 348.642 225.989 348.642C221.523 348.642 217.905 352.26 217.905 356.726 217.905 361.192 221.523 364.81 225.989 364.81L229.739 364.81 282.983 364.81 341.755 364.81C346.221 364.81 349.839 361.129 349.839 356.663L349.839 325.039C349.84 289.428 321.914 278.246 318.571 277.037ZM305.431 213.969 305.431 200.275C306.117 200.602 306.853 200.832 307.628 200.955 309.108 202.42 310.026 204.45 310.026 206.692 310.027 209.899 308.145 212.666 305.431 213.969ZM253.937 128.963 258.166 128.963C281.683 128.963 300.816 148.097 300.816 171.614L300.816 178.419C300.745 178.386 300.675 178.351 300.603 178.32 300.456 178.255 300.305 178.199 300.155 178.143 300.059 178.107 299.964 178.07 299.866 178.037 299.698 177.982 299.526 177.937 299.353 177.893 299.282 177.875 299.213 177.85 299.141 177.834 286.347 174.925 282.221 158.023 282.188 157.888 281.487 154.79 279.036 152.39 275.923 151.754 272.811 151.116 269.613 152.361 267.753 154.936 251.504 177.4 215.415 177.634 214.973 177.634 214.963 177.634 214.954 177.634 214.945 177.634 214.667 177.634 214.392 177.648 214.12 177.676 214.033 177.685 213.948 177.704 213.861 177.716 213.68 177.741 213.497 177.762 213.32 177.799 213.198 177.824 213.081 177.86 212.961 177.891 212.823 177.925 212.682 177.956 212.547 177.998 212.406 178.042 212.269 178.098 212.131 178.15 212.023 178.19 211.912 178.224 211.807 178.269 211.643 178.338 211.487 178.419 211.33 178.499 211.316 178.507 211.301 178.513 211.286 178.519L211.286 171.617C211.285 148.097 230.418 128.963 253.937 128.963ZM201.98 206.693C201.98 204.556 202.821 202.614 204.181 201.168 205.136 201.053 206.038 200.769 206.861 200.35L206.861 214.106C203.993 212.865 201.98 210.011 201.98 206.693ZM223.029 193.33C234.474 192.168 255.65 188.164 271.617 174.425 275.117 180.676 280.698 187.629 289.262 191.493L289.262 217.375C289.262 233.412 276.215 246.459 260.178 246.459L252.115 246.459C236.077 246.459 223.029 233.412 223.029 217.375L223.029 193.33 223.029 193.33ZM255.866 279.233 245.837 269.464 245.837 262.181C247.89 262.468 249.984 262.626 252.115 262.626L260.178 262.626C262.308 262.626 264.401 262.468 266.454 262.181L266.454 268.217C266.454 268.226 266.454 268.234 266.454 268.243L255.866 279.233Z" fill="#202121"/></g><g></g><g></g><g></g><g></g><g></g><g></g><g></g><g></g><g></g><g></g><g></g><g></g><g></g><g></g><g></g></svg>