<?xml version="1.0" encoding="iso-8859-1"?>
<!-- Generator: Adobe Illustrator 19.0.0, SVG Export Plug-In . SVG Version: 6.00 Build 0)  -->
<svg version="1.1" id="Layer_1" xmlns="http://www.w3.org/2000/svg" x="0px" y="0px"
     viewBox="0 0 496.162 496.162" style="enable-background:new 0 0 496.162 496.162;" xml:space="preserve">
<path style="fill:#EA4949;" d="M248.077,0C111.072,0,0.002,111.062,0.002,248.083c0,137.005,111.07,248.079,248.075,248.079
	c137.013,0,248.083-111.074,248.083-248.079C496.16,111.062,385.09,0,248.077,0z"/>
<path style="fill:#D3D3D3;" d="M229.788,246.881v248.608c6.04,0.44,12.138,0.673,18.29,0.673c5.371,0,10.697-0.19,15.983-0.527
	V246.881H229.788z"/>
<path style="fill:#EAEAEA;" d="M229.788,246.881v248.608c6.04,0.44,12.138,0.673,18.29,0.673V246.881H229.788z"/>
<path style="fill:#EDC92C;" d="M386.655,277.836L255.199,65.972c-1.53-2.473-4.23-3.971-7.134-3.971
	c-2.908,0-5.604,1.504-7.138,3.971L109.115,278.418c-1.606,2.59-1.687,5.846-0.204,8.508c1.48,2.662,4.293,4.313,7.336,4.313
	h263.665c4.639,0,8.397-3.76,8.397-8.396C388.31,280.968,387.695,279.236,386.655,277.836z"/>
<path style="fill:#42413F;" d="M238.335,203.626c0.508,5.276,1.362,9.211,2.556,11.791c1.19,2.588,3.317,3.874,6.384,3.874
	c3.004,0,5.164-1.333,6.47-3.997c1.309-2.671,2.159-6.5,2.556-11.499l3.663-41.975c0.394-3.853,0.594-7.66,0.594-11.41
	c0-6.352-0.827-11.22-2.469-14.601c-1.643-3.376-4.91-5.063-9.794-5.063c-4.026,0-7.279,1.314-9.749,3.961
	c-2.464,2.636-3.699,6.313-3.699,11.022c0,3.463,0.251,9.167,0.762,17.115L238.335,203.626z M247.615,234.191
	c-3.575,0-6.6,1.232-9.069,3.702c-2.464,2.469-3.699,5.465-3.699,8.987c0,4.029,1.288,7.167,3.874,9.406
	c2.579,2.243,5.604,3.359,9.067,3.359c3.406,0,6.384-1.134,8.937-3.404c2.559-2.271,3.834-5.391,3.834-9.361
	c0-3.522-1.264-6.518-3.791-8.987C254.239,235.423,251.193,234.191,247.615,234.191z"/>
<g>
</g>
<g>
</g>
<g>
</g>
<g>
</g>
<g>
</g>
<g>
</g>
<g>
</g>
<g>
</g>
<g>
</g>
<g>
</g>
<g>
</g>
<g>
</g>
<g>
</g>
<g>
</g>
<g>
</g>
</svg>
