<svg width="512" height="512" viewBox="0 0 512 512" xmlns="http://www.w3.org/2000/svg" xmlns:xlink="http://www.w3.org/1999/xlink" id="Capa_1" overflow="hidden"><g><path d="M484.171 389.271 27.83 389.271C16.602 389.271 7.501 380.169 7.501 368.942L7.501 143.058C7.501 131.83 16.603 122.729 27.83 122.729L484.171 122.729C495.399 122.729 504.5 131.831 504.5 143.058L504.5 368.942C504.5 380.169 495.398 389.271 484.171 389.271Z" fill="#78D0B1"/><path d="M484.171 122.728 462.849 122.728C474.077 122.728 483.178 131.83 483.178 143.057L483.178 368.941C483.178 380.169 474.076 389.27 462.849 389.27L484.171 389.27C495.399 389.27 504.501 380.168 504.501 368.941L504.501 143.058C504.5 131.83 495.398 122.728 484.171 122.728Z" fill="#61AAB7"/><path d="M37.5 152.728 474.5 152.728 474.5 359.271 37.5 359.271Z" fill="#F6F1F1"/><path d="M452.241 152.728 474.5 152.728 474.5 359.271 452.241 359.271Z" fill="#EADFDA"/><g><path d="M255.979 294.918 255.979 217.081C255.979 212.938 252.622 209.581 248.479 209.581 244.336 209.581 240.979 212.938 240.979 217.081L240.979 294.918C240.979 299.061 244.336 302.418 248.479 302.418 252.622 302.418 255.979 299.061 255.979 294.918Z"/><path d="M122.783 224.937C126.926 224.937 130.283 221.58 130.283 217.437 130.283 213.294 126.926 209.937 122.783 209.937L90.285 209.937C86.142 209.937 82.785 213.294 82.785 217.437L82.785 294.563C82.785 298.706 86.142 302.063 90.285 302.063L122.783 302.063C126.926 302.063 130.283 298.706 130.283 294.563 130.283 290.42 126.926 287.063 122.783 287.063L97.785 287.063 97.785 263.5 120.387 263.5C124.53 263.5 127.887 260.143 127.887 256 127.887 251.857 124.53 248.5 120.387 248.5L97.785 248.5 97.785 224.937Z"/><path d="M148.624 301.05C152.04 303.455 156.709 302.596 159.075 299.238L182.303 266.265 205.496 299.234C207.876 302.617 212.553 303.44 215.945 301.052 219.333 298.669 220.147 293.99 217.763 290.603L191.479 253.239 213.908 221.401C216.293 218.014 215.482 213.336 212.096 210.95 208.707 208.563 204.031 209.377 201.645 212.762L182.312 240.206 163.009 212.766C160.627 209.38 155.95 208.562 152.56 210.948 149.172 213.331 148.358 218.01 150.742 221.397L173.137 253.232 146.813 290.599C144.427 293.985 145.238 298.664 148.624 301.05Z"/><path d="M307.757 302.418C311.9 302.418 315.257 299.061 315.257 294.918L315.257 224.581 329.337 224.581C333.48 224.581 336.837 221.224 336.837 217.081 336.837 212.938 333.48 209.581 329.337 209.581L286.351 209.581C282.208 209.581 278.851 212.938 278.851 217.081 278.851 221.224 282.208 224.581 286.351 224.581L300.257 224.581 300.257 294.918C300.257 299.061 303.614 302.418 307.757 302.418Z"/><path d="M355.386 255.999C355.386 260.142 358.743 263.499 362.886 263.499L410.183 263.499 402.67 271.423C399.82 274.429 399.946 279.176 402.952 282.026 405.957 284.876 410.705 284.75 413.555 281.744L433.072 261.161C435.815 258.268 435.815 253.734 433.072 250.841L413.555 230.257C410.704 227.251 405.957 227.126 402.952 229.975 399.946 232.825 399.819 237.572 402.67 240.578L410.182 248.501 362.887 248.501C358.743 248.499 355.386 251.856 355.386 255.999Z"/><path d="M443.863 170.986 441.124 170.986C436.981 170.986 433.624 174.343 433.624 178.486 433.624 182.629 436.981 185.986 441.124 185.986L443.863 185.986C448.006 185.986 451.363 182.629 451.363 178.486 451.363 174.343 448.006 170.986 443.863 170.986Z"/><path d="M70.877 170.986 68.137 170.986C63.994 170.986 60.637 174.343 60.637 178.486 60.637 182.629 63.994 185.986 68.137 185.986L70.877 185.986C75.02 185.986 78.377 182.629 78.377 178.486 78.377 174.343 75.02 170.986 70.877 170.986Z"/><path d="M443.863 326.014 441.124 326.014C436.981 326.014 433.624 329.371 433.624 333.514 433.624 337.657 436.981 341.014 441.124 341.014L443.863 341.014C448.006 341.014 451.363 337.657 451.363 333.514 451.363 329.371 448.006 326.014 443.863 326.014Z"/><path d="M70.877 326.014 68.137 326.014C63.994 326.014 60.637 329.371 60.637 333.514 60.637 337.657 63.994 341.014 68.137 341.014L70.877 341.014C75.02 341.014 78.377 337.657 78.377 333.514 78.377 329.371 75.02 326.014 70.877 326.014Z"/><path d="M171.867 366.771 474.5 366.771C478.643 366.771 482 363.414 482 359.271L482 152.729C482 148.586 478.643 145.229 474.5 145.229L37.5 145.229C33.357 145.229 30 148.586 30 152.729L30 359.272C30 363.415 33.357 366.772 37.5 366.772L141.88 366.772C146.023 366.772 149.38 363.415 149.38 359.272 149.38 355.129 146.023 351.772 141.88 351.772L45 351.772 45 160.229 467 160.229 467 351.772 171.867 351.772C167.724 351.772 164.367 355.129 164.367 359.272 164.367 363.415 167.725 366.771 171.867 366.771Z"/><path d="M504.5 332.442C500.357 332.442 497 335.799 497 339.942L497 368.941C497 376.015 491.245 381.771 484.171 381.771L27.83 381.771C20.756 381.771 15 376.015 15 368.941L15 143.058C15 135.984 20.756 130.229 27.83 130.229L68.137 130.229C72.28 130.229 75.637 126.872 75.637 122.729 75.637 118.586 72.28 115.229 68.137 115.229L27.83 115.229C12.484 115.229-1.42109e-14 127.713-1.42109e-14 143.058L-1.42109e-14 368.942C-1.42109e-14 384.288 12.484 396.772 27.83 396.772L484.171 396.772C499.516 396.772 512 384.288 512 368.942L512 339.943C512 335.8 508.643 332.442 504.5 332.442Z"/><path d="M484.171 115.229 98.124 115.229C93.981 115.229 90.624 118.586 90.624 122.729 90.624 126.872 93.981 130.229 98.124 130.229L484.171 130.229C491.245 130.229 497 135.984 497 143.058L497 309.956C497 314.099 500.357 317.456 504.5 317.456 508.643 317.456 512 314.099 512 309.956L512 143.058C512 127.713 499.516 115.229 484.171 115.229Z"/></g></g></svg>